<?xml version="1.0" encoding="utf-8"?>
<!-- Generator: Adobe Illustrator 22.0.1, SVG Export Plug-In . SVG Version: 6.00 Build 0)  -->
<svg version="1.1" id="Layer_1" xmlns="http://www.w3.org/2000/svg" xmlns:xlink="http://www.w3.org/1999/xlink" x="0px" y="0px"
	 viewBox="0 0 994.5 739.1" style="enable-background:new 0 0 994.5 739.1;" xml:space="preserve">
<style type="text/css">
	.st0{fill:#2DB0D9;}
	.st1{fill:#88BDDB;}
	.st2{fill:#21A5D8;}
</style>
<g>
	<g>
		<g>
			<g>
				<g>
					<path class="st0" d="M45,574c3.7,0.5,8.1-2,12.4-4.1C53.1,569.9,49.2,571.1,45,574z"/>
					<path class="st0" d="M57.5,569.9C57.5,569.9,57.5,569.9,57.5,569.9c0,0-0.1,0-0.1,0C57.4,569.9,57.4,569.9,57.5,569.9z"/>
					<path class="st0" d="M790.7,0c-1,0.7-2.1,1.4-3.3,2.2C788.6,1.5,789.8,0.9,790.7,0z"/>
					<path class="st0" d="M257.6,455.6l-1.4-3.7c9.6-5.9,5.1,2.1,13.5-4.2c0.6-6.8,15.1-8.5,16.7-12.9c0.2,0.4,4.6-2.1,5.2-0.5
						c-0.2-3.3,4.1-3.3,6.5-5.7c0.6-1.3-1.2-0.3-2.4-0.6l5.8-4.7c3-0.7,4.5,0.4,2,2.3c17-9.1,97.5-55,114.5-67.1
						c-3.4-0.5-8.1,4.1-12,2.4c3.7-4.5,7.3-3.6,8.2-6.7c4.5,3.4,11-5.2,17.3-2.9l-0.2-3.4l3.3,0.1c19-15.2,3.9-4.2,22.6-14.7
						c10.3-6.8,13.2-13.4,19.9-15.7c-0.9,0.5-4.2,0.4-1.8-1.9c1.8,1.9,6.3-6.1,9-4.6c2.5-1.9,11.4-6.9,6.6-8.2
						c2.4,0.6,10.5-3.5,6.7,0.6c2.7-1.5,5.5-2.6,7-4.4l-3.9,1.2c8.6-5.8,14.8-6.4,18.9-12.7l-4,0.8c5.2-3.4,9.4-6.3,13.4-4.6
						l-4.9,4.2c8.7-5.4,13.9-8.9,20.2-14.9l-2.7,1.5c7.5-8.7,54.6-40.9,60.9-49.9L597,225l6.2-6.5c-0.9,0.5,1.1,9.8-0.1,9.4
						c15.7-9.9,96.8-61.9,112.3-69.2c6.7-2.3,3.3,3.1,3.5,3.5c6.6-5.2,1.6-4.4,7.8-7.9c1.9-0.6,0.8,2,0,2.9c2.5-1.9,5.5-2.6,5-3.8
						c-3.9,1.2-4.2-2.6-6.8-3.6l8-4.5l0.8,2c1.8-1,1.4-7.7,9.7-11.4c13.5-7.1,27.2-16.4,40.5-23.9c0.5,1.2-1.9,3.5-4.2,5.9
						c1.8-1,4.3-2.9,6.4-3.1c-4.3,0,4.7-4.6,1.7-3.9c6.8-10.3,21.7-13.8,28.3-22c-1.7-4.5-24.1-80.1-27-84.9c2.7-1.5,5.3-3,6.4-3.1
						c-1.4-0.7-6.8,1.9-9.2,4.2l1.1,2.9c-5.8,4.7-2.4-0.6-8.5,3.3c-1.6-1.9,3.8-5.8,8.6-9c-4.6,2.5-10,3.7-10.5,7.1
						c-4.8,1.7-1.1-2.8-6.7-0.6c-3.2,2.8-6.7,7.8-11.7,9.1l-0.2-0.4c-11.4,4-13.5,12.6-24.1,16.1l0.6-1.3c-4,0.8-9.4,6.3-16.1,8.6
						c1.9-0.6,4.3,0,0.9,2.4c-7.6,2.8-11.4,7-17.3,8.3l-3.5,5c-23.8,14-115.1,73.8-138.6,88.5l0.7-0.9
						c-35.5,23.1-109.6,68.1-145.2,93.7c-7,1.5-14.7,6.8-21,9.9c3.9-1.2,3.6,0.9,0.9,2.4c-18.5,11-0.4,2.2-18.4,14.3
						c-20.2,14.9-103.2,62.7-123.2,72.5c-8.4,9.2-22.4,14.7-31.3,22.7l0.6-1.3c-10,7.7-72.3,41.9-84.1,50.6l1.9-0.6
						c-9.7,8.5-10.2,4.3-19.4,8.5c3.2,2.7-5,10.2-8.4,12.7l-0.3-0.8c-5,3.8-15.4,14.1-23.9,20l-0.8-2c-6.2,6.5-20.5,14.1-25.7,17.5
						c-12.6,6.6-33.2,14.9-47.9,27.2l-13.6,1.2L0,494c0,0,21.6,73.2,51.2,73.6l0.8,2l4.1-2.8c5.6-2.2,6.7-5.7,7.4-3.7l-7.1,4
						c5.4-2.6,2.5,0.6,1.1,2.8c2.2-1.1,4.4-2.2,6.5-2.6c0.6-1.3-1.2-0.3-2.2-0.2c2.3-2.3,5.1-6.4,9-7.6c5.3-3,2.1,2.8,8.3-0.8
						c33-18.2,65.4-35.1,97.6-55.3c1.2,0.3,0.3,0.8-0.4,1.7c9.3-6.8,18.2-11.8,26.6-18c3-0.7,4.3,0,5.5,0.3
						C206,486.8,256.5,455.7,257.6,455.6z"/>
				</g>
			</g>
		</g>
	</g>
</g>
<g>
	<g>
		<g>
			<g>
				<g>
					<path class="st1" d="M223.5,582.6c3.7,0.5,8.1-2,12.4-4.1C231.6,578.5,227.7,579.7,223.5,582.6z"/>
					<path class="st1" d="M236,578.5C236,578.5,236,578.5,236,578.5c0,0-0.1,0-0.1,0C235.9,578.5,235.9,578.5,236,578.5z"/>
					<path class="st1" d="M969.2,8.6c-1,0.7-2.1,1.4-3.3,2.2C967.1,10.1,968.3,9.4,969.2,8.6z"/>
					<path class="st1" d="M436.1,464.2l-1.4-3.7c9.6-5.9,5.1,2.1,13.5-4.2c0.6-6.8,15.1-8.5,16.7-12.9c0.2,0.4,4.6-2.1,5.2-0.5
						c-0.2-3.3,4.1-3.3,6.5-5.7c0.6-1.3-1.2-0.3-2.4-0.6l5.8-4.7c3-0.7,4.5,0.4,2,2.3c17-9.1,97.5-55,114.5-67.1
						c-3.4-0.5-8.1,4.1-12,2.4c3.7-4.5,7.3-3.6,8.2-6.7c4.5,3.4,11-5.2,17.3-2.9l-0.2-3.4l3.3,0.1c19-15.2,3.9-4.2,22.6-14.7
						c10.3-6.8,13.2-13.4,19.9-15.7c-0.9,0.5-4.2,0.4-1.8-1.9c1.8,1.9,6.3-6.1,9-4.6c2.5-1.9,11.4-6.9,6.6-8.2
						c2.4,0.6,10.5-3.5,6.7,0.6c2.7-1.5,5.5-2.6,7-4.4L679,309c8.6-5.8,14.8-6.4,18.9-12.7l-4,0.8c5.2-3.4,9.4-6.3,13.4-4.6
						l-4.9,4.2c8.7-5.4,13.9-8.9,20.2-14.9l-2.7,1.5c7.5-8.7,54.6-40.9,60.9-49.9l-5.4,0.1l6.2-6.5c-0.9,0.5,1.1,9.8-0.1,9.4
						c15.7-9.9,96.8-61.9,112.3-69.2c6.7-2.3,3.3,3.1,3.5,3.5c6.6-5.2,1.6-4.4,7.8-7.9c1.9-0.6,0.8,2,0,2.9c2.5-1.9,5.5-2.6,5-3.8
						c-3.9,1.2-4.2-2.6-6.8-3.6l8-4.5l0.8,2c1.8-1,1.4-7.7,9.7-11.4c13.5-7.1,27.2-16.4,40.5-23.9c0.5,1.2-1.9,3.5-4.2,5.9
						c1.8-1,4.3-2.9,6.4-3.1c-4.3,0,4.7-4.6,1.7-3.9c6.8-10.3,21.7-13.8,28.3-22c-1.7-4.5-24.1-80.1-27-84.9c2.7-1.5,5.3-3,6.4-3.1
						c-1.4-0.7-6.8,1.9-9.2,4.2l1.1,2.9c-5.8,4.7-2.4-0.6-8.5,3.3c-1.6-1.9,3.8-5.8,8.6-9c-4.6,2.5-10,3.7-10.5,7.1
						c-4.8,1.7-1.1-2.8-6.7-0.6c-3.2,2.8-6.7,7.8-11.7,9.1l-0.2-0.4c-11.4,4-13.5,12.6-24.1,16.1l0.6-1.3c-4,0.8-9.4,6.3-16.1,8.6
						c1.9-0.6,4.3,0,0.9,2.4c-7.6,2.8-11.4,7-17.3,8.3l-3.5,5c-23.8,14-115.1,73.8-138.6,88.5l0.7-0.9
						c-35.5,23.1-109.6,68.1-145.2,93.7c-7,1.5-14.7,6.8-21,9.9c3.9-1.2,3.6,0.9,0.9,2.4c-18.5,11-0.4,2.2-18.4,14.3
						c-20.2,14.9-103.2,62.7-123.2,72.5c-8.4,9.2-22.4,14.7-31.3,22.7l0.6-1.3c-10,7.7-72.3,41.9-84.1,50.6l1.9-0.6
						c-9.7,8.5-10.2,4.3-19.4,8.5c3.2,2.7-5,10.2-8.4,12.7l-0.3-0.8c-5,3.8-15.4,14.1-23.9,20l-0.8-2c-6.2,6.5-20.5,14.1-25.7,17.5
						c-12.6,6.6-33.2,14.9-47.9,27.2l-13.6,1.2l-1.2,1.5c0,0,21.6,73.2,51.2,73.6l0.8,2l4.1-2.8c5.6-2.2,6.7-5.7,7.4-3.7l-7.1,4
						c5.4-2.6,2.5,0.6,1.1,2.8c2.2-1.1,4.4-2.2,6.5-2.6c0.6-1.3-1.2-0.3-2.2-0.2c2.3-2.3,5.1-6.4,9-7.6c5.3-3,2.1,2.8,8.3-0.8
						c33-18.2,65.4-35.1,97.6-55.3c1.2,0.3,0.3,0.8-0.4,1.7c9.3-6.8,18.2-11.8,26.6-18c3-0.7,4.3,0,5.5,0.3
						C384.5,495.3,435,464.3,436.1,464.2z"/>
				</g>
			</g>
		</g>
	</g>
</g>
<g>
	<g>
		<g>
			<g>
				<g>
					<path class="st2" d="M113.1,739c3.7,0.5,8.1-2,12.4-4.1C121.2,734.9,117.4,736.1,113.1,739z"/>
					<path class="st2" d="M125.6,734.9C125.6,734.9,125.6,734.9,125.6,734.9c0,0-0.1,0-0.1,0C125.5,734.9,125.6,734.9,125.6,734.9z"
						/>
					<path class="st2" d="M858.9,165c-1,0.7-2.1,1.4-3.3,2.2C856.8,166.5,857.9,165.8,858.9,165z"/>
					<path class="st2" d="M325.7,620.6l-1.4-3.7c9.6-5.9,5.1,2.1,13.5-4.2c0.6-6.8,15.1-8.5,16.7-12.9c0.2,0.4,4.6-2.1,5.2-0.5
						c-0.2-3.3,4.1-3.3,6.5-5.7c0.6-1.3-1.2-0.3-2.4-0.6l5.8-4.7c3-0.7,4.5,0.4,2,2.3c17-9.1,97.5-55,114.5-67.1
						c-3.4-0.5-8.1,4.1-12,2.4c3.7-4.5,7.3-3.6,8.2-6.7c4.5,3.4,11-5.2,17.3-2.9l-0.2-3.4l3.3,0.1c19-15.2,3.9-4.2,22.6-14.7
						c10.3-6.8,13.2-13.4,19.9-15.7c-0.9,0.5-4.2,0.4-1.8-1.9c1.8,1.9,6.3-6.1,9-4.6c2.5-1.9,11.4-6.9,6.6-8.2
						c2.4,0.6,10.5-3.5,6.7,0.6c2.7-1.5,5.5-2.6,7-4.4l-3.9,1.2c8.6-5.8,14.8-6.4,18.9-12.7l-4,0.8c5.2-3.4,9.4-6.3,13.4-4.6
						l-4.9,4.2c8.7-5.4,13.9-8.9,20.2-14.9l-2.7,1.5c7.5-8.7,54.6-40.9,60.9-49.9l-5.4,0.1l6.2-6.5c-0.9,0.5,1.1,9.8-0.1,9.4
						c15.7-9.9,96.8-61.9,112.3-69.2c6.7-2.3,3.3,3.1,3.5,3.5c6.6-5.2,1.6-4.4,7.8-7.9c1.9-0.6,0.8,2,0,2.9c2.5-1.9,5.5-2.6,5-3.8
						c-3.9,1.2-4.2-2.6-6.8-3.6l8-4.5l0.8,2c1.8-1,1.4-7.7,9.7-11.4c13.5-7.1,27.2-16.4,40.5-23.9c0.5,1.2-1.9,3.5-4.2,5.9
						c1.8-1,4.3-2.9,6.4-3.1c-4.3,0,4.7-4.6,1.7-3.9c6.8-10.3,21.7-13.8,28.3-22c-1.7-4.5-24.1-80.1-27-84.9c2.7-1.5,5.3-3,6.4-3.1
						c-1.4-0.7-6.8,1.9-9.2,4.2l1.1,2.9c-5.8,4.7-2.4-0.6-8.5,3.3c-1.6-1.9,3.8-5.8,8.6-9c-4.6,2.5-10,3.7-10.5,7.1
						c-4.8,1.7-1.1-2.8-6.7-0.6c-3.2,2.8-6.7,7.8-11.7,9.1l-0.2-0.4c-11.4,4-13.5,12.6-24.1,16.1l0.6-1.3c-4,0.8-9.4,6.3-16.1,8.6
						c1.9-0.6,4.3,0,0.9,2.4c-7.6,2.8-11.4,7-17.3,8.3l-3.5,5c-23.8,14-115.1,73.8-138.6,88.5l0.7-0.9
						c-35.5,23.1-109.6,68.1-145.2,93.7c-7,1.5-14.7,6.8-21,9.9c3.9-1.2,3.6,0.9,0.9,2.4c-18.5,11-0.4,2.2-18.4,14.3
						c-20.2,14.9-103.2,62.7-123.2,72.5c-8.4,9.2-22.4,14.7-31.3,22.7l0.6-1.3c-10,7.7-72.3,41.9-84.1,50.6l1.9-0.6
						c-9.7,8.5-10.2,4.3-19.4,8.5c3.2,2.7-5,10.2-8.4,12.7l-0.3-0.8c-5,3.8-15.4,14.1-23.9,20l-0.8-2c-6.2,6.5-20.5,14.1-25.7,17.5
						c-12.6,6.6-33.2,14.9-47.9,27.2l-13.6,1.2l-1.2,1.5c0,0,21.6,73.2,51.2,73.6l0.8,2l4.1-2.8c5.6-2.2,6.7-5.7,7.4-3.7l-7.1,4
						c5.4-2.6,2.5,0.6,1.1,2.8c2.2-1.1,4.4-2.2,6.5-2.6c0.6-1.3-1.2-0.3-2.2-0.2c2.3-2.3,5.1-6.4,9-7.6c5.3-3,2.1,2.8,8.3-0.8
						c33-18.2,65.4-35.1,97.6-55.3c1.2,0.3,0.3,0.8-0.4,1.7c9.3-6.8,18.2-11.8,26.6-18c3-0.7,4.3,0,5.5,0.3
						C274.1,651.7,324.7,620.7,325.7,620.6z"/>
				</g>
			</g>
		</g>
	</g>
</g>
</svg>
