<?xml version="1.0" encoding="utf-8"?>
<!-- Generator: Adobe Illustrator 22.0.1, SVG Export Plug-In . SVG Version: 6.00 Build 0)  -->
<svg version="1.1" id="Layer_1" xmlns="http://www.w3.org/2000/svg" xmlns:xlink="http://www.w3.org/1999/xlink" x="0px" y="0px"
	 viewBox="0 0 332.5 145.9" style="enable-background:new 0 0 332.5 145.9;" xml:space="preserve">
<style type="text/css">
	.st0{fill:#424143;}
</style>
<g>
	<g>
		<path class="st0" d="M0,40c0-12.2,8.9-22.5,22.2-22.5c12.2,0,20.2,8,22.2,18.2H29.5c-1.3-3.4-4-4.6-7.2-4.6c-4,0-7.7,2.9-7.7,8.8
			c0,5.9,3.7,8.9,7.7,8.9c3.2,0,6-1.2,7.2-5.4h14.9c-1.8,10.9-10,19-22.2,19C8.9,62.4,0,52.2,0,40z"/>
		<path class="st0" d="M49.5,17.6h15.1v4.8c1.9-2.7,4.6-4.8,9.3-4.8h5.6v13.3h-4.7c-6.2,0-9.5,3.8-9.5,11.1v20.5H49.5V17.6z"/>
		<path class="st0" d="M125.3,43.6H95.6c0.9,4.5,3.5,6.5,7.5,6.5c4,0,5.3-1.7,5.9-3.2h15.8c-1.6,7.5-9.3,15.8-21.4,15.8
			c-13.7,0-22.8-10.3-22.8-22.7c0-12.4,9.1-22.7,22.8-22.7c13.8,0,22.1,10.3,22.1,22.7C125.5,41.6,125.4,42.5,125.3,43.6z
			 M110.3,34.4c-0.4-3.2-3.3-5.3-6.7-5.3c-3,0-6,1.3-7.5,5.3H110.3z"/>
		<path class="st0" d="M130.6,40c0-12.3,7.9-22.5,18.9-22.5c5.6,0,10.1,1.8,12.5,5.3v-5.3h14v44.9h-14v-5.2
			c-2.5,3.4-6.9,5.2-12.4,5.2C138.4,62.5,130.6,52.3,130.6,40z M161.3,40c0-4.9-3.5-8.9-8.1-8.9c-4.4,0-8.1,3.1-8.1,8.9
			c0,6.2,3.9,9,8.1,9C157.9,48.9,161.3,45.1,161.3,40z"/>
		<path class="st0" d="M188.7,45.3v-15H181V17.5h7.8V7.2h15.1v10.3h10.5v12.8h-10.5V46c0,2.6,1.4,4.1,3.6,4.1h6.9v12.4h-10.2
			C197.9,62.4,188.7,60.9,188.7,45.3z"/>
		<path class="st0" d="M219.4,17.5h15.1v44.9h-15.1V17.5z"/>
		<path class="st0" d="M239.5,17.5h16.7l7.9,25.1l7.8-25.1h16.8l-17.4,44.9h-14.4L239.5,17.5z"/>
		<path class="st0" d="M332.2,43.6h-29.4c0.8,4.4,3.5,6.4,7.5,6.4c3.9,0,5.3-1.7,5.9-3.1h15.6c-1.6,7.4-9.2,15.6-21.2,15.6
			C297,62.4,288,52.2,288,40c0-12.3,9-22.5,22.6-22.5c13.6,0,21.9,10.2,21.9,22.5C332.5,41.6,332.3,42.5,332.2,43.6z M317.4,34.4
			c-0.4-3.1-3.3-5.2-6.7-5.2c-3,0-6,1.3-7.4,5.2H317.4z"/>
		<circle class="st0" cx="226.9" cy="7.5" r="7.5"/>
	</g>
	<g>
		<g>
			<path class="st0" d="M286.2,80.4c0-3.2,2.6-5.8,5.8-5.8c3.2,0,5.8,2.6,5.8,5.8c0,3.2-2.6,5.8-5.8,5.8
				C288.8,86.2,286.2,83.6,286.2,80.4z M297.6,80.4c0-3-2.5-5.5-5.5-5.5c-3,0-5.5,2.5-5.5,5.5c0,3,2.5,5.5,5.5,5.5
				C295.1,85.9,297.6,83.5,297.6,80.4z M290,77h2.5c1.1,0,2,0.9,2,2c0,0.9-0.6,1.6-1.4,1.9l1.5,2.9h-0.3l-1.4-2.8
				c-0.1,0-0.2,0-0.3,0h-2.3v2.8H290V77z M292.5,80.7c1,0,1.7-0.8,1.7-1.7c0-0.9-0.7-1.7-1.7-1.7h-2.2v3.5H292.5z"/>
		</g>
		<g>
			<path class="st0" d="M34.6,110.3c0-12.2,8.9-22.5,22.2-22.5c12.2,0,20.2,8,22.2,18.2H64.1c-1.3-3.4-4-4.6-7.2-4.6
				c-4,0-7.7,2.9-7.7,8.8c0,5.9,3.7,8.9,7.7,8.9c3.2,0,6-1.2,7.2-5.4h14.9c-1.8,10.9-10,19-22.2,19
				C43.5,132.7,34.6,122.5,34.6,110.3z"/>
			<path class="st0" d="M84.1,110.3c0-12.3,9.1-22.5,22.6-22.5c13.6,0,22.8,10.2,22.8,22.5c0,12.4-9.1,22.4-22.8,22.4
				C93.2,132.7,84.1,122.6,84.1,110.3z M114.9,110.3c0-5.3-3.2-8.8-8.1-8.8c-4.9,0-8.1,3.6-8.1,8.8c0,5.4,3.2,8.9,8.1,8.9
				C111.7,119.1,114.9,115.6,114.9,110.3z"/>
			<path class="st0" d="M134.5,111V87.8h15.1v22.7c0,5,1.7,8.2,6.3,8.2c4.9,0,6.4-3.4,6.4-8.2V87.8h15.1V111
				c0,16.1-9.7,21.7-21.5,21.7C144.3,132.7,134.5,127.2,134.5,111z"/>
			<path class="st0" d="M182.5,87.8h14.1V93c3.2-3.8,7.5-5.2,11.4-5.2c12.2,0,20.2,10.3,20.2,22.5c0,12.4-8.1,22.6-19.9,22.6
				c-4.7,0-8.6-2.1-11.2-4.9v17.8h-14.5V87.8z M213.5,110.3c0-5.8-3.7-8.9-8.2-8.9c-4.5,0-8.1,3.9-8.1,8.9c0,5.5,3.9,9,8.2,9
				C209.6,119.4,213.5,116.6,213.5,110.3z"/>
			<path class="st0" d="M233.2,74.7h15.1v58.1h-15.1V74.7z"/>
			<path class="st0" d="M297.5,114.4h-29.4c0.8,4.4,3.5,6.4,7.5,6.4c3.9,0,5.3-1.7,5.9-3.1H297c-1.6,7.4-9.2,15.6-21.2,15.6
				c-13.5,0-22.6-10.2-22.6-22.4c0-12.3,9-22.5,22.6-22.5c13.6,0,21.9,10.2,21.9,22.5C297.8,112.4,297.6,113.3,297.5,114.4z
				 M282.7,105.3c-0.4-3.1-3.3-5.2-6.7-5.2c-3,0-6,1.3-7.4,5.2H282.7z"/>
		</g>
	</g>
</g>
</svg>
