<?xml version="1.0" encoding="utf-8"?>
<!-- Generator: Adobe Illustrator 22.0.1, SVG Export Plug-In . SVG Version: 6.00 Build 0)  -->
<svg version="1.1" id="Layer_1" xmlns="http://www.w3.org/2000/svg" xmlns:xlink="http://www.w3.org/1999/xlink" x="0px" y="0px"
	 viewBox="0 0 500 500" style="enable-background:new 0 0 500 500;" xml:space="preserve">
<style type="text/css">
	.st0{fill:#414042;}
</style>
<g id="Layer_3">
</g>
<g id="Layer_1_1_">
	<path class="st0" d="M250,500c138.1,0,250-111.9,250-250S388.1,0,250,0S0,111.9,0,250S111.9,500,250,500z M179.1,179.1
		c18.9-18.9,44.1-29.4,70.9-29.4s52,10.4,70.9,29.4c18.9,18.9,29.4,44.1,29.4,70.9s-10.4,52-29.4,70.9
		c-18.9,18.9-44.1,29.4-70.9,29.4s-52-10.4-70.9-29.4c-18.9-18.9-29.4-44.1-29.4-70.9S160.1,198,179.1,179.1z"/>
</g>
<g id="Grid">
</g>
</svg>
