<?xml version="1.0" encoding="utf-8"?>
<!-- Generator: Adobe Illustrator 21.0.2, SVG Export Plug-In . SVG Version: 6.00 Build 0)  -->
<svg version="1.1" id="Layer_1" xmlns="http://www.w3.org/2000/svg" xmlns:xlink="http://www.w3.org/1999/xlink" x="0px" y="0px"
	 viewBox="0 0 597.2 72.7" style="enable-background:new 0 0 597.2 72.7;" xml:space="preserve">
<style type="text/css">
	.st0{fill:#414042;}
</style>
<g>
	<g>
		<path class="st0" d="M0,38.4c0-11.7,8.6-21.6,21.4-21.6c11.7,0,19.4,7.7,21.4,17.5H28.4c-1.2-3.3-3.9-4.4-6.9-4.4
			c-3.9,0-7.4,2.8-7.4,8.5s3.6,8.6,7.4,8.6c3.1,0,5.8-1.2,6.9-5.2h14.3C41,52.2,33.1,59.9,21.4,59.9C8.6,59.9,0,50.1,0,38.4z"/>
		<path class="st0" d="M47.6,16.9H62v4.6c1.9-2.6,4.4-4.6,9-4.6h5.3v12.8h-4.5c-6,0-9.1,3.6-9.1,10.7V60H47.6V16.9z"/>
		<path class="st0" d="M120.3,41.9H91.8c0.8,4.3,3.4,6.2,7.2,6.2c3.8,0,5.1-1.6,5.7-3.1h15.2c-1.6,7.2-8.9,15.2-20.6,15.2
			c-13.1,0-21.9-9.9-21.9-21.8s8.7-21.8,21.9-21.8s21.3,9.9,21.3,21.8C120.6,40,120.5,40.9,120.3,41.9z M106,33
			c-0.4-3.1-3.2-5.1-6.5-5.1c-2.9,0-5.8,1.2-7.2,5.1H106z"/>
		<path class="st0" d="M125.4,38.4c0-11.8,7.6-21.6,18.1-21.6c5.4,0,9.7,1.7,12,5.1v-5.1H169V60h-13.4v-5c-2.4,3.3-6.6,5-11.9,5
			C132.9,60,125.4,50.3,125.4,38.4z M155,38.4c0-4.7-3.4-8.5-7.7-8.5s-7.8,2.9-7.8,8.5c0,6,3.7,8.6,7.7,8.6
			C151.6,47,155,43.3,155,38.4z"/>
		<path class="st0" d="M181.3,43.5V29.1h-7.4V16.8h7.4V6.9h14.5v9.9h10.1v12.3h-10.1v15.1c0,2.5,1.4,3.9,3.5,3.9h6.6V60h-9.8
			C190.1,60,181.3,58.5,181.3,43.5z"/>
		<path class="st0" d="M210.7,16.8h14.5V60h-14.5V16.8z"/>
		<path class="st0" d="M230,16.8h16l7.6,24.1l7.5-24.1h16.1L260.6,60h-13.9L230,16.8z"/>
		<path class="st0" d="M319.1,41.8h-28.2c0.8,4.3,3.3,6.2,7.2,6.2c3.8,0,5.1-1.6,5.6-3h15c-1.6,7.1-8.8,15-20.4,15
			c-13,0-21.7-9.8-21.7-21.6s8.6-21.6,21.7-21.6s21,9.8,21,21.6C319.3,39.9,319.2,40.8,319.1,41.8z M304.8,33c-0.4-3-3.1-5-6.4-5
			c-2.9,0-5.7,1.2-7.1,5H304.8z"/>
		<path class="st0" d="M344.4,38.4c0-11.7,8.6-21.6,21.4-21.6c11.7,0,19.4,7.7,21.4,17.5h-14.3c-1.2-3.3-3.9-4.4-6.9-4.4
			c-3.9,0-7.4,2.8-7.4,8.5s3.6,8.6,7.4,8.6c3.1,0,5.8-1.2,6.9-5.2h14.3c-1.7,10.5-9.7,18.3-21.4,18.3C353,60,344.4,50.2,344.4,38.4z
			"/>
		<path class="st0" d="M392,38.4c0-11.8,8.7-21.6,21.7-21.6c13.1,0,21.9,9.8,21.9,21.6c0,11.9-8.8,21.6-21.9,21.6
			C400.7,60,392,50.3,392,38.4z M421.6,38.4c0-5.1-3.1-8.5-7.8-8.5c-4.7,0-7.8,3.4-7.8,8.5c0,5.2,3.1,8.5,7.8,8.5
			S421.6,43.5,421.6,38.4z"/>
		<path class="st0" d="M440.4,39.1V16.8H455v21.8c0,4.8,1.6,7.8,6.1,7.8c4.7,0,6.1-3.2,6.1-7.8V16.8h14.5v22.3
			c0,15.5-9.4,20.9-20.7,20.9C449.8,60,440.4,54.6,440.4,39.1z"/>
		<path class="st0" d="M486.5,16.8H500v5c3.1-3.7,7.2-5,10.9-5c11.7,0,19.4,9.9,19.4,21.7c0,11.9-7.8,21.7-19.2,21.7
			c-4.6,0-8.3-2-10.7-4.7v17.1h-13.9L486.5,16.8L486.5,16.8z M516.3,38.5c0-5.6-3.6-8.6-7.9-8.6c-4.3,0-7.8,3.8-7.8,8.6
			c0,5.3,3.7,8.7,7.8,8.7C512.5,47.1,516.3,44.5,516.3,38.5z"/>
		<path class="st0" d="M535.2,4.2h14.5V60h-14.5V4.2z"/>
		<path class="st0" d="M597,42.4h-28.2c0.8,4.3,3.3,6.2,7.2,6.2c3.8,0,5.1-1.6,5.6-3h15c-1.5,7.1-8.8,15-20.4,15
			c-13,0-21.7-9.8-21.7-21.6s8.6-21.6,21.7-21.6c13.1,0,21,9.8,21,21.6C597.2,40.5,597.1,41.3,597,42.4z M582.7,33.6
			c-0.4-3-3.1-5-6.4-5c-2.9,0-5.7,1.2-7.1,5H582.7z"/>
		<circle class="st0" cx="217.9" cy="7.2" r="7.2"/>
	</g>
</g>
</svg>
