<?xml version="1.0" encoding="utf-8"?>
<!-- Generator: Adobe Illustrator 22.0.1, SVG Export Plug-In . SVG Version: 6.00 Build 0)  -->
<svg version="1.1" id="Layer_1" xmlns="http://www.w3.org/2000/svg" xmlns:xlink="http://www.w3.org/1999/xlink" x="0px" y="0px"
	 viewBox="0 0 1099.8 1041.9" style="enable-background:new 0 0 1099.8 1041.9;" xml:space="preserve">
<style type="text/css">
	.st0{fill:none;stroke:#D3B0D4;stroke-width:6.9182;stroke-linecap:round;stroke-linejoin:round;stroke-miterlimit:10;}
</style>
<g>
	<path class="st0" d="M918.5,703.8c-6.3,5.6-9.3,11.7-11,20.8c-14.3,74.2-14.9,73.9-77.8,130.9c-14.8,13.4-27.3,29.6-47.1,36.5"/>
	<path class="st0" d="M803.5,646.3C724.8,771.6,615,837.1,421.8,787.5"/>
	<path class="st0" d="M270.1,201.8c-7-3.5-18.8-11.4-20.2-9.8c-36.2,39.9-68.8,82.8-94.4,130.3c-6.5,12.1,9.1,17.7,15.2,25.9"/>
	<path class="st0" d="M526.4,238.4c-54.8,8.1-106.3,22.4-152.4,56.4c-22.4,16.5-64.8-3-77.6,37.7"/>
	<path class="st0" d="M212.6,625.4c29.2,54.5,59.8,107.9,115,141.2"/>
	<path class="st0" d="M563,546.9c41.9-50,41.9-71.6,5.7-105.1c-20.4-18.9-44.7-13-62.5-7.7c-15.6,4.7-41.3,22.8-35.7,44.4
		c6.6,25.7-2.2,30.2-22.5,31.8"/>
	<path class="st0" d="M542,269.8c77.8,6.6,140.5,37.7,177.8,109.8"/>
	<path class="st0" d="M897.6,243.7c17.8,42.4,50.7,77.2,59,125.2c3,17.3,1.3,31.6-2.5,50.8c-43.2-33.7-35.4-92-67-129"/>
	<path class="st0" d="M542,363.9c22.7,4.4,42.7,14.8,63.3,25.1c11.2,5.6,21.8,19.1,19.6,20.9c-34.3,27.6,0.8,53.4,1.5,79.5
		c1.2,42.6-32.6,90.3-73.9,93.4c-18.7,1.4-39.2,7.3-57.5-4.5"/>
	<path class="st0" d="M238.8,724.7c17.7,33.5,53.8,47.2,75.6,76.5c-1.7,2,15-2.7,8.1-3.5c-0.2,0-0.7-3.6,0.1-4.9
		c3.2-5.4,11.7-7.3,10.3-15.8"/>
	<path class="st0" d="M510.7,55.4c-11.9,16.4,1.3,35.3-10.9,59.6c48.5-9.7,88.2,8.9,131.1,9.6c35.5,0.6,64.9,35.5,105.2,24.5
		c-44.8-40.7-97.5-60.7-157.5-62.3"/>
	<path class="st0" d="M416.5,34.5c-30.4,5.2-5.5-26.5-21.9-31c-27.5,8.7-52.9,25.4-82.6,31.5c-11.9,2.4-24.7,8.4-21,25.7"/>
	<path class="st0" d="M536.8,238.4c65.5-1.2,118.1,29.1,167.3,68"/>
	<path class="st0" d="M766.9,599.2c6.7,8.6,21.9,3.1,25.6,15.3c-27.7,34.7-48.5,75.8-87.9,100.2c4.1,4.8-12.6,0.1-5.7-0.7
		c0.2,0,0.7-3.6-0.1-4.9c-3.2-5.4-11.7-7.3-10.3-15.8"/>
	<path class="st0" d="M406.1,348.2c45-33.9,93.8-47.3,151.7-43.4c64.5,4.4,99.9,47.4,141.1,85.2"/>
	<path class="st0" d="M793,390.1c19.8,32.3,24.2,67.7,20.2,104.6c19.8,7.1,39,14,58.2,20.8"/>
	<path class="st0" d="M866.2,667.2c-37.7,72.7-93.7,126.5-167.3,162.1"/>
	<path class="st0" d="M160.3,437.1c-7.3,34.9-7.3,69.7,0,104.6"/>
	<path class="st0" d="M322.4,363.9c-51.9,72.6-51.5,150-20.9,230.1"/>
	<path class="st0" d="M897.6,390.1c5.5,33.1,11,66.1,16.5,99.1c28.8,0.1,52.5,24.1,88.4,20.6c-1.8-30.8,4.8-62.2-5.5-93.6"/>
	<path class="st0" d="M442.7,118.2c-33.1,13.9-66.2,27.9-99.3,41.8"/>
	<path class="st0" d="M228.3,332.6c-52.8,82.7-47.9,171.2-26.1,261.4"/>
	<path class="st0" d="M630.9,688.1C737.1,624.3,772.5,536.3,740,429.5c43.9-5,47.3,31.4,46,54.6c-2.4,42.6-6.7,87.4-30.2,125.2
		c-11.5,18.5,12.5,11.9,11.1,21.3"/>
	<path class="st0" d="M819.2,641.1c21.8,9.3,10.1,26.8,4.4,36.1c-14.9,24.2-34,45.8-51.4,68.5"/>
	<path class="st0" d="M176,233.2c-19.2,33.1-38.3,66.2-57.5,99.3"/>
	<path class="st0" d="M411.3,431.9c-36-6.8-33.3,21.7-35.9,41.9c-1.9,15.2,2.8,31.3,4.5,47"/>
	<path class="st0" d="M291,343c-21.3,23.9-27.2,55.4-35,84.1c-6.3,22.9-18,20.3-33,20.5"/>
	<path class="st0" d="M165.6,186.1c-23.3,51.1-32.2,63.3-57.5,78.4"/>
	<path class="st0" d="M291,635.8c20.5,29.8,37.1,63.2,73.2,78.4"/>
	<path class="st0" d="M714.6,24c39.7,1.8,66,32,98.9,48c14.3,7,19.1,1.5,26.6-6.2"/>
	<path class="st0" d="M787.8,850.2c-43.9,33.1-94.4,52.2-146.4,68"/>
	<path class="st0" d="M563,233.2c4.7-29.9,21.3-22.6,42-16.2c58,17.9,105.8,50.2,146.2,94.7c-12.2,12.2-24.4,24.4-36.6,36.6"/>
	<path class="st0" d="M322.4,546.9c5.3,59.1,50.5,89.8,84.9,126.8c27.3-8.8,11.8-38,30.1-48.4"/>
	<path class="st0" d="M751.2,107.7c42.2,22.8,77.8,53.5,109.2,88.8c-12.2-2.1-19.1,32.5-36.2,5.5c-9.4-14.8,9.6-12.9,10.7-21.1"/>
	<path class="st0" d="M725.1,165.2c14.1,10.3,28.1,20.6,42.3,30.9c-5.7,5.7-10.9,10.9-21.2,21.2c26.5,20.7,52.5,42.8,67.9,73.3"/>
	<path class="st0" d="M301.5,604.5c24.4,29.6,48.8,59.3,73.2,88.9"/>
	<path class="st0" d="M238.8,254.1c-37.9,51.8-69,106.5-73.2,172.6"/>
	<path class="st0" d="M531.6,144.3c4.8-22.7,10.9-45.3,2.3-63.4c-77.3-1.2-145.7,24.2-211.5,58.2"/>
	<path class="st0" d="M641.4,567.9c7,20.8,34.8,0.1,41.8,20.9c-24.7,53.9-54.1,74.8-125.5,88.9"/>
	<path class="st0" d="M453.1,65.9c0,8.7-1.2,17.6,0.2,26.1c7.6,46.1-11.2,69.3-57.4,79.9c-26.2,6-49.1,26.5-73.5,40.4"/>
	<path class="st0" d="M228.3,594c33,42.4,48.7,97.2,94.1,130.7"/>
	<path class="st0" d="M374.7,876.4c-13.1,8.7-14.2,21.6,0.2,25.4c58.1,15.5,115.1,40.3,177.6,26.9"/>
	<path class="st0" d="M730.3,923.4c-51.4,8.8-98.2,36.4-151.6,36.6"/>
	<path class="st0" d="M259.7,343c-35.9,56.3-49,117.1-36.6,183"/>
	<path class="st0" d="M123.7,452.8c-0.1,40.4-0.6,80.8,10.5,120.3"/>
	<path class="st0" d="M960.4,416.2c9.7,27.4,16.4,55,5.2,83.7"/>
	<path class="st0" d="M850.5,290.7c22.5,26,32.8,58.5,46.8,89c0.4,0.8-3,3.8-5,5c-1.3,0.8-3.4,0.1-5.1,0.1"/>
	<path class="st0" d="M855.8,787.5c-12.6,24.7-35.9,37.6-57.5,52.3"/>
	<path class="st0" d="M777.3,818.8c-34,29-75.4,44.3-115,62.7"/>
	<path class="st0" d="M129,641.1c12-14.5,18.3-10.9,26.6,5c19.5,37.3,41.4,73.4,62.3,110"/>
	<path class="st0" d="M264.9,797.9c76.6,76.8,174.3,97.4,277.1,104.6"/>
	<path class="st0" d="M249.2,452.8c-0.2,52.1,2.6,103.7,25.6,151.6c19.9,1,36.4-7.2,52.9-15.6"/>
	<path class="st0" d="M688.4,452.8c-0.3,41.2,4.2,83.3-20.9,120.3"/>
	<path class="st0" d="M709.4,447.6c-19.5,1.6-35.5,1.4-37.6-26.1c-1.1-14.1-11.4-32.3-33-7.5c12.4,34.7,23.7,70.9,14.2,112.2
		c-12.3,53.6-54.1,69.3-95.2,88.6"/>
	<path class="st0" d="M918.5,421.4c10.4-6.5,29.1-9.8,24.2,4.5c-7.4,21.6,6.5,44.4-8.5,63.4"/>
	<path class="st0" d="M678,186.1c-13.5-2.8-0.3,27.8-26.6,16.8c-126.9-52.9-239.8-25.6-340.4,65.7c-6.2,5.6-15.8,34.5-35.6,11.6"/>
	<path class="st0" d="M416.5,970.5c3.2,25.8-19.4,43.6-20.9,68"/>
	<path class="st0" d="M343.3,384.8c-26.3,38.2-36.9,79.6-26.1,125.5"/>
	<path class="st0" d="M918.5,222.7c4.6,20.9,36.2,25.7,31.4,52.3"/>
	<path class="st0" d="M1028.3,233.2c23.9,21.3,23.9,21.3-5.2,57.5"/>
	<path class="st0" d="M390.4,337.8c1.1,8.2,23,9.1,10.1,20.5c-46.1,40.8-50.8,97.6-62.4,152"/>
	<path class="st0" d="M196.9,118.2c-25.5,16.5-25.5,16.5,5.2,36.6"/>
	<path class="st0" d="M421.8,552.2c17.4,34.9,55.5,42.2,83.7,62.7"/>
	<path class="st0" d="M87.1,672.4c20.1,11.9,23,35.8,36.6,52.3"/>
	<path class="st0" d="M259.7,986.2c-24.5-0.6-30-36.2-57.5-31.4"/>
	<path class="st0" d="M542,468.5c30.3,14.6,27.2,32.5,5.2,52.3"/>
	<path class="st0" d="M207.4,787.5c16.2,13.4,31.3,28.5,45.9,43c18.3,18.3,19.2-1.5,27.3-6.4"/>
	<path class="st0" d="M615.2,86.8c14.6-19.1-8-44.3,13.6-62.8c13.2,30.4,86.1-5.3,70.1,62.8"/>
	<path class="st0" d="M746,426.7c-8.6-16.9-15.8-34.8-31.4-47c-5.4,9.8-23.6,11.9-11.2,31.8c23.1,37,19,78.7,11.2,119.8"/>
	<path class="st0" d="M620.5,620.1c-21.1,18.1-47.6,20.9-73.2,26.1"/>
	<path class="st0" d="M834.9,400.5c5.2,26.1,10.5,52.3,15.7,78.4"/>
	<path class="st0" d="M908.1,494.7c-1.1,28.2,5.4,57.3-13.2,83c-66.9-16.7-136.7-34.2-206.4-51.6"/>
	<path class="st0" d="M625.7,160c44.3,1.2,73.6,34,109.8,52.3"/>
	<path class="st0" d="M678,735.2c-31.5,16.7-65.7,25.9-99.3,36.6"/>
	<path class="st0" d="M343.3,818.8c20.9,2.4,39,37.7,62.7,5.2"/>
	<path class="st0" d="M364.3,907.7c-1.7,1.7-4,3.2-5.1,5.3c-1.8,3.3-10.6,3.8-0.6,11c22.5,16.1,48,20.3,73.7,25.5"/>
	<path class="st0" d="M620.5,688.1c-18.1,21.7-45.9,12-68,20.8c-1.5,0.6-4.1,0.8-5-0.1c-0.9-0.9-0.2-3.3-0.2-5"/>
	<path class="st0" d="M353.8,311.6c-10.2,14.1-20.4,28.3-30.6,42.5c11.5,11.5,23.6,23.7,35.8,35.9"/>
	<path class="st0" d="M672.8,207.1c20.2,8,33.6,43.4,62.7,15.7"/>
	<path class="st0" d="M855.8,384.8c18.6,29.1,28.5,59.7,15.7,94.1"/>
	<path class="st0" d="M583.9,411c-34.9-15.8-69.7-18.5-104.6,0"/>
	<path class="st0" d="M730.3,343c31.8,21.2,35.8,58.7,52.3,88.9"/>
	<path class="st0" d="M808.7,343c8.7,15.7,17.4,31.4,26.1,47.1"/>
	<path class="st0" d="M432.2,411c-20.9-13.9-20.1-26.8-0.1-42c67.8-51.7,173.4-48.3,225,31.6"/>
	<path class="st0" d="M772.1,301.2c-31.8,31.2,18.2,43.5,15.7,68"/>
	<path class="st0" d="M855.8,913c-5.9,21.2-27.1,21.9-41.8,31.4"/>
	<path class="st0" d="M437.5,677.7c20.9-30.2,41.8,3.3,62.7,0"/>
	<path class="st0" d="M991.7,620.1c0.8-43.6-40.1-21.7-57.4-41.7c5.8-20.7,5.4-47,5.1-73.3"/>
	<path class="st0" d="M719.8,541.7c-10.5,15.7-20.9,31.4-31.4,47.1"/>
	<path class="st0" d="M395.6,761.3c7.6-12,19.1-17.6,31.1-10.1c27.7,17.2,58.8,16.7,89.1,20.6"/>
	<path class="st0" d="M583.9,149.5c-34.9-10.6-69.7,0.3-104.6-0.2c-27.6-0.3-28.5,16.7-26.1,36.8"/>
	<path class="st0" d="M557.7,212.3c-66.6-10.4-125.5,12.6-183,41.8"/>
	<path class="st0" d="M280.6,254.1c-11.4,21.1-33.2,34.5-41.8,57.5"/>
	<path class="st0" d="M756.4,149.5c9.3,12.8,29.5,10.3,36.6,26.1"/>
	<path class="st0" d="M421.8,567.9c-26.6,43.6,19.3,48.9,38,60.5c12.9,8,31.1,20.5,50.9,17.9"/>
	<path class="st0" d="M746,625.4c-19.2,20.9-38.3,41.8-57.5,62.7"/>
	<path class="st0" d="M108,672.4c12-14.5,18.8-11.3,26.6,5c10.4,21.8,24,42,36.2,63"/>
	<path class="st0" d="M531.6,473.7c-15.2-4.3-26.9,3.7-30.6,15.9c-4.2,13.8,7.3,21.9,20.1,25.9"/>
	<path class="st0" d="M740.7,792.7c-25.9-33.5-38.3,7.1-57.5,10.5"/>
	<path class="st0" d="M155.1,813.6c4.3,17.5-7,29.2-15.7,41.8c-5.2-5.2-10.5-10.5-15.7-15.7"/>
	<path class="st0" d="M793,923.4c-13.9,7-27.9,13.9-41.8,20.9"/>
	<path class="st0" d="M301.5,960c23.3-27.3,41.7,5,61.7,5.2c4-8.9,7.7-17.5,11.5-26.1"/>
	<path class="st0" d="M834.9,332.6c8.7,13.9,17.4,27.9,26.1,41.8"/>
	<path class="st0" d="M599.6,740.4c-33.1-15.3-65.3,13.2-99.7,0.9c-25.3-9.1-53.2-10.7-73.7-33.2c28.7-22.7,56.6-3.4,84.5,0.9
		c1.7,0.3,4.2,0.7,5-0.2c0.9-0.9,0.2-3.3,0.2-5"/>
	<path class="st0" d="M777.3,233.2c15.5-21.6,26.1-5.7,36.5,5.3c11,11.7,21,24.3,31.5,36.5"/>
	<path class="st0" d="M270.1,954.8c11.9,7,27.4,9.6,31.4,26.1"/>
	<path class="st0" d="M861,248.9c8.4,14.6,41.3,23.7,10.5,47.1"/>
	<path class="st0" d="M270.1,139.1c-11.4,5.2-24.6,8.9-20.9,26.1"/>
	<path class="st0" d="M71.4,583.5c-5.2,14.7,6,24.7,10.5,36.6"/>
	<path class="st0" d="M343.3,81.6c3.7,17.3-9.6,20.9-20.9,26.1"/>
	<path class="st0" d="M589.1,191.4c0,50.5,0,101.1,0,151.6"/>
	<path class="st0" d="M761.7,275c11.7,23.9,37.7,37.1,47,62.8c24.2,2.3,27.1-27.3,47.1-31.4"/>
	<path class="st0" d="M965.6,374.4c31.4,4.6,54.7-36.4,88.9-15.7"/>
	<path class="st0" d="M840.1,499.9c6.5-9.7,7.7-26.7,26.1-20.8c12.2,3.9,19.4,15.5,15,25.7c-8.8,20.5-0.6,44.4-15,63.1"/>
	<path class="st0" d="M536.8,405.8c-1.7,33.1-3.5,66.2-5.2,99.3"/>
	<path class="st0" d="M651.8,881.6c-18.5,7.3-37.6,10.9-57.5,10.5"/>
	<path class="st0" d="M186.5,426.7c-31.9-2.5-57.5,21.6-91.9,21.8c6.8-19.9-1.9-40,8.2-58.4"/>
	<path class="st0" d="M458.4,431.9c-27.7,32.4-13.8,69-15.1,108.4c-8.8,8-30.8,0.8-42.4,17"/>
	<path class="st0" d="M1096.3,421.4c-8.5-27.6-22.6-16.1-36.6-5.2"/>
	<path class="st0" d="M390.4,379.6c30.2,10.4-2.7,28.7,5.2,41.8"/>
	<path class="st0" d="M819.2,233.2c12.2-22.8,28.8-6.7,35.5,1c8.2,9.4-11.4,11.4-14.6,19.9"/>
	<path class="st0" d="M620.5,97.3c2,18.5-2.3,35.8-10.5,52.3"/>
	<path class="st0" d="M505.4,144.3c-1.7-10.5,4-22.2-4.3-31.8c-16.6,3.8-32.3,7.3-48,10.9"/>
	<path class="st0" d="M400.9,839.8c46.7,31.1,99.5,26.7,151.6,26.1"/>
	<path class="st0" d="M688.4,829.3c-38.6,23.2-80.4,35.7-125.5,36.6"/>
	<path class="st0" d="M301.5,834.5c-4,8.3-14.5,18.8-4.8,25.5c19.9,13.7,8.2,27.9,4.8,42.5"/>
	<path class="st0" d="M238.8,777c18.1,8,32.3,17.2,10.5,36.6"/>
	<path class="st0" d="M322.4,536.5c1.4-8.5-7.2-10.3-11.1-17.1c8.8-14.3,20.4-9.2,33.9-4c-9.5,27-34.7,24.4-54.1,31.5"/>
	<path class="st0" d="M29.6,515.6c13.3,27.9,0.9,37.5-26.1,36.6"/>
	<path class="st0" d="M876.7,546.9c16.5,10.8,35.1,1.4,52.3,5.2"/>
	<path class="st0" d="M897.6,682.9c5.9-32.9,27.8-60.5,31.5-93.1c-25.7-25.8-37.3,33.7-62.8,9.4"/>
	<path class="st0" d="M970.8,515.6c2.7,10.2-9,26.8,15.7,26.8s12.9-16.6,15.7-26.8"/>
	<path class="st0" d="M395.6,709c-5.2,5.2-10.5,14.5-15.7,14.5c-5.2,0-14.5-9.3-14.5-14.5c0-5.2,11.8-15.9,14.1-14.8
		c15.6,7.2,28.1,21.3,47.5,20"/>
	<path class="st0" d="M960.4,599.2c-4.4,35.6-25.4,63.8-41.8,94.1"/>
	<path class="st0" d="M259.7,578.3c-17.4,7-34.9,13.9-52.3,20.9"/>
	<path class="st0" d="M160.3,552.2c3.6,33.6,20,63,31.4,94.1"/>
	<path class="st0" d="M155.1,573.1c-13.9,3.5-29.7,4-41.4,11.1c-18.4,11.3-11.4-6.9-16.1-11.1"/>
	<path class="st0" d="M223.1,536.5c-0.7,16.6,13.7,29.9,10.5,47.1"/>
	<path class="st0" d="M845.3,515.6c-1.1,19.6-3.4,38.9-10.3,57.6c-7.4,20.1,6.5,21.1,20.7,20.8"/>
	<path class="st0" d="M186.5,536.5c-16.4,8.7-33.3,15.7-52.3,15.7"/>
	<path class="st0" d="M521.1,578.3c8.2-22,34.2-39.8,15.1-73.4c-32.5,37.6-52.1,77.8-67.4,120.5"/>
	<path class="st0" d="M902.8,599.2c26.2,14.1,53.2,25.5,83.7,26.1"/>
	<path class="st0" d="M505.4,625.4c14.5-30.7,37.1,18.5,52.4-5.2c-3.5,7-7.1,13.9-10.6,20.9"/>
	<path class="st0" d="M233.5,609.7c-11.8,15.7-33.1,10.1-47.1,20.9"/>
	<path class="st0" d="M306.7,620.1c-10.4,14-29.3,11.2-41.8,20.9"/>
	<path class="st0" d="M510.7,186.1c-11.7,59-2,118.6-5.2,177.8"/>
	<path class="st0" d="M249.2,526c-17.4,3.5-34.9,7-52.3,10.5"/>
	<path class="st0" d="M813.9,505.1c-3.5,24.4-7,48.8-10.5,73.2"/>
	<path class="st0" d="M521.1,960c26.5,18.1,24.5-13.7,36.6-20.9"/>
	<path class="st0" d="M563,745.6c7,17.4,13.9,34.9,20.9,52.3"/>
	<path class="st0" d="M615.2,667.2c4.6,21.4,42.6,37.6-3.6,65.5c-36.1,21.8,6.1,57,14,86.2"/>
	<path class="st0" d="M468.8,740.4c-10.5,26.1-20.9,52.3-31.4,78.4"/>
	<path class="st0" d="M411.3,813.6c29.2,8.9,57.1,22.9,88.9,21c18.1-1.1,32.7,3.2,31.4,26"/>
	<path class="st0" d="M688.4,876.4c7,15.7,13.9,31.4,20.9,47.1"/>
	<path class="st0" d="M573.4,902.5c4.5,11.9,21.1,28.6-10.5,26.1"/>
	<path class="st0" d="M500.2,813.6c-15.4,11.9-13.4,31.6-20.9,47.1"/>
	<path class="st0" d="M578.6,834.5c15.2-10.8,29.8-7.9,30.2,10.5c0.4,16.5,14.9,23,16.9,36.6"/>
	<path class="st0" d="M563,813.6c15.7,11.8,10.1,33.1,20.9,47.1"/>
	<path class="st0" d="M646.6,855.4c7,15.7,13.9,31.4,20.9,47.1"/>
	<path class="st0" d="M589.1,128.6c19.7,26.4,43.2,51.4,31.4,88.9"/>
	<path class="st0" d="M740.7,740.4c3.8,24.9,42.5-6,41.8,26.1"/>
	<path class="st0" d="M892.4,630.6c7.1,20.7,34.8,0.2,41.8,20.9"/>
	<path class="st0" d="M212.6,641.1c-7.1,20.7-34.8,0.2-41.8,20.9"/>
	<path class="st0" d="M787.8,630.6c10.5,11.5,20.9,17.8,33.7-3.9c3.1-17.3-51.6-11.7-23.2-43.1"/>
	<path class="st0" d="M740.7,254.1c-12.2-2.9-24.4-22.8-36.6,0"/>
	<path class="st0" d="M515.9,656.7c-3.4,5.3-13.2,7.8-10.1,15.5c3.7,9.2,13.4,4.3,20.6,5.4c0.2-5.9,1.1-12-5.2-15.7"/>
	<path class="st0" d="M615.2,594c20.7,7.1,0.3,34.7,20.9,41.8"/>
	<path class="st0" d="M667.5,782.2c17.3,10.9,6.2,37.6,26.1,47.1"/>
	<path class="st0" d="M646.6,792.7c20.7,7.1,0.2,34.8,20.9,41.8"/>
	<path class="st0" d="M772.1,792.7c21,19.9,10.3,53.3,31.4,73.2"/>
	<path class="st0" d="M557.7,876.4c-2.6,6.8-21.9,14-4.8,19.7c16.5,5.6,40.2,6.4,36.2-24.9"/>
	<path class="st0" d="M191.7,327.3c-5.2-3.5-10.5-7-15.7-10.5"/>
	<path class="st0" d="M353.8,275c-12.2,2.9-24.4,22.8-36.6,0"/>
	<path class="st0" d="M92.4,416.2c-10.5-0.9-14.1,15.4-26.1,10.5"/>
	<path class="st0" d="M573.4,562.6c-12.6-29.5-43.4,8.1-57.5-15.7"/>
	<path class="st0" d="M505.4,688.1c3.4,5.3,11.8,7.2,10.5,15.7"/>
	<path class="st0" d="M861,264.6c-10.5,10.5-20.9,20.9-31.4,31.4"/>
	<path class="st0" d="M505.4,750.9c3.4,5.3,11.8,7.2,10.5,15.7"/>
</g>
</svg>
