<?xml version="1.0" encoding="utf-8"?>
<!-- Generator: Adobe Illustrator 22.0.1, SVG Export Plug-In . SVG Version: 6.00 Build 0)  -->
<svg version="1.1" id="Layer_1" xmlns="http://www.w3.org/2000/svg" xmlns:xlink="http://www.w3.org/1999/xlink" x="0px" y="0px"
	 viewBox="0 0 603.6 814.3" style="enable-background:new 0 0 603.6 814.3;" xml:space="preserve">
<style type="text/css">
	.st0{fill:none;}
	.st1{fill:#43424C;}
</style>
<g>
	<path class="st0" d="M323.4,499.2c-1.4,3.6-0.7,16.6,1.1,19.5c2.9-0.8,7.2-8,7.6-10C332,507.1,327.4,501.3,323.4,499.2z"/>
	<path class="st0" d="M183.5,458.4c4.3,0,7.7,0.6,10.3,1.9c1.3,0.6,1.7,0.5,1.7,0.5c1.2-1.4-0.9-10.1-1.8-13.8
		c-0.4-1.5-0.7-3-0.9-4.2c-0.2-1-0.5-1-0.9-1c-3.3,0-10.8,5.9-15.2,11.9c-2.1,2.8-2.6,4.5-2.6,5.2c0.7,0,1.9-0.1,3.3-0.2
		C179.2,458.5,181.3,458.4,183.5,458.4z"/>
	<path class="st0" d="M325.1,482.3l-0.3-0.1c-6.6-2.5-14.8-5.7-19.6-5.7c-0.8,0-2.3,0.1-2.7,0.8c-0.3,0.5-1,2.7,2.9,10
		c5.1,9.6,4.7,21.2,4.3,31.4c-0.3,8.7-0.6,16.9,2.9,20.6c1.6,1.7,3.9,2.5,7.4,2.5c12.6-0.1,27.3-28.2,27.9-33
		C348.8,502.1,338.9,487.6,325.1,482.3z M336.8,509.3c-0.3,2.1-5.9,14.2-12.8,14.2c-5.7,0-6.1-13.2-6.1-17.2c0-2,0.1-5,0.7-7.4
		c0.9-3.9,2.9-4.7,4.3-4.7c0.4,0,0.9,0.1,1.3,0.3C329.7,496.5,337.4,504.8,336.8,509.3z"/>
	<path class="st0" d="M291.7,573.8c-1.5-1.6-4.5-3.9-7.4-3.9c-0.5,0-0.9,0.1-1.4,0.2c-2.3,4.6-4.3,9.3-4.9,11.8
		C282.3,580.4,289.8,576,291.7,573.8z"/>
	<path class="st0" d="M211.1,510.3c-4.9-22.2-16.3-28.8-24.9-30.4c-1.6-0.3-3.3-0.5-5-0.5c-23.1,0-48,30.1-78.3,75.3
		c-19.2,28.7-52.5,61.7-83.4,70.9c-3.8,1.1-7,3.7-8.9,7.2c-1.9,3.5-2.3,7.6-1.2,11.4c1.9,6.3,7.8,10.8,14.4,10.8
		c1.4,0,2.9-0.2,4.3-0.6c34-10.1,72.3-41.9,99.9-82.9l0.4-0.6c17.1-25.4,34.6-50.2,45-50.2c1.7,0,3.2,0.6,4.4,1.8
		c11.4,11.4,0,48.6-17.9,76.2c-16.7,25.7-49.1,61.2-108.7,84.2c-3.7,1.4-6.7,4.3-8.3,7.9c-1.6,3.7-1.7,7.7-0.3,11.5
		c2.2,5.7,7.8,9.6,14,9.6c1.8,0,3.7-0.3,5.4-1c67.2-26,104-66.5,123.1-95.9C208,579.4,217.8,540.3,211.1,510.3z M57.2,699.1
		c-0.3,0.1-0.6,0.2-0.9,0.2c-1,0-1.8-0.6-2.2-1.5c-0.5-1.2,0.1-2.6,1.4-3.1C162.9,653.2,205,563.1,194.2,514.1
		c-2.3-10.4-6.1-16.1-11.1-17.1c-18.2-3.4-53.9,49.9-65.7,67.4c-25.6,38.2-62.1,68.7-92.9,77.9c-1.3,0.4-2.6-0.3-2.9-1.6
		c-0.4-1.3,0.3-2.6,1.6-2.9c29.9-8.8,65.3-38.7,90.4-76c34.1-50.8,55.8-72.2,70.5-69.4c7.1,1.3,12.1,8.3,14.9,20.7
		C210,563.8,167.1,656.6,57.2,699.1z"/>
	<path class="st0" d="M369.2,515.4c0.7-5.5-4.6-15.8-13.4-26.2c-9.5-11.2-20.9-20.1-30.6-23.9c-8.9-3.4-18.8-5.5-26.5-5.5
		c-5.2,0-11.9,0.9-14.6,5.3c-2.3,3.9-1.2,10.4,3.3,18.9c7.7,14.6,7.3,30.6,6.9,44.7c-0.3,12-0.6,22,4.5,27.3c2.8,2.9,7.4,2.6,13.9,4
		h0.2c19.8,0,27.4-9.4,37.9-22.8l1.8-2.2c5.3-6.7,9.1-9.9,11.8-12.3C367.6,520,368.7,519.2,369.2,515.4z M352.8,509.5
		c-0.7,6-16.5,37.4-32.5,37.4h0c-4.9,0-8.5-1.5-11.1-4.2c-4.9-5.1-4.6-14-4.3-24.2c0.3-9.6,0.7-20.6-3.8-29.1
		c-3.7-7-4.6-11.6-2.7-14.7c1.2-2.1,3.5-3.1,6.8-3.1c5.7,0,14,3.2,21.4,6l0.3,0C341,483.2,354.1,499.4,352.8,509.5z"/>
	<path class="st0" d="M559.8,578.5c-73.9-18-103-44.9-140.3-98.4c-36.3-52-67.2-80.1-126.5-80.1l-1.3,0c-0.7,0-1.6,0-2.6,0
		c-22.1,0-61.1,4.2-74.3,32.4c-6.1,13,1.7,29,9.3,44.6c3.6,7.3,7.2,14.9,9.4,22c6.8,22.8,4.5,40.8,1.9,61.7
		c-3,24.2-22.1,61.8-47.4,93.6c-31.2,39.1-81.5,69.5-103.8,80.2c-7.5,3.6-10.6,12.6-7.1,20c2.5,5.2,7.8,8.5,13.6,8.5
		c2.2,0,4.4-0.5,6.5-1.5c26.4-12.6,84.7-46.4,116.6-84.1c27.5-32.4,45.8-85.4,51.4-113.2c10.5-51.9-0.5-75.3-7.7-90.8
		c-3.3-7-5.9-12.6-4.8-18.2c2.5-13.7,14.4-20.7,35.4-20.7c3.3,0,6.2,0.2,8.4,0.3c1.3,0.1,2.3,0.1,3.1,0.1c39.5,0,67.8,28.8,97.9,72
		c41.6,59.6,75,81.2,155.3,100.7c1.2,0.3,2.4,0.4,3.6,0.4c6.9,0,12.9-4.7,14.6-11.5c0.9-3.9,0.3-7.9-1.8-11.4
		C567,581.9,563.7,579.5,559.8,578.5z M558.5,593.7c-0.3,1.3-1.6,2.1-2.9,1.7c-81.2-19.8-110.1-45.5-147.8-99.6
		c-38.9-55.7-76.8-76.8-130.8-72.6c-18.1,1.4-30.1,6.8-35.5,16c-8.6,14.6-0.1,36.8,7.1,52.3c10.9,23.6,8.4,40.4,5.5,59.8
		c-0.6,3.7-1.1,7.6-1.6,11.6c-3.2,25.6-29.1,73.9-50.3,101.2c-28.9,37.2-86.3,74.4-110.6,86c-0.3,0.2-0.7,0.2-1,0.2
		c-0.9,0-1.7-0.5-2.1-1.3c-0.6-1.2-0.1-2.6,1.1-3.2c23.2-11.1,80.9-48.5,108.9-84.6c20.8-26.9,46.2-74.1,49.3-98.9
		c0.5-4.1,1.1-8,1.6-11.7c2.9-19.4,5.2-34.7-5.1-57.1c-7.6-16.4-16.5-40.2-6.9-56.7c6.2-10.6,19.4-16.8,39.2-18.3
		c55.2-4.2,95.6,18.1,135.1,74.6c37,53,65.3,78.3,145,97.7C558.1,591.1,558.8,592.4,558.5,593.7z"/>
	<path class="st1" d="M67.2,79.7c30.3-27.1,93-62.4,169.8-72.3c42.5-5.5,84.4-2.6,124.4,8.6c47,13.1,91.5,37.8,132.5,73.2
		c0.4,0.4,1,0.6,1.6,0.6c0.7,0,1.3-0.3,1.8-0.8c0.9-1,0.7-2.5-0.2-3.3c-41.5-35.9-86.6-60.9-134.3-74.2
		C321.9,0.1,279.4-2.8,236.3,2.7C158.5,12.8,94.8,48.6,64,76.2c-1,0.9-1.1,2.4-0.2,3.3C64.7,80.5,66.2,80.6,67.2,79.7z"/>
	<path class="st1" d="M61.9,107.7c31-29.6,95.5-68,175.4-78.8c66-9,165.2-1.4,263.5,85.7c0.5,0.4,1,0.6,1.6,0.6
		c0.7,0,1.3-0.3,1.8-0.8c0.9-1,0.8-2.5-0.2-3.3c-99.6-88.2-200.3-95.9-267.2-86.8c-81,11-146.5,50-178,80.1c-0.9,0.9-1,2.4-0.1,3.4
		C59.5,108.6,61,108.6,61.9,107.7z"/>
	<path class="st1" d="M56.7,135.7c31.7-32.1,98.2-73.7,181-85.4c67.5-9.5,169.1-1.8,270,89.5c0.5,0.4,1,0.6,1.6,0.6
		c0.6,0,1.3-0.3,1.8-0.8c0.9-1,0.8-2.5-0.2-3.3C408.7,43.8,305.6,35.9,237.1,45.6c-84,11.9-151.5,54.2-183.7,86.7
		c-0.9,0.9-0.9,2.4,0,3.4C54.3,136.6,55.8,136.6,56.7,135.7z"/>
	<path class="st1" d="M51.5,163.6C121.6,89.3,327-8.1,514.7,165.1c0.5,0.4,1,0.6,1.6,0.6c0.6,0,1.3-0.3,1.7-0.8
		c0.9-1,0.8-2.5-0.1-3.3C327.6-14,119.2,85,48.1,160.4c-0.9,1-0.9,2.5,0.1,3.4C49.1,164.6,50.6,164.6,51.5,163.6z"/>
	<path class="st1" d="M44.5,192.4c0.6,0,1.3-0.3,1.8-0.8c43.3-47.9,130.4-97.9,227.5-101.9c89.6-3.6,173,30.2,247.9,100.6
		c1,0.9,2.5,0.9,3.4-0.1c0.9-1,0.8-2.5-0.1-3.4c-39.9-37.5-83-65.1-127.9-82C357.2,90,315.7,83.3,273.6,85
		c-46.6,1.9-94.5,14.4-138.4,36.1c-36.7,18.1-69.5,42.1-92.4,67.4c-0.9,1-0.8,2.5,0.2,3.3C43.4,192.2,44,192.4,44.5,192.4z"/>
	<path class="st1" d="M39.3,220.4c0.7,0,1.3-0.3,1.8-0.8c23.2-26.6,56.4-51.7,93.6-70.8c44.2-22.6,92.4-35.7,139.5-37.9
		c42.6-1.9,84.6,4.8,124.8,20.2c45.5,17.3,89.2,45.7,129.7,84.5c0.9,0.9,2.4,0.9,3.4-0.1c0.9-0.9,0.9-2.4-0.1-3.4
		c-41-39.2-85.1-67.9-131.3-85.5c-40.9-15.6-83.5-22.4-126.7-20.5c-47.7,2.2-96.6,15.4-141.4,38.4c-37.7,19.3-71.5,44.8-95.1,71.9
		c-0.9,1-0.8,2.5,0.2,3.3C38.1,220.2,38.7,220.4,39.3,220.4z"/>
	<path class="st1" d="M34,248.4c0.7,0,1.3-0.3,1.8-0.8c42-49.8,129.8-109.9,239-115.4c43.6-2.2,86.7,4.8,128,20.7
		c46.7,18,91.4,47.6,132.9,87.9c0.9,0.9,2.4,0.9,3.4,0c0.9-0.9,0.9-2.4-0.1-3.4c-42-40.8-87.2-70.7-134.5-88.9
		c-41.9-16.2-85.6-23.3-129.9-21C163.8,133,74.8,194,32.2,244.5c-0.8,1-0.7,2.5,0.3,3.3C32.9,248.2,33.5,248.4,34,248.4z"/>
	<path class="st1" d="M28.7,276.4c0.7,0,1.4-0.3,1.8-0.9c43-52.6,133-116.1,245-122.1c44.6-2.4,88.7,4.8,131,21.4
		c47.7,18.7,93.5,49.4,136,91.3c0.9,0.9,2.4,0.9,3.4,0c0.9-0.9,0.9-2.4,0-3.4c-43-42.4-89.3-73.5-137.6-92.4
		c-43-16.8-87.7-24.1-133-21.7c-113.5,6.1-204.8,70.5-248.4,123.9c-0.8,1-0.7,2.5,0.3,3.3C27.7,276.3,28.2,276.4,28.7,276.4z"/>
	<path class="st1" d="M22,303.9c0.4,0.3,1,0.5,1.5,0.5c0.7,0,1.4-0.3,1.9-0.9c44.2-55.4,136.4-122.4,251.2-128.9
		c45.6-2.6,90.7,4.8,134,22c48.8,19.3,95.6,51.2,139.1,94.7c0.9,0.9,2.4,0.9,3.4,0c0.9-0.9,0.9-2.4,0-3.4
		c-44-44-91.3-76.2-140.7-95.8c-44-17.4-89.7-24.9-136.1-22.3c-116.3,6.5-209.9,74.5-254.6,130.7C20.8,301.6,21,303.1,22,303.9z"/>
	<path class="st1" d="M16.7,332c0.4,0.3,0.9,0.5,1.5,0.5c0.7,0,1.4-0.3,1.9-0.9C65.4,273.3,160,202.8,277.6,195.9
		c46.6-2.7,92.7,4.9,137,22.7c49.8,20,97.6,53,142,98.1c0.9,0.9,2.4,0.9,3.4,0c0.9-0.9,0.9-2.4,0-3.4
		c-44.9-45.6-93.2-78.9-143.7-99.2c-45-18.1-91.7-25.8-139-23c-119.1,7-215,78.4-261,137.5C15.5,329.7,15.7,331.2,16.7,332z"/>
	<path class="st1" d="M11.5,360c0.4,0.3,0.9,0.5,1.4,0.5c0.7,0,1.4-0.3,1.9-0.9c46.5-61.1,143.5-135.1,263.9-142.4
		c47.6-2.9,94.6,5,139.9,23.4c50.8,20.7,99.6,54.8,145,101.4c0.9,0.9,2.4,1,3.4,0c0.9-0.9,1-2.4,0-3.4
		c-45.8-47.1-95.2-81.6-146.6-102.5c-45.9-18.7-93.7-26.7-142-23.7c-53.6,3.3-108.2,20.3-158,49.4c-43,25.1-81.8,58.8-109.3,94.9
		C10.3,357.7,10.5,359.2,11.5,360z"/>
	<path class="st1" d="M6.3,388c0.4,0.3,0.9,0.5,1.4,0.5c0.7,0,1.4-0.3,1.9-1c28-37.5,67.4-72.5,110.9-98.3
		c50.3-29.9,105.4-47.5,159.4-50.8c48.5-3,96.6,5.1,142.8,24.1c51.8,21.3,101.6,56.6,147.9,104.8c0.9,0.9,2.4,1,3.4,0.1
		c0.9-0.9,1-2.4,0.1-3.4c-46.8-48.6-97.1-84.3-149.5-105.9c-46.9-19.3-95.6-27.5-144.9-24.5c-54.8,3.4-110.6,21.2-161.5,51.5
		c-44.1,26.2-84,61.6-112.3,99.6C5,385.7,5.2,387.2,6.3,388z"/>
	<path class="st1" d="M4.3,430.2c35.2-47.4,77.1-87.7,121.2-116.8c50.6-33.3,103.3-51.7,156.8-54.8c99.4-5.7,196.9,41.6,289.7,140.6
		c0.9,1,2.4,1,3.3,0.1c1-0.9,1-2.4,0.1-3.3C481.5,296,382.8,248.1,281.9,253.9c-54.3,3.1-107.8,21.8-159.1,55.6
		C78.3,338.8,36,379.6,0.5,427.4c-0.8,1.1-0.6,2.5,0.5,3.3c0.4,0.3,0.9,0.5,1.4,0.5C3.1,431.2,3.8,430.8,4.3,430.2z"/>
	<path class="st1" d="M5.3,459.6c36.7-41.9,76.9-85.4,121.6-119.1c53.1-40.1,104.3-59.6,161-61.5c50.3-1.7,98.2,12.8,150.5,45.6
		C472.8,346,510,373.8,555.3,409c2.3,1.8,4.5,3.5,6.8,5.1c5.5,4.1,10.7,7.9,14.4,11.9c0.9,1,2.4,1,3.4,0.1c1-0.9,1-2.4,0.1-3.4
		c-4-4.3-9.4-8.3-15.1-12.5c-2.2-1.6-4.5-3.3-6.7-5.1c-45.4-35.3-82.6-63.2-117.2-84.8c-53.2-33.3-101.9-48-153.2-46.3
		C230,276.1,178,296,124.1,336.7C79,370.7,38.7,414.3,1.8,456.5c-0.9,1-0.8,2.5,0.2,3.3c0.4,0.4,1,0.6,1.6,0.6
		C4.2,460.4,4.9,460.1,5.3,459.6z"/>
	<path class="st1" d="M6.4,489c13.3-12.6,27.7-27.7,42.9-43.6c24.1-25.3,51.4-54,80.3-78.6c38-32.3,86.7-65.6,160.6-67.4
		c63.1-1.5,108.4,25.6,148,55.1l6.5,4.8c33.9,25.3,72.3,53.9,113.5,79.5c3.3,2,6.6,3.8,9.8,5.6c5.4,2.9,10.5,5.7,13.1,8.5
		c0.9,1,2.4,1,3.4,0.1c1-0.9,1-2.4,0.1-3.4c-3.1-3.3-8.3-6.1-14.3-9.4c-3.1-1.7-6.4-3.5-9.6-5.5c-41.1-25.5-79.4-54-113.2-79.2
		l-6.5-4.8c-40.3-30-86.4-57.6-151-56.1c-75.4,1.8-125,35.7-163.6,68.5c-29.1,24.8-56.5,53.6-80.7,79C30.6,458,16.3,473,3.1,485.5
		c-1,0.9-1,2.4-0.1,3.4c0.5,0.5,1.1,0.7,1.7,0.7C5.3,489.6,5.9,489.4,6.4,489z"/>
	<path class="st1" d="M5.9,518.9c0.5,0,1-0.2,1.4-0.5c20.7-15.7,43.9-40.7,68.4-67.1c18-19.4,36.7-39.5,56.4-58.2
		c38.2-36.3,82-71.9,160.3-73.2c65.6-1,106.3,30,145.6,64.7c22.4,19.8,68.3,57,123.2,84c4.4,2.2,8.9,3.9,12.9,5.5
		c5.2,2,10,3.9,11.6,5.6c0.9,1,2.4,1,3.4,0.1c1-0.9,1-2.4,0.1-3.3c-2.3-2.5-7.2-4.4-13.3-6.8c-3.9-1.5-8.3-3.3-12.6-5.4
		c-54.4-26.8-99.9-63.7-122.1-83.3C401.8,346.2,361,315,295.7,315c-1.1,0-2.2,0-3.3,0c-80,1.3-126.3,39.2-163.5,74.5
		c-19.8,18.8-38.5,39-56.6,58.4c-24.4,26.3-47.4,51.1-67.8,66.6c-1,0.8-1.2,2.3-0.5,3.3C4.5,518.5,5.2,518.9,5.9,518.9z"/>
	<path class="st1" d="M565.8,493.8c-45-17.3-91.6-48.2-124.6-82.6c-34.3-35.8-73.3-76.3-146.5-75.7c-81.5,0.8-122.2,37-163.3,80.5
		c-14.1,14.9-27.8,30.5-41.1,45.6c-30.5,34.7-59.3,67.4-84.3,82c-1.1,0.7-1.5,2.1-0.9,3.2c0.4,0.8,1.2,1.2,2.1,1.2
		c0.4,0,0.8-0.1,1.2-0.3c25.7-15,54.7-48,85.5-83c13.2-15.1,26.9-30.6,40.9-45.5c40.4-42.8,80.3-78.3,159.9-79.1
		c71.3-0.7,109.4,39.1,143.1,74.2c33.5,34.9,80.7,66.2,126.3,83.7c5.8,2.2,11.8,3.8,16.7,5.1c3.9,1,8.7,2.3,9.5,3.1
		c0.9,1,2.4,1,3.3,0.1c1-0.9,1-2.4,0.1-3.4c-1.5-1.6-4.9-2.6-11.8-4.4C577.3,497.5,571.4,495.9,565.8,493.8z"/>
	<path class="st1" d="M568.4,523.3c-49.1-14.3-97.8-45.7-127.1-81.9l-3.5-4.5c-30.8-38.1-65.6-81.3-140.1-81.3c-0.2,0-0.5,0-0.7,0
		c-89.7,0-127.1,44.3-163.2,86.7c-9.8,11.5-19.6,23.4-29,34.9c-35.3,43-68.6,83.6-97.3,95.5c-1.2,0.5-1.8,1.9-1.3,3.1
		c0.4,0.9,1.3,1.5,2.2,1.5c0.3,0,0.6,0,0.9-0.2c29.8-12.3,63.5-53.3,99.2-96.8c9.4-11.5,19.2-23.7,28.9-35.1
		c35.4-41.6,72.1-85.2,159.6-85.2c0.2,0,0.5,0,0.7,0c72.2,0,104.8,40.7,136.4,79.7l3.5,4.4c29.9,36.9,79.5,69,129.5,83.6
		c7.9,2.3,16,3.6,21.8,4.5c2.6,0.4,5.6,0.9,6.4,1.2c0.9,0.7,2.2,0.6,3-0.2c1-0.9,1-2.4,0.1-3.3c-1-1-2.5-1.3-8.8-2.3
		C583.8,526.8,576,525.6,568.4,523.3z"/>
	<path class="st1" d="M601.3,556c-0.2,0-15.7,0-30.3-3.1c-52.7-11.1-103.6-42.9-129.7-81.2c-1.9-2.8-3.8-5.7-5.7-8.6
		c-27.4-40.7-58.4-87-136.4-87c-0.1,0-0.2,0-0.3,0c-91.3,0-126.3,45.4-160.1,89.2l-2.7,3.4c-6.1,7.9-12.3,16.1-18.2,23.9
		c-39.5,52-76.9,101.1-109,109.1c-1.3,0.3-2,1.6-1.7,2.9c0.3,1.1,1.2,1.8,2.3,1.8c0.2,0,0.4,0,0.6-0.1
		c33.7-8.4,71.6-58.2,111.6-110.8c6-7.8,12.1-15.9,18.2-23.8l2.7-3.1c34.6-44.9,67.3-86.8,156.3-86.8c0.1,0,0.2,0,0.3,0
		c75.5,0,105.8,44.7,132.5,84.4c1.9,2.8,3.8,5.4,5.7,8.1c26.7,39.2,78.8,71.7,132.6,83.1c15.1,3.2,30.6,3.2,31.3,3.2
		c1.3,0,2.4-1.1,2.4-2.4C603.6,557.1,602.6,556,601.3,556z"/>
	<path class="st1" d="M198.8,513.1c-2.8-12.4-7.8-19.4-14.9-20.7c-14.7-2.8-36.4,18.6-70.5,69.4c-25,37.3-60.5,67.1-90.4,76
		c-1.3,0.4-2,1.7-1.6,2.9c0.4,1.3,1.7,2,2.9,1.6c30.9-9.1,67.3-39.7,92.9-77.9c11.8-17.5,47.5-70.8,65.7-67.4
		c5.1,1,8.8,6.7,11.1,17.1c10.9,49-31.2,139.1-138.7,180.6c-1.2,0.5-1.8,1.8-1.4,3.1c0.4,0.9,1.3,1.5,2.2,1.5c0.3,0,0.6-0.1,0.9-0.2
		C167.1,656.6,210,563.8,198.8,513.1z"/>
	<path class="st1" d="M188.8,617.6c23.8-36.7,33.8-77.1,26.9-108.3c-5.5-24.7-18.6-32.1-28.6-34c-1.9-0.4-3.9-0.6-5.9-0.6
		c-25.3,0-50.2,29.6-82.3,77.4c-18.8,28-51,60.1-80.9,69c-5.1,1.5-9.2,4.9-11.7,9.5c-2.5,4.6-3.1,10-1.6,15
		c2.5,8.3,10.3,14.1,18.9,14.1c1.9,0,3.8-0.3,5.6-0.8c35-10.4,74.3-42.9,102.4-84.8l0.4-0.6c8.8-13.2,32.3-48.1,41-48.1
		c0.5,0,0.8,0.1,1.1,0.4c6.8,6.8,3.1,36.9-18.6,70.3c-16.3,25.1-48,59.8-106.5,82.4c-4.9,1.9-8.8,5.6-10.9,10.4
		c-2.1,4.8-2.3,10.2-0.4,15.1c2.9,7.6,10.3,12.6,18.4,12.6c2.4,0,4.8-0.4,7.1-1.3C131.8,688.9,169.4,647.6,188.8,617.6z M61.8,710.9
		c-1.7,0.7-3.6,1-5.4,1c-6.2,0-11.8-3.9-14-9.6c-1.4-3.7-1.3-7.8,0.3-11.5c1.6-3.7,4.6-6.5,8.3-7.9c59.7-23.1,92.1-58.5,108.7-84.2
		c17.9-27.6,29.4-64.8,17.9-76.2c-1.2-1.2-2.7-1.8-4.4-1.8c-10.4,0-27.9,24.8-45,50.2l-0.4,0.6C100.3,612.5,62,644.3,28,654.4
		c-1.4,0.4-2.8,0.6-4.3,0.6c-6.6,0-12.5-4.4-14.4-10.8c-1.1-3.8-0.7-7.9,1.2-11.4c1.9-3.5,5.1-6.1,8.9-7.2
		c30.9-9.2,64.2-42.2,83.4-70.9c30.3-45.2,55.2-75.3,78.3-75.3c1.7,0,3.4,0.2,5,0.5c8.6,1.6,20,8.2,24.9,30.4
		c6.6,29.9-3.2,69-26.3,104.7C165.8,644.4,128.9,684.9,61.8,710.9z"/>
	<path class="st1" d="M158.1,562.9c0.4-1.2-0.2-2.6-1.4-3c-1.2-0.5-2.6,0.2-3,1.4c-0.3,0.7-28.1,74.2-125,109.2
		c-1.2,0.4-1.9,1.8-1.4,3c0.3,1,1.3,1.6,2.2,1.6c0.3,0,0.5,0,0.8-0.1C129.2,639.1,157.9,563.6,158.1,562.9z"/>
	<path class="st1" d="M556.8,590.8c-79.7-19.4-108-44.7-145-97.7c-39.5-56.6-79.9-78.9-135.1-74.6c-19.8,1.5-32.9,7.7-39.2,18.3
		c-9.7,16.5-0.7,40.2,6.9,56.7c10.3,22.4,8,37.7,5.1,57.1c-0.6,3.7-1.1,7.6-1.6,11.7c-3.1,24.8-28.5,72.1-49.3,98.9
		c-28,36.1-85.7,73.5-108.9,84.6c-1.2,0.6-1.7,2-1.1,3.2c0.4,0.8,1.3,1.3,2.1,1.3c0.3,0,0.7-0.1,1-0.2c24.3-11.6,81.8-48.8,110.6-86
		c21.2-27.3,47.1-75.6,50.3-101.2c0.5-4,1.1-7.9,1.6-11.6c2.9-19.4,5.4-36.1-5.5-59.8c-7.1-15.5-15.6-37.7-7.1-52.3
		c5.4-9.2,17.3-14.6,35.5-16c54-4.2,91.9,16.9,130.8,72.6c37.7,54,66.6,79.8,147.8,99.6c1.3,0.3,2.6-0.5,2.9-1.7
		C558.8,592.4,558.1,591.1,556.8,590.8z"/>
	<path class="st1" d="M560.9,573.9c-72.4-17.6-100.9-44-137.6-96.5c-36.3-52-69.3-82.2-130.5-82.2l-1.2,0c-0.7,0-1.6,0-2.6,0
		c-23.2,0-64.2,4.6-78.5,35.1c-7,15,1.3,32.1,9.3,48.7c3.6,7.5,7.1,14.6,9.1,21.3c6.2,20.8,4.7,36.3,1.7,59.8
		c-2.9,23.5-21.6,60.1-46.4,91.2c-30.6,38.4-80.2,68.4-102.1,78.8c-9.8,4.7-14,16.5-9.3,26.3c3.3,6.8,10.3,11.2,17.8,11.2
		c3,0,5.8-0.7,8.5-1.9c26.7-12.8,85.7-47,118.2-85.3c30.3-35.6,47.5-91,52.4-115.3c10.8-53.5-1-78.7-8-93.7
		c-3-6.5-5.2-11.2-4.5-15.4c2.1-11.3,12.1-16.8,30.7-16.8c3.1,0,5.9,0.2,8.1,0.3c1.4,0.1,2.5,0.1,3.3,0.1c37.5,0,64.7,28,94,70
		c42.4,60.7,76.4,82.8,158,102.6c1.5,0.4,3.1,0.6,4.7,0.6c9.1,0,17-6.2,19.2-15.1c1.2-5.1,0.4-10.4-2.3-14.9
		C570.4,578.3,566,575.2,560.9,573.9z M570.8,596.7c-1.6,6.8-7.6,11.5-14.6,11.5c-1.2,0-2.4-0.1-3.6-0.4
		C472.4,588.2,439,566.5,397.4,507c-30.2-43.2-58.4-72-97.9-72c-0.7,0-1.8-0.1-3.1-0.1c-2.2-0.1-5.1-0.3-8.4-0.3
		c-21,0-32.9,7-35.4,20.7c-1,5.7,1.6,11.2,4.8,18.2c7.2,15.5,18.2,38.8,7.7,90.8c-5.6,27.8-23.9,80.8-51.4,113.2
		c-32,37.7-90.3,71.5-116.6,84.1c-2,1-4.2,1.5-6.5,1.5c-5.8,0-11.1-3.4-13.6-8.5c-3.6-7.5-0.4-16.4,7.1-20
		c22.3-10.6,72.6-41.1,103.8-80.2c25.3-31.7,44.4-69.3,47.4-93.6c2.6-20.8,4.9-38.8-1.9-61.7c-2.1-7.1-5.8-14.7-9.4-22
		c-7.5-15.5-15.3-31.6-9.3-44.6C228,404.2,267,400,289,400c1,0,1.9,0,2.6,0l1.3,0c59.3,0,90.2,28.2,126.5,80.1
		c37.3,53.5,66.5,80.4,140.3,98.4c3.9,0.9,7.2,3.4,9.3,6.8C571.1,588.7,571.8,592.8,570.8,596.7z"/>
	<path class="st1" d="M497.7,753.6c-33.3-6.7-80.7-42.7-111.5-108.2c-14.1-29.9-40.6-64.5-69.2-64.5c-0.3,0-0.6,0-1,0
		c-20,0.5-37,17.7-50.5,51c-10.5,26-32.5,80-128.4,131.3c-3.9,2.1-7.3,3.9-10.1,5.5c-1.1,0.7-1.5,2.1-0.9,3.2
		c0.4,0.8,1.2,1.2,2.1,1.2c0.4,0,0.8-0.1,1.2-0.3c2.7-1.6,6.1-3.4,10-5.4c31.6-16.9,97.4-52.2,130.5-133.7
		c12.7-31.4,28.3-47.5,46.2-48c0.3,0,0.6,0,0.9,0c26.4,0,51.4,33.2,64.9,61.8c31.5,67,80.4,104,114.9,110.9c1.3,0.3,2.5-0.6,2.8-1.9
		C499.8,755.1,499,753.8,497.7,753.6z"/>
	<path class="st1" d="M473.7,767.3c-60.6-18.2-82.8-64.1-102.3-104.6c-7.1-14.7-13.8-28.7-21.8-39.9c-10-14-20.4-20.4-30.8-19.1
		c-18.9,2.3-31.1,29.3-34.4,37.6c-7.8,19.4-24,43.4-48.2,71.5c-22.7,26.2-62.5,54.4-89.7,70.6c-1.1,0.7-1.5,2.1-0.8,3.2
		c0.4,0.7,1.2,1.2,2,1.2c0.4,0,0.8-0.1,1.2-0.3c27.5-16.4,67.8-44.9,90.9-71.6c24.6-28.5,41.1-53,49.1-72.8
		c6.3-15.7,17.6-33,30.6-34.6c8.6-1.1,17.5,4.7,26.4,17.2c7.8,10.9,14.4,24.6,21.4,39.2c18.9,39.3,42.5,88.3,105.2,107.1
		c1.2,0.4,2.6-0.3,2.9-1.6C475.6,769,474.9,767.7,473.7,767.3z"/>
	<path class="st1" d="M458.3,784.3c-2.1-1.1-4.3-2.1-6.6-3.3c-29.7-14.5-74.7-36.4-97.8-105.9c-9.7-29.1-16.4-46.8-32-44.9
		c-10.5,1.3-18.3,17.7-27.3,36.7c-3.6,7.4-7.2,15.1-11.2,22.2c-30.7,54.5-73.7,80.7-96.9,94.8c-5.3,3.2-9.5,5.8-12.4,8
		c-1,0.8-1.3,2.3-0.5,3.3c0.5,0.6,1.2,0.9,1.9,0.9c0.5,0,1-0.2,1.4-0.5c2.7-2,6.8-4.5,12-7.7c23.5-14.3,67.2-40.9,98.5-96.5
		c4.1-7.2,7.8-15,11.4-22.5c8.1-17,15.8-33,23.6-34c8.8-1.1,14.5,4.5,26.9,41.7c23.8,71.4,69.8,93.8,100.3,108.6
		c2.3,1.1,4.5,2.2,6.6,3.2c1.2,0.6,2.6,0.1,3.2-1.1C459.9,786.3,459.4,784.9,458.3,784.3z"/>
	<path class="st1" d="M174.3,463.6c1,0,2.1-0.1,3.5-0.2c1.7-0.1,3.7-0.3,5.7-0.3c3.6,0,6.3,0.5,8.3,1.4c1.4,0.7,2.6,1,3.7,1
		c1.5,0,2.8-0.6,3.7-1.7c2.5-3.1,1.3-9.4-0.8-17.9c-0.3-1.5-0.7-2.8-0.9-4c-0.6-3-2.7-4.8-5.6-4.8c-7.6,0-19.8,12.6-22.1,19.4
		c-1.3,3.8,0.3,5.7,1.3,6.5C172.1,463.5,173.2,463.6,174.3,463.6z M176.8,453.6c4.4-6,11.9-11.9,15.2-11.9c0.4,0,0.7,0,0.9,1
		c0.2,1.2,0.6,2.6,0.9,4.2c0.9,3.7,2.9,12.4,1.8,13.8c0,0-0.4,0.1-1.7-0.5c-2.6-1.3-6-1.9-10.3-1.9c-2.2,0-4.3,0.2-6.1,0.3
		c-1.4,0.1-2.6,0.2-3.3,0.2C174.2,458.1,174.7,456.4,176.8,453.6z"/>
	<path class="st1" d="M419.7,791.6c-51.4-22.5-71.6-71.7-82.4-106.8c-2.5-8.2-6-12.4-10.5-12.8c-10.4-1-21.3,18.6-36.7,48.6
		l-2.1,4.1c-15.9,30.8-55.8,56.4-77.3,70.1c-1.8,1.2-3.5,2.3-5.1,3.3c-1.1,0.7-1.4,2.2-0.7,3.3c0.5,0.7,1.2,1.1,2,1.1
		c0.4,0,0.9-0.1,1.3-0.4c1.6-1,3.3-2.1,5.1-3.3c21.8-14,62.4-40,78.9-71.9l2.1-4.1c10-19.5,23.7-46.1,31.8-46.1c0.1,0,0.2,0,0.3,0
		c2.3,0.2,4.6,3.6,6.4,9.5c11.1,36,31.9,86.5,85.1,109.7c1.2,0.5,2.6,0,3.1-1.2C421.4,793.6,420.9,792.2,419.7,791.6z"/>
	<path class="st1" d="M396,803.4c-0.4-0.1-38.8-10.1-51.1-47.4c-8.5-25.8-15.3-37-22.6-37.5c-6.3-0.4-10.9,7-14.1,13.5
		c-14.5,29.1-44.4,51.8-71.6,70.2c-1.1,0.7-1.4,2.2-0.6,3.3c0.7,1.1,2.2,1.4,3.3,0.6c27.8-18.7,58.2-41.9,73.2-72
		c4.6-9.2,7.8-11,9.6-10.9c3.3,0.2,9.2,6.4,18.4,34.3c13.1,39.8,52.8,50.1,54.5,50.5c0.2,0,0.4,0.1,0.6,0.1c1.1,0,2-0.7,2.3-1.8
		C398.1,805,397.3,803.7,396,803.4z"/>
	<path class="st1" d="M354.6,805.3c-14.7-10.9-20.4-23.4-24.5-32.6c-0.8-1.9-1.6-3.6-2.4-5.2c-1.8-3.5-4.2-5.4-7.2-5.7
		c-5.1-0.4-11.1,4.1-18.5,14c-6.3,8.4-17.4,16-27.2,22.8c-2.6,1.8-5.2,3.5-7.5,5.2c-1.1,0.8-1.3,2.2-0.5,3.3
		c0.8,1.1,2.2,1.3,3.3,0.5c2.3-1.6,4.8-3.3,7.4-5.1c10.1-6.9,21.6-14.8,28.4-23.8c8.4-11.4,12.8-12.3,14.2-12.1
		c0.5,0,1.9,0.2,3.4,3.1c0.8,1.5,1.5,3.2,2.4,5.1c4.4,9.7,10.3,22.9,26,34.5c0.4,0.3,0.9,0.5,1.4,0.5c0.7,0,1.4-0.3,1.9-1
		C355.9,807.6,355.6,806.1,354.6,805.3z"/>
	<path class="st1" d="M319.4,790.9c-1.2-0.6-2.6-0.2-3.2,1c-0.1,0.1-6,11.4-16.4,18.1c-1.1,0.7-1.4,2.2-0.7,3.3
		c0.5,0.7,1.2,1.1,2,1.1c0.4,0,0.9-0.1,1.3-0.4c11.5-7.4,17.8-19.4,18.1-19.9C321,792.9,320.5,791.5,319.4,790.9z"/>
	<path class="st1" d="M509.4,733.6c-16.8-4.5-67.9-18.1-128.1-136.8c-14.8-29.3-10.4-42.5-6.5-47.8c3.7-4.9,9.4-6.4,13.4-5.7
		c4.1,0.8,9.2,7,15.5,14.9c9.3,11.5,21.9,27.2,42.6,40.6c24.7,16,52.9,22.1,75.5,27c10.7,2.3,19.9,4.3,27.2,7c1.2,0.4,2.6-0.2,3-1.4
		c0.4-1.2-0.2-2.6-1.4-3c-7.6-2.7-16.9-4.8-27.8-7.1c-22.2-4.8-49.9-10.8-73.9-26.3c-20-13-32.4-28.3-41.5-39.6
		c-7.3-9-12.5-15.5-18.4-16.6c-5.1-0.9-12.9,0.5-18.1,7.5c-5.6,7.6-9.1,22.8,6.1,52.8c26.3,51.8,68.4,122.5,131.1,139.2
		c0.2,0.1,0.4,0.1,0.6,0.1c1,0,2-0.7,2.3-1.8C511.4,735.2,510.7,733.9,509.4,733.6z"/>
	<path class="st1" d="M312.7,566.3c-0.2,0-0.4-0.1-0.6-0.1v0.1H312.7z"/>
	<path class="st1" d="M367.5,526.5c3.4-3,5.7-4.9,6.4-10.5c1.9-14.8-25.4-46.7-47-55.1c-9.4-3.6-19.9-5.8-28.2-5.8
		c-9.2,0-15.6,2.6-18.6,7.6c-3.3,5.5-2.2,13.4,3.2,23.6c7.2,13.5,6.7,28.9,6.4,42.5c-0.4,13-0.1,24.5,6.5,31.2
		c3.7,3.8,10,4.6,17.3,6.1v-0.3c23.4,0,30.5-11.2,41.4-25.1l1.9-2.5C361.6,531.9,364.9,528.8,367.5,526.5z M352.6,535.5l-1.8,1.8
		c-10.5,13.4-18,22.8-37.9,22.8h-0.2c-6.5-1.5-11-1.1-13.9-4c-5.1-5.3-4.8-15.7-4.5-27.6c0.4-14.1,0.8-30-6.9-44.6
		c-4.5-8.5-5.6-14.9-3.3-18.8c2.6-4.4,9.4-5.2,14.6-5.2c7.7,0,17.6,2.1,26.5,5.5c9.7,3.7,21.1,12.7,30.6,23.9
		c8.8,10.4,14.1,20.7,13.4,26.2c-0.5,3.8-1.6,4.8-4.8,7.6C361.6,525.4,357.8,528.8,352.6,535.5z"/>
	<path class="st1" d="M326.9,477.9l-0.3-0.1c-7.3-2.8-15.6-6-21.4-6c-3.2,0-5.5,1.1-6.8,3.1c-1.8,3-1,7.7,2.7,14.7
		c4.5,8.5,4.1,19.5,3.8,29.1c-0.4,10.2-0.7,19,4.3,24.1c2.6,2.7,6.2,4.2,11.1,4.2h0c16,0,31.8-31.4,32.5-37.4
		C354.1,499.4,341,483.3,326.9,477.9z M348,508.7c-0.6,4.8-15.3,33-27.9,33c-3.5,0-5.8-0.8-7.4-2.5c-3.5-3.7-3.3-11.9-2.9-20.6
		c0.4-10.2,0.8-21.9-4.3-31.4c-3.9-7.3-3.2-9.5-2.9-10c0.4-0.7,1.9-0.8,2.7-0.8c4.9,0,13,3.2,19.6,5.7l0.3,0.1
		C338.9,487.6,348.8,502.1,348,508.7z"/>
	<path class="st1" d="M324.3,494.4c-0.4-0.2-0.9-0.3-1.3-0.3c-1.4,0-3.4,0.8-4.3,4.7c-0.6,2.4-0.7,5.3-0.7,7.4
		c0,4,0.4,17.2,6.1,17.2c6.9,0,12.5-12,12.8-14.2C337.4,504.8,329.7,496.5,324.3,494.4z M324.5,518.6c-1.9-2.9-2.6-15.9-1.1-19.5
		c4,2.1,8.6,7.9,8.7,9.5C331.7,510.6,327.4,517.8,324.5,518.6z"/>
	<path class="st1" d="M273.8,585.2c0.6,1,1.6,1.3,2.9,1.3c0,0,0,0,0,0c0.2,0,0.5,0.3,0.7,0.2c4.5-0.8,17.4-7.5,19.1-11.8
		c0.5-1.2,0.3-2.3-0.4-3.2c-1.7-2.3-6.4-6.5-11.8-6.5c-1.4,0-2.8,0.3-4.1,0.9l-0.7,0.3l-0.4,0.6
		C274.1,576.6,272.3,582.7,273.8,585.2z M283,570.1c0.4-0.1,0.9-0.2,1.4-0.2c2.9,0,5.9,2.3,7.4,3.9c-1.9,2.2-9.4,6.6-13.6,8.1
		C278.7,579.4,280.6,574.6,283,570.1z"/>
	<path class="st1" d="M348.6,563.6c-2,0.3-4.5,2.1-5.6,3c-3.8,3-3.1,7.6,0,10.7c2.6,2.7,6.2,5.1,9.7,6.6c2.1,1,4.8,0.9,6.3-1.1
		C363,577.5,353.8,560.4,348.6,563.6z M348.8,575.3c-1.2-0.9-2.6-1.8-3.3-3.2c-0.7-1.2,1.6-2.7,2.4-3.3c0.3-0.2,0.8-0.6,1.3-1
		c0.1,0.1,0.2,0.1,0.3,0.1c0.1,0.1,0.3,0.2,0.6,0.5c1,1,1.7,2.2,2.3,3.5c1.1,2.1,2.3,4.8,2.3,7.2
		C352.6,578.4,350.6,576.6,348.8,575.3z"/>
	<path class="st1" d="M355.1,579.9c0,0,0.1-0.1,0.1-0.2C355,579.8,355.2,579.9,355.1,579.9z"/>
	<path class="st1" d="M555.4,652.4c-10.6-1.1-36.3-7.6-63.2-17.2c-31.5-11.4-55-23.7-66.1-34.8c-23.7-23.6-28.7-19.6-30.3-18.3
		c-2,1.6-7.2,5.8,15.7,41.2c25.6,39.8,63.3,87.3,128.4,102.2c0.2,0,0.4,0.1,0.5,0.1c1.1,0,2.1-0.7,2.3-1.8c0.3-1.3-0.5-2.5-1.8-2.8
		c-33.3-7.6-77.7-25.8-125.5-100.1c-19.3-30-16.7-34.9-16.7-34.9c1.1-0.4,8.1,1.9,24.1,17.9c26.7,26.7,109.5,50.9,132.1,53.4
		c1.3,0.1,2.5-0.8,2.6-2.1C557.7,653.7,556.7,652.5,555.4,652.4z"/>
	<path class="st1" d="M547.3,673.5c-45-6.9-70.3-19.9-81.4-27c-2.1-1.3-3.9-2.4-5.6-1.3c-0.9,0.5-1.3,1.5-1.2,2.6
		c0.7,5.4,38.2,38.2,80.6,51.5c0.2,0.1,0.5,0.1,0.7,0.1c1,0,1.9-0.7,2.3-1.7c0.4-1.2-0.3-2.6-1.6-3c-29.5-9.2-55.3-27.5-68.4-38.7
		c14.1,7.3,37.8,16.7,73.8,22.3c1.3,0.2,2.5-0.7,2.7-2C549.4,674.9,548.6,673.7,547.3,673.5z"/>
</g>
</svg>
