<?xml version="1.0" encoding="utf-8"?>
<!-- Generator: Adobe Illustrator 22.0.1, SVG Export Plug-In . SVG Version: 6.00 Build 0)  -->
<svg version="1.1" id="Layer_1" xmlns="http://www.w3.org/2000/svg" xmlns:xlink="http://www.w3.org/1999/xlink" x="0px" y="0px"
	 viewBox="0 0 731.1 752.9" style="enable-background:new 0 0 731.1 752.9;" xml:space="preserve">
<style type="text/css">
	.st0{fill:#FFD380;}
	.st1{fill:none;stroke:#403408;stroke-width:7.7925;stroke-linecap:round;stroke-miterlimit:10;}
	.st2{fill:#403408;}
	.st3{opacity:0.6;fill:#FF758A;}
	.st4{clip-path:url(#XMLID_2_);fill:#FF5A58;}
	.st5{fill:none;stroke:#403408;stroke-width:9.6985;stroke-linecap:round;stroke-linejoin:round;stroke-miterlimit:10;}
	.st6{fill:none;stroke:#403408;stroke-width:9.5865;stroke-linecap:round;stroke-linejoin:round;stroke-miterlimit:10;}
	.st7{fill:#2FA7BF;}
	.st8{clip-path:url(#XMLID_3_);fill:#FF5A58;}
	.st9{fill:none;stroke:#403408;stroke-width:4.4528;stroke-linecap:round;stroke-miterlimit:10;}
	.st10{fill:none;stroke:#403408;stroke-width:6.6792;stroke-linecap:round;stroke-miterlimit:10;}
	.st11{fill:#FF5A58;}
	.st12{clip-path:url(#XMLID_5_);fill:#FF5A58;}
	.st13{clip-path:url(#XMLID_6_);fill:#FFFFFF;}
	.st14{fill:#FFFFFF;stroke:#FFFFFF;stroke-width:6.8503;stroke-linecap:round;stroke-miterlimit:10;}
	.st15{fill:none;stroke:#F2F2F2;stroke-width:3.0766;stroke-linecap:round;stroke-miterlimit:10;}
</style>
<g id="XMLID_123_">
	<g id="XMLID_287_">
		<g id="XMLID_293_">
			<path id="XMLID_295_" class="st0" d="M541.6,76.6c0,42.3-34.3,76.6-76.6,76.6c-42.3,0-76.6-34.3-76.6-76.6
				c0-42.3,34.3-76.6,76.6-76.6C507.2,0,541.6,34.3,541.6,76.6z"/>
		</g>
		<g id="XMLID_289_">
			<path id="XMLID_292_" class="st1" d="M488.8,70.8c0,0-0.1-11.9,10.4-11.9c10.6,0,10.3,11.8,10.3,11.8"/>
			<path id="XMLID_291_" class="st1" d="M420.3,70.8c0,0-0.1-11.9,10.4-11.9c10.6,0,10.3,11.8,10.3,11.8"/>
		</g>
		<path id="XMLID_288_" class="st1" d="M492.4,96.8c0,0-5.8,20.3-27.6,20.3c-21.8,0-27.3-20.2-27.3-20.2"/>
	</g>
	<g id="XMLID_280_">
		<g id="XMLID_285_">
			
				<ellipse id="XMLID_286_" transform="matrix(0.7071 -0.7071 0.7071 0.7071 26.477 217.1669)" class="st0" cx="275.4" cy="76.6" rx="76.6" ry="76.6"/>
		</g>
		<g id="XMLID_282_">
			<path id="XMLID_284_" class="st2" d="M240.5,77.7L240.5,77.7c-3.1,0-5.6-2.5-5.6-5.6V58.8c0-3.1,2.5-5.6,5.6-5.6l0,0
				c3.1,0,5.6,2.5,5.6,5.6v13.4C246.1,75.2,243.6,77.7,240.5,77.7z"/>
			<path id="XMLID_283_" class="st2" d="M310.3,77.7L310.3,77.7c-3.1,0-5.6-2.5-5.6-5.6V58.8c0-3.1,2.5-5.6,5.6-5.6l0,0
				c3.1,0,5.6,2.5,5.6,5.6v13.4C315.8,75.2,313.3,77.7,310.3,77.7z"/>
		</g>
		<path id="XMLID_281_" class="st1" d="M303.1,96.8c0,0-5.8,20.3-27.6,20.3c-21.8,0-27.3-20.2-27.3-20.2"/>
	</g>
	<g id="XMLID_269_">
		<g id="XMLID_277_">
			<g id="XMLID_278_">
				<path id="XMLID_279_" class="st0" d="M728,276.5c0,42.3-34.3,76.6-76.6,76.6c-42.3,0-76.6-34.3-76.6-76.6
					c0-42.3,34.3-76.6,76.6-76.6C693.6,199.9,728,234.2,728,276.5z"/>
			</g>
		</g>
		<g id="XMLID_274_">
			<path id="XMLID_276_" class="st2" d="M616.4,276.9L616.4,276.9c-3.1,0-5.6-2.5-5.6-5.6V258c0-3.1,2.5-5.6,5.6-5.6l0,0
				c3.1,0,5.6,2.5,5.6,5.6v13.4C622,274.4,619.5,276.9,616.4,276.9z"/>
			<path id="XMLID_275_" class="st2" d="M686.2,276.9L686.2,276.9c-3.1,0-5.6-2.5-5.6-5.6V258c0-3.1,2.5-5.6,5.6-5.6l0,0
				c3.1,0,5.6,2.5,5.6,5.6v13.4C691.8,274.4,689.3,276.9,686.2,276.9z"/>
		</g>
		<path id="XMLID_273_" class="st1" d="M678.8,289.7c0,0-5.8,12.2-27.6,12.2c-21.8,0-27.3-12.1-27.3-12.1"/>
		<g id="XMLID_270_">
			<circle id="XMLID_272_" class="st3" cx="600.8" cy="285.2" r="11.1"/>
			<circle id="XMLID_271_" class="st3" cx="708.1" cy="285.2" r="11.1"/>
		</g>
	</g>
	<g id="XMLID_258_">
		<g id="XMLID_267_">
			
				<ellipse id="XMLID_268_" transform="matrix(0.2181 -0.9759 0.9759 0.2181 -7.664 143.6803)" class="st0" cx="85.8" cy="76.6" rx="76.6" ry="76.6"/>
		</g>
		<g id="XMLID_264_">
			<path id="XMLID_266_" class="st2" d="M51,77.7L51,77.7c-3.1,0-5.6-2.5-5.6-5.6V58.8c0-3.1,2.5-5.6,5.6-5.6l0,0
				c3.1,0,5.6,2.5,5.6,5.6v13.4C56.5,75.2,54,77.7,51,77.7z"/>
			<path id="XMLID_265_" class="st2" d="M120.7,77.7L120.7,77.7c-3.1,0-5.6-2.5-5.6-5.6V58.8c0-3.1,2.5-5.6,5.6-5.6l0,0
				c3.1,0,5.6,2.5,5.6,5.6v13.4C126.3,75.2,123.8,77.7,120.7,77.7z"/>
		</g>
		<g id="XMLID_259_">
			<path id="XMLID_263_" class="st2" d="M46.5,95.8c-1.7,0-2.8,1.7-2.2,3.2c3.3,8,14.2,28.1,41.3,28.1c27.1,0,38.3-20.2,41.6-28.3
				c0.6-1.5-0.5-3.2-2.2-3.2L46.5,95.8z"/>
			<g id="XMLID_260_">
				<defs>
					<path id="XMLID_261_" d="M46.5,95.8c-1.7,0-2.8,1.7-2.2,3.2c3.3,8,14.2,28.1,41.3,28.1c27.1,0,38.3-20.2,41.6-28.3
						c0.6-1.5-0.5-3.2-2.2-3.2L46.5,95.8z"/>
				</defs>
				<clipPath id="XMLID_2_">
					<use xlink:href="#XMLID_261_"  style="overflow:visible;"/>
				</clipPath>
				<ellipse id="XMLID_262_" class="st4" cx="85.2" cy="124.6" rx="29.5" ry="16"/>
			</g>
		</g>
	</g>
	<g id="XMLID_245_">
		<g id="XMLID_256_">
			
				<ellipse id="XMLID_257_" transform="matrix(0.7071 -0.7071 0.7071 0.7071 -311.7206 200.225)" class="st0" cx="85.8" cy="476.4" rx="76.6" ry="76.6"/>
		</g>
		<g id="XMLID_253_">
			<polyline id="XMLID_255_" class="st5" points="43.9,450 62.3,460.5 44,470.8 			"/>
			<polyline id="XMLID_254_" class="st6" points="125.6,470.8 107.6,460.4 125.5,450 			"/>
		</g>
		<path id="XMLID_252_" class="st7" d="M165.7,472.4c5.3,4.2,6.2,11.9,2,17.2c-4.2,5.3-11.9,6.2-17.2,2
			c-5.3-4.2-15.8-28.2-15.8-28.2S160.4,468.2,165.7,472.4z"/>
		<path id="XMLID_251_" class="st7" d="M4.6,472.4c-5.3,4.2-6.2,11.9-2,17.2c4.2,5.3,11.9,6.2,17.2,2c5.3-4.2,15.8-28.2,15.8-28.2
			S9.9,468.2,4.6,472.4z"/>
		<g id="XMLID_246_">
			<path id="XMLID_250_" class="st2" d="M46.5,488.2c-1.7,0-2.8,1.7-2.2,3.2c3.3,8,14.2,28.1,41.3,28.1c27.1,0,38.3-20.2,41.6-28.3
				c0.6-1.5-0.5-3.2-2.2-3.2L46.5,488.2z"/>
			<g id="XMLID_247_">
				<defs>
					<path id="XMLID_248_" d="M46.5,488.2c-1.7,0-2.8,1.7-2.2,3.2c3.3,8,14.2,28.1,41.3,28.1c27.1,0,38.3-20.2,41.6-28.3
						c0.6-1.5-0.5-3.2-2.2-3.2L46.5,488.2z"/>
				</defs>
				<clipPath id="XMLID_3_">
					<use xlink:href="#XMLID_248_"  style="overflow:visible;"/>
				</clipPath>
				<ellipse id="XMLID_249_" class="st8" cx="85.2" cy="517" rx="29.5" ry="16"/>
			</g>
		</g>
	</g>
	<g id="XMLID_230_">
		<g id="XMLID_243_">
			<path id="XMLID_244_" class="st0" d="M731.1,476.4c0,42.3-34.3,76.6-76.6,76.6c-42.3,0-76.6-34.3-76.6-76.6
				c0-42.3,34.3-76.6,76.6-76.6C696.8,399.8,731.1,434.1,731.1,476.4z"/>
		</g>
		<g id="XMLID_240_">
			<path id="XMLID_242_" class="st2" d="M619.6,479.5L619.6,479.5c-3.1,0-5.6-2.5-5.6-5.6v-13.4c0-3.1,2.5-5.6,5.6-5.6l0,0
				c3.1,0,5.6,2.5,5.6,5.6V474C625.2,477,622.7,479.5,619.6,479.5z"/>
			<path id="XMLID_241_" class="st2" d="M689.4,479.5L689.4,479.5c-3.1,0-5.6-2.5-5.6-5.6v-13.4c0-3.1,2.5-5.6,5.6-5.6l0,0
				c3.1,0,5.6,2.5,5.6,5.6V474C694.9,477,692.4,479.5,689.4,479.5z"/>
		</g>
		<g id="XMLID_238_">
			<path id="XMLID_239_" class="st9" d="M611,441.1c0,0,11,4.5,14.9-5.3"/>
		</g>
		<g id="XMLID_236_">
			<path id="XMLID_237_" class="st9" d="M696.9,441.1c0,0-11,4.5-14.9-5.3"/>
		</g>
		<g id="XMLID_231_">
			<g id="XMLID_234_">
				<defs>
					<path id="XMLID_235_" d="M681.9,517.6c1.3,1.3,3.5,0.1,3-1.6c0,0,0,0,0,0c-2.4-8-10.4-28.1-30.3-28.1
						c-19.8,0-28,20.2-30.5,28.3c0,0,0,0,0,0c-0.5,1.8,1.8,3,3,1.6c4-4.2,15.9-11,27.4-11C666,506.8,677.8,513.4,681.9,517.6z"/>
				</defs>
				<use xlink:href="#XMLID_235_"  style="overflow:visible;fill:#403408;"/>
				<clipPath id="XMLID_4_">
					<use xlink:href="#XMLID_235_"  style="overflow:visible;"/>
				</clipPath>
			</g>
		</g>
	</g>
	<g id="XMLID_223_">
		<g id="XMLID_228_">
			<path id="XMLID_229_" class="st0" d="M352,676.3c0,42.3-34.3,76.6-76.6,76.6c-42.3,0-76.6-34.3-76.6-76.6
				c0-42.3,34.3-76.6,76.6-76.6C317.7,599.7,352,634,352,676.3z"/>
		</g>
		<g id="XMLID_225_">
			<path id="XMLID_227_" class="st2" d="M255.7,661.8L255.7,661.8c0,3.1-2.5,5.6-5.6,5.6h-19.3c-3.1,0-5.6-2.5-5.6-5.6l0,0
				c0-3.1,2.5-5.6,5.6-5.6h19.3C253.2,656.2,255.7,658.7,255.7,661.8z"/>
			<path id="XMLID_226_" class="st2" d="M325.5,661.8L325.5,661.8c0,3.1-2.5,5.6-5.6,5.6h-19.3c-3.1,0-5.6-2.5-5.6-5.6l0,0
				c0-3.1,2.5-5.6,5.6-5.6h19.3C323,656.2,325.5,658.7,325.5,661.8z"/>
		</g>
		<line id="XMLID_224_" class="st10" x1="231.5" y1="698.2" x2="319.3" y2="698.2"/>
	</g>
	<g id="XMLID_208_">
		<g id="XMLID_221_">
			<path id="XMLID_222_" class="st0" d="M162.5,676.3c0,42.3-34.3,76.6-76.6,76.6S9.2,718.6,9.2,676.3c0-42.3,34.3-76.6,76.6-76.6
				S162.5,634,162.5,676.3z"/>
		</g>
		<g id="XMLID_216_">
			<path id="XMLID_220_" class="st2" d="M54.3,679.9L54.3,679.9c-3.1,0-5.6-2.5-5.6-5.6V661c0-3.1,2.5-5.6,5.6-5.6l0,0
				c3.1,0,5.6,2.5,5.6,5.6v13.4C59.9,677.4,57.4,679.9,54.3,679.9z"/>
			<path id="XMLID_219_" class="st2" d="M124.1,679.9L124.1,679.9c-3.1,0-5.6-2.5-5.6-5.6V661c0-3.1,2.5-5.6,5.6-5.6l0,0
				c3.1,0,5.6,2.5,5.6,5.6v13.4C129.6,677.4,127.1,679.9,124.1,679.9z"/>
			<path id="XMLID_218_" class="st2" d="M129.6,658.1v2.3c0,0.9-0.7,1.6-1.6,1.6h-18.9c-2.2,0-3.9-1.8-3.9-3.9l0,0
				c0-2.2,1.8-3.9,3.9-3.9h16.6C127.8,654.2,129.6,656,129.6,658.1z"/>
			<path id="XMLID_217_" class="st2" d="M59.9,658.1v2c0,1-0.9,1.9-1.9,1.9H39.3c-2.2,0-3.9-1.8-3.9-3.9l0,0c0-2.2,1.8-3.9,3.9-3.9
				h16.6C58.1,654.2,59.9,656,59.9,658.1z"/>
		</g>
		<path id="XMLID_215_" class="st1" d="M105.1,699.4c0,0-5.2,15.1-19.4,15.1c-14.2,0-19.2-15-19.2-15"/>
		<g id="XMLID_212_">
			<circle id="XMLID_214_" class="st3" cx="32.2" cy="685.9" r="11.1"/>
			<circle id="XMLID_213_" class="st3" cx="139.5" cy="685.9" r="11.1"/>
		</g>
		<g id="XMLID_209_">
			<path id="XMLID_211_" class="st9" d="M40.7,642.6c0,0,11,4.5,14.9-5.3"/>
			<path id="XMLID_210_" class="st9" d="M113,638.3c9.4-4.9,14.6,5.7,14.6,5.7"/>
		</g>
	</g>
	<g id="XMLID_199_">
		<g id="XMLID_206_">
			<path id="XMLID_207_" class="st0" d="M352,278.9c-1.3,42.3-36.7,75.5-79,74.2c-42.3-1.3-75.5-36.7-74.2-79
				c1.3-42.3,36.7-75.5,79-74.2C320.1,201.2,353.3,236.6,352,278.9z"/>
		</g>
		<path id="XMLID_205_" class="st1" d="M309.9,286.7c0,0-7.3,11-34.7,11c-27.4,0-34.4-11-34.4-11"/>
		<g id="XMLID_200_">
			<g id="XMLID_203_">
				<path id="XMLID_204_" class="st11" d="M301.7,243.9c3.9-1.5,7.5,0.1,9.8,3.2c2.4-3.1,6.1-4.6,9.9-2.9c4.8,2.1,5.7,7.1,3.6,11.9
					c-1.5,3.5-8.1,9.9-11.6,13.2c-1.3,1.2-3.3,1.2-4.5-0.1c-3.4-3.4-9.8-10.1-11.2-13.6C295.7,250.8,296.8,245.8,301.7,243.9z"/>
			</g>
			<g id="XMLID_201_">
				<path id="XMLID_202_" class="st11" d="M229.7,243.9c3.9-1.5,7.5,0.1,9.8,3.2c2.4-3.1,6.1-4.6,9.9-2.9c4.8,2.1,5.7,7.1,3.6,11.9
					c-1.5,3.5-8.1,9.9-11.6,13.2c-1.3,1.2-3.3,1.2-4.5-0.1c-3.4-3.4-9.8-10.1-11.2-13.6C223.7,250.8,224.8,245.8,229.7,243.9z"/>
			</g>
		</g>
	</g>
	<g id="XMLID_185_">
		<g id="XMLID_197_">
			<path id="XMLID_198_" class="st0" d="M731.1,76.6c0,42.3-34.3,76.6-76.6,76.6c-42.3,0-76.6-34.3-76.6-76.6
				c0-42.3,34.3-76.6,76.6-76.6C696.8,0,731.1,34.3,731.1,76.6z"/>
		</g>
		<g id="XMLID_192_">
			<path id="XMLID_196_" class="st2" d="M626.9,88c-1.2,0-2.1,1.7-1.6,3.2c2.4,8,10.4,28.1,30.3,28.1c19.8,0,28-20.2,30.5-28.3
				c0.5-1.5-0.4-3.2-1.6-3.2L626.9,88z"/>
			<g id="XMLID_193_">
				<defs>
					<path id="XMLID_194_" d="M626.9,88c-1.2,0-2.1,1.7-1.6,3.2c2.4,8,10.4,28.1,30.3,28.1c19.8,0,28-20.2,30.5-28.3
						c0.5-1.5-0.4-3.2-1.6-3.2L626.9,88z"/>
				</defs>
				<clipPath id="XMLID_5_">
					<use xlink:href="#XMLID_194_"  style="overflow:visible;"/>
				</clipPath>
				<ellipse id="XMLID_195_" class="st12" cx="655.2" cy="119.4" rx="21.6" ry="16"/>
			</g>
		</g>
		<g id="XMLID_189_">
			<path id="XMLID_191_" class="st1" d="M678.3,70.8c0,0-0.1-11.9,10.4-11.9c10.6,0,10.3,11.8,10.3,11.8"/>
			<path id="XMLID_190_" class="st1" d="M609.9,70.8c0,0-0.1-11.9,10.4-11.9c10.6,0,10.3,11.8,10.3,11.8"/>
		</g>
		<g id="XMLID_186_">
			<circle id="XMLID_188_" class="st3" cx="600.8" cy="88.1" r="11.1"/>
			<circle id="XMLID_187_" class="st3" cx="708.1" cy="88.1" r="11.1"/>
		</g>
	</g>
	<g id="XMLID_172_">
		<g id="XMLID_183_">
			
				<ellipse id="XMLID_184_" transform="matrix(0.2181 -0.9759 0.9759 0.2181 -202.738 299.9755)" class="st0" cx="85.8" cy="276.5" rx="76.6" ry="76.6"/>
		</g>
		<g id="XMLID_180_">
			<path id="XMLID_182_" class="st1" d="M40.5,268c0,0-0.1-11.9,10.4-11.9s10.3,11.8,10.3,11.8"/>
			<path id="XMLID_181_" class="st1" d="M110.4,268c0,0-0.1-11.9,10.4-11.9s10.3,11.8,10.3,11.8"/>
		</g>
		<g id="XMLID_173_">
			<g id="XMLID_178_">
				<path id="XMLID_179_" class="st2" d="M46.5,289.5c-1.7,0-2.8,1.7-2.2,3.2c3.3,8,14.2,28.1,41.3,28.1c27.1,0,38.3-20.2,41.6-28.3
					c0.6-1.5-0.5-3.2-2.2-3.2L46.5,289.5z"/>
			</g>
			<path id="XMLID_177_" class="st11" d="M58.8,294.4c0,0,3.1,44.3,28,43.7c24.9-0.6,25.7-45,25.7-45"/>
			<g id="XMLID_174_">
				<defs>
					<path id="XMLID_175_" d="M46.5,289.5c-1.7,0-2.8,1.7-2.2,3.2c3.3,8,14.2,28.1,41.3,28.1c27.1,0,38.3-20.2,41.6-28.3
						c0.6-1.5-0.5-3.2-2.2-3.2L46.5,289.5z"/>
				</defs>
				<clipPath id="XMLID_6_">
					<use xlink:href="#XMLID_175_"  style="overflow:visible;"/>
				</clipPath>
				<path id="XMLID_176_" class="st13" d="M50,288.6c-1.5,0-2.6,0.5-2,0.9c3,2.1,12.9,7.6,37.6,7.6c24.7,0,34.9-5.4,37.9-7.6
					c0.6-0.4-0.5-0.9-2-0.9L50,288.6z"/>
			</g>
		</g>
	</g>
	<g id="XMLID_159_">
		<g id="XMLID_170_">
			<path id="XMLID_171_" class="st0" d="M541.5,278.9c-1.3,42.3-36.7,75.5-79,74.2c-42.3-1.3-75.5-36.7-74.2-79
				c1.3-42.3,36.7-75.5,79-74.2C509.6,201.2,542.8,236.6,541.5,278.9z"/>
		</g>
		<path id="XMLID_169_" class="st14" d="M430.4,290.3c-1.5,0-2.5,1.5-1.9,2.8c2.9,7,12.5,24.7,36.3,24.7c23.8,0,33.6-17.8,36.6-24.9
			c0.6-1.4-0.4-2.9-1.9-2.8L430.4,290.3z"/>
		<path id="XMLID_168_" class="st15" d="M446.7,301.3c-6.8-0.8-13.5-2.4-19.6-5.6"/>
		<path id="XMLID_167_" class="st15" d="M501.4,296.5c-5,2.1-10.3,3.5-15.7,4.4"/>
		<g id="XMLID_164_">
			<circle id="XMLID_166_" class="st3" cx="411.3" cy="285.2" r="11.1"/>
			<circle id="XMLID_165_" class="st3" cx="518.6" cy="285.2" r="11.1"/>
		</g>
		<g id="XMLID_160_">
			<polyline id="XMLID_162_" class="st5" points="424.1,251.7 442.5,262.1 424.2,272.5 			"/>
			<polyline id="XMLID_161_" class="st6" points="505.8,272.5 487.8,262 505.7,251.7 			"/>
		</g>
	</g>
	<g id="XMLID_152_">
		<g id="XMLID_157_">
			<path id="XMLID_158_" class="st0" d="M352,476.4c0,42.3-34.3,76.6-76.6,76.6c-42.3,0-76.6-34.3-76.6-76.6
				c0-42.3,34.3-76.6,76.6-76.6C317.7,399.8,352,434.1,352,476.4z"/>
		</g>
		<g id="XMLID_154_">
			<path id="XMLID_156_" class="st2" d="M240.5,476.9L240.5,476.9c-3.1,0-5.6-2.5-5.6-5.6v-19.3c0-3.1,2.5-5.6,5.6-5.6l0,0
				c3.1,0,5.6,2.5,5.6,5.6v19.3C246.1,474.4,243.6,476.9,240.5,476.9z"/>
			<path id="XMLID_155_" class="st2" d="M310.3,476.9L310.3,476.9c-3.1,0-5.6-2.5-5.6-5.6v-19.3c0-3.1,2.5-5.6,5.6-5.6l0,0
				c3.1,0,5.6,2.5,5.6,5.6v19.3C315.8,474.4,313.3,476.9,310.3,476.9z"/>
		</g>
		<path id="XMLID_153_" class="st1" d="M247.9,506.7c0,0,5.8-20.3,27.6-20.3c21.8,0,27.3,20.2,27.3,20.2"/>
	</g>
	<g id="XMLID_138_">
		<g id="XMLID_150_">
			<path id="XMLID_151_" class="st0" d="M731.1,676.3c0,42.3-34.3,76.6-76.6,76.6c-42.3,0-76.6-34.3-76.6-76.6
				c0-42.3,34.3-76.6,76.6-76.6C696.8,599.7,731.1,634,731.1,676.3z"/>
		</g>
		<path id="XMLID_149_" class="st7" d="M711,706.4c0,5.9-4.8,10.7-10.7,10.7c-5.9,0-10.7-4.8-10.7-10.7c0-5.9,10.7-26.1,10.7-26.1
			S711,700.5,711,706.4z"/>
		<g id="XMLID_140_">
			<path id="XMLID_142_" class="st1" d="M699.8,657.3c0,0,0.1,11.9-10.4,11.9c-10.6,0-10.3-11.8-10.3-11.8"/>
			<path id="XMLID_141_" class="st1" d="M629.9,657.3c0,0,0.1,11.9-10.4,11.9c-10.6,0-10.3-11.8-10.3-11.8"/>
		</g>
		<path id="XMLID_139_" class="st1" d="M627,703.7c0,0,5.8-20.3,27.6-20.3c21.8,0,27.3,20.2,27.3,20.2"/>
	</g>
	<g id="XMLID_131_">
		<g id="XMLID_136_">
			
				<ellipse id="XMLID_137_" transform="matrix(0.2138 -0.9769 0.9769 0.2138 -99.8557 828.7082)" class="st0" cx="464.9" cy="476.4" rx="76.6" ry="76.6"/>
		</g>
		<g id="XMLID_133_">
			<polyline id="XMLID_135_" class="st5" points="424.1,447.8 442.5,458.2 424.2,468.6 			"/>
			<polyline id="XMLID_134_" class="st6" points="505.8,468.6 487.8,458.1 505.7,447.8 			"/>
		</g>
		<path id="XMLID_132_" class="st1" d="M437.5,506.7c0,0,5.8-20.3,27.6-20.3c21.8,0,27.3,20.2,27.3,20.2"/>
	</g>
	<g id="XMLID_124_">
		<g id="XMLID_129_">
			<path id="XMLID_130_" class="st0" d="M541.6,676.3c0,42.3-34.3,76.6-76.6,76.6s-76.6-34.3-76.6-76.6c0-42.3,34.3-76.6,76.6-76.6
				S541.6,634,541.6,676.3z"/>
		</g>
		<g id="XMLID_126_">
			<path id="XMLID_128_" class="st2" d="M430.1,681L430.1,681c-3.1,0-5.6-2.5-5.6-5.6v-13.4c0-3.1,2.5-5.6,5.6-5.6l0,0
				c3.1,0,5.6,2.5,5.6,5.6v13.4C435.6,678.5,433.1,681,430.1,681z"/>
			<path id="XMLID_127_" class="st2" d="M499.8,681L499.8,681c-3.1,0-5.6-2.5-5.6-5.6v-13.4c0-3.1,2.5-5.6,5.6-5.6l0,0
				c3.1,0,5.6,2.5,5.6,5.6v13.4C505.4,678.5,502.9,681,499.8,681z"/>
		</g>
		<line id="XMLID_125_" class="st10" x1="421.1" y1="698.2" x2="508.8" y2="698.2"/>
	</g>
</g>
</svg>
