<?xml version="1.0" encoding="utf-8"?>
<!-- Generator: Adobe Illustrator 22.0.1, SVG Export Plug-In . SVG Version: 6.00 Build 0)  -->
<svg version="1.1" xmlns="http://www.w3.org/2000/svg" xmlns:xlink="http://www.w3.org/1999/xlink" x="0px" y="0px"
	 viewBox="0 0 800 207.8" style="enable-background:new 0 0 800 207.8;" xml:space="preserve">
<style type="text/css">
	.st0{clip-path:url(#SVGID_2_);}
	.st1{opacity:0.2;fill:#2B2B2D;}
	.st2{fill:#FFFFFF;}
	.st3{clip-path:url(#SVGID_4_);fill:#E8E8EA;}
	.st4{clip-path:url(#SVGID_6_);}
	.st5{opacity:0.21;fill:#2B2B2D;}
	.st6{clip-path:url(#SVGID_10_);}
	.st7{clip-path:url(#SVGID_14_);}
	.st8{fill:#2B2B2D;stroke:#3F3E40;stroke-width:0.632;stroke-miterlimit:10;}
	.st9{clip-path:url(#SVGID_16_);}
	.st10{fill:none;stroke:#E8E8EA;stroke-width:2.223;stroke-miterlimit:10;}
	.st11{fill:#414042;}
	.st12{fill:none;stroke:#E8E8EA;stroke-width:1.1659;stroke-miterlimit:10;}
	.st13{opacity:0.56;fill:none;stroke:#414042;stroke-miterlimit:10;}
	.st14{fill:none;stroke:#3F3E40;stroke-width:8;stroke-miterlimit:10;}
	.st15{clip-path:url(#SVGID_20_);fill:#E8E8EA;}
	.st16{fill:none;stroke:#FFFFFF;stroke-width:0.5;stroke-miterlimit:10;}
	.st17{fill:#3F96B4;}
	.st18{fill:#1F191A;}
	.st19{fill:#008DCD;}
	.st20{fill:none;stroke:#000000;stroke-width:0.5;stroke-miterlimit:10;}
	.st21{fill:none;stroke:#FFFFFF;stroke-width:8;stroke-miterlimit:10;}
	.st22{opacity:0.1;clip-path:url(#SVGID_22_);}
	.st23{opacity:0.31;}
	.st24{fill:#000100;}
	.st25{fill:#CAC9C8;}
	.st26{fill:#292929;}
	.st27{fill:#818180;}
	.st28{fill:#1A1A1A;}
	.st29{fill:#1D1D1B;}
	.st30{fill:#2DAED7;}
	.st31{fill:#88BAD9;}
	.st32{fill:#C52C1D;}
	.st33{fill:#21A2D5;}
	.st34{clip-path:url(#SVGID_24_);}
	.st35{clip-path:url(#SVGID_26_);}
	.st36{clip-path:url(#SVGID_28_);fill:#E8E8EA;}
	.st37{clip-path:url(#SVGID_30_);fill:#E8E8EA;}
	.st38{clip-path:url(#SVGID_32_);fill:#E8E8EA;}
	.st39{clip-path:url(#SVGID_36_);fill:#B4B6B9;}
	.st40{fill:#B4B6B9;}
	.st41{clip-path:url(#SVGID_38_);fill:#B4B6B9;}
	.st42{clip-path:url(#SVGID_40_);fill:#B4B6B9;}
	.st43{clip-path:url(#SVGID_42_);fill:#B4B6B9;}
	.st44{clip-path:url(#SVGID_44_);fill:#B4B6B9;}
	.st45{clip-path:url(#SVGID_46_);fill:#B4B6B9;}
	.st46{clip-path:url(#SVGID_48_);fill:#B4B6B9;}
	.st47{clip-path:url(#SVGID_50_);fill:#B4B6B9;}
	.st48{clip-path:url(#SVGID_52_);fill:#B4B6B9;}
	.st49{clip-path:url(#SVGID_54_);fill:#B4B6B9;}
	.st50{clip-path:url(#SVGID_56_);fill:#B4B6B9;}
	.st51{clip-path:url(#SVGID_58_);fill:#B4B6B9;}
	.st52{clip-path:url(#SVGID_60_);fill:#B4B6B9;}
	.st53{clip-path:url(#SVGID_62_);fill:#B4B6B9;}
	.st54{clip-path:url(#SVGID_64_);fill:#B4B6B9;}
	.st55{clip-path:url(#SVGID_66_);fill:#B4B6B9;}
	.st56{clip-path:url(#SVGID_68_);fill:#B4B6B9;}
	.st57{clip-path:url(#SVGID_70_);fill:#B4B6B9;}
	.st58{clip-path:url(#SVGID_72_);fill:#B4B6B9;}
	.st59{clip-path:url(#SVGID_74_);fill:#B4B6B9;}
	.st60{clip-path:url(#SVGID_76_);fill:#B4B6B9;}
	.st61{clip-path:url(#SVGID_78_);fill:#B4B6B9;}
	.st62{clip-path:url(#SVGID_80_);fill:#B4B6B9;}
	.st63{clip-path:url(#SVGID_82_);fill:#B4B6B9;}
	.st64{clip-path:url(#SVGID_84_);fill:#B4B6B9;}
	.st65{clip-path:url(#SVGID_86_);fill:#B4B6B9;}
	.st66{clip-path:url(#SVGID_88_);fill:#B4B6B9;}
	.st67{clip-path:url(#SVGID_90_);fill:#B4B6B9;}
	.st68{clip-path:url(#SVGID_92_);fill:#B4B6B9;}
	.st69{clip-path:url(#SVGID_94_);fill:#B4B6B9;}
	.st70{clip-path:url(#SVGID_96_);fill:#B4B6B9;}
	.st71{clip-path:url(#SVGID_96_);fill:#EEEEEE;}
	.st72{clip-path:url(#SVGID_98_);fill:#B4B6B9;}
	.st73{clip-path:url(#SVGID_100_);fill:#B4B6B9;}
	.st74{clip-path:url(#SVGID_102_);fill:#B4B6B9;}
	.st75{clip-path:url(#SVGID_104_);fill:#B4B6B9;}
	.st76{clip-path:url(#SVGID_106_);fill:#B4B6B9;}
	.st77{clip-path:url(#SVGID_108_);fill:#B4B6B9;}
	.st78{clip-path:url(#SVGID_110_);fill:#B4B6B9;}
	.st79{clip-path:url(#SVGID_112_);fill:#B4B6B9;}
	.st80{clip-path:url(#SVGID_114_);fill:#B4B6B9;}
	.st81{clip-path:url(#SVGID_116_);fill:#B4B6B9;}
	.st82{clip-path:url(#SVGID_118_);fill:#B4B6B9;}
	.st83{clip-path:url(#SVGID_120_);fill:#B4B6B9;}
	.st84{clip-path:url(#SVGID_122_);fill:#B4B6B9;}
	.st85{clip-path:url(#SVGID_124_);fill:#B4B6B9;}
	.st86{clip-path:url(#SVGID_126_);fill:#B4B6B9;}
	.st87{clip-path:url(#SVGID_128_);fill:#B4B6B9;}
	.st88{clip-path:url(#SVGID_130_);fill:#B4B6B9;}
	.st89{clip-path:url(#SVGID_132_);fill:#B4B6B9;}
	.st90{clip-path:url(#SVGID_134_);fill:#B4B6B9;}
	.st91{clip-path:url(#SVGID_136_);fill:#B4B6B9;}
	.st92{clip-path:url(#SVGID_138_);fill:#B4B6B9;}
	.st93{clip-path:url(#SVGID_140_);fill:#B4B6B9;}
	.st94{clip-path:url(#SVGID_142_);fill:#B4B6B9;}
	.st95{clip-path:url(#SVGID_144_);fill:#B4B6B9;}
	.st96{clip-path:url(#SVGID_144_);fill:#95989A;}
	.st97{clip-path:url(#SVGID_144_);fill:#AEB1B1;}
	.st98{clip-path:url(#SVGID_144_);fill:#808081;}
	.st99{clip-path:url(#SVGID_144_);fill:#616366;}
	.st100{fill:#616366;}
	.st101{clip-path:url(#SVGID_146_);fill:#616366;}
	.st102{clip-path:url(#SVGID_148_);fill:#616366;}
	.st103{clip-path:url(#SVGID_150_);fill:#616366;}
	.st104{clip-path:url(#SVGID_152_);fill:#616366;}
	.st105{clip-path:url(#SVGID_154_);fill:#616366;}
	.st106{clip-path:url(#SVGID_156_);fill:#616366;}
	.st107{clip-path:url(#SVGID_158_);fill:#616366;}
	.st108{clip-path:url(#SVGID_160_);fill:#616366;}
	.st109{clip-path:url(#SVGID_162_);fill:#616366;}
	.st110{clip-path:url(#SVGID_164_);fill:#616366;}
	.st111{clip-path:url(#SVGID_166_);fill:#616366;}
	.st112{clip-path:url(#SVGID_168_);fill:#616366;}
	.st113{clip-path:url(#SVGID_170_);fill:#616366;}
	.st114{clip-path:url(#SVGID_172_);fill:#B4B6B9;}
	.st115{clip-path:url(#SVGID_174_);fill:#B4B6B9;}
	.st116{clip-path:url(#SVGID_176_);fill:#B4B6B9;}
	.st117{clip-path:url(#SVGID_178_);fill:#B4B6B9;}
	.st118{clip-path:url(#SVGID_180_);fill:#B4B6B9;}
	.st119{clip-path:url(#SVGID_182_);fill:#B4B6B9;}
	.st120{clip-path:url(#SVGID_184_);fill:#B4B6B9;}
	.st121{clip-path:url(#SVGID_186_);fill:#B4B6B9;}
	.st122{clip-path:url(#SVGID_188_);fill:#B4B6B9;}
	.st123{clip-path:url(#SVGID_190_);fill:#B4B6B9;}
	.st124{clip-path:url(#SVGID_192_);fill:#B4B6B9;}
	.st125{clip-path:url(#SVGID_194_);fill:#B4B6B9;}
	.st126{clip-path:url(#SVGID_196_);fill:#B4B6B9;}
	.st127{clip-path:url(#SVGID_198_);fill:#B4B6B9;}
	.st128{clip-path:url(#SVGID_198_);fill:#A6A8AA;}
	.st129{clip-path:url(#SVGID_200_);fill:#B4B6B9;}
	.st130{clip-path:url(#SVGID_202_);fill:#B4B6B9;}
	.st131{clip-path:url(#SVGID_204_);fill:#B4B6B9;}
	.st132{clip-path:url(#SVGID_206_);fill:#B4B6B9;}
	.st133{clip-path:url(#SVGID_208_);fill:#B4B6B9;}
	.st134{clip-path:url(#SVGID_210_);fill:#B4B6B9;}
	.st135{clip-path:url(#SVGID_212_);fill:#B4B6B9;}
	.st136{clip-path:url(#SVGID_214_);fill:#B4B6B9;}
	.st137{clip-path:url(#SVGID_216_);fill:#B4B6B9;}
	.st138{clip-path:url(#SVGID_218_);fill:#B4B6B9;}
	.st139{clip-path:url(#SVGID_220_);fill:#B4B6B9;}
	.st140{clip-path:url(#SVGID_222_);fill:#B4B6B9;}
	.st141{clip-path:url(#SVGID_224_);fill:#B4B6B9;}
	.st142{clip-path:url(#SVGID_226_);fill:#B4B6B9;}
	.st143{clip-path:url(#SVGID_228_);fill:#B4B6B9;}
	.st144{clip-path:url(#SVGID_228_);fill:#ECE9E8;}
	.st145{clip-path:url(#SVGID_230_);fill:#B4B6B9;}
	.st146{clip-path:url(#SVGID_232_);fill:#B4B6B9;}
	.st147{clip-path:url(#SVGID_234_);fill:#B4B6B9;}
	.st148{clip-path:url(#SVGID_236_);fill:#B4B6B9;}
	.st149{clip-path:url(#SVGID_238_);fill:#B4B6B9;}
	.st150{clip-path:url(#SVGID_240_);fill:#B4B6B9;}
	.st151{clip-path:url(#SVGID_242_);fill:#B4B6B9;}
	.st152{clip-path:url(#SVGID_244_);fill:#B4B6B9;}
	.st153{clip-path:url(#SVGID_246_);fill:#B4B6B9;}
	.st154{clip-path:url(#SVGID_248_);fill:#B4B6B9;}
	.st155{clip-path:url(#SVGID_250_);fill:#B4B6B9;}
	.st156{clip-path:url(#SVGID_252_);fill:#B4B6B9;}
	.st157{fill:none;stroke:#231F20;stroke-width:0.4611;}
	.st158{clip-path:url(#SVGID_254_);fill:#B4B6B9;}
	.st159{clip-path:url(#SVGID_256_);}
	.st160{clip-path:url(#SVGID_258_);}
	.st161{clip-path:url(#SVGID_262_);fill:#FFFFFF;}
	.st162{fill:#A6A8AA;}
	.st163{clip-path:url(#SVGID_264_);fill:#A6A8AA;}
	.st164{clip-path:url(#SVGID_264_);fill:#848688;}
	.st165{clip-path:url(#SVGID_264_);fill:none;stroke:#FFFFFF;stroke-width:0.5497;stroke-miterlimit:10;}
	.st166{clip-path:url(#SVGID_264_);fill:#8F9194;}
	.st167{clip-path:url(#SVGID_264_);fill:#AEB0B2;}
	.st168{clip-path:url(#SVGID_264_);fill:#808081;}
	.st169{clip-path:url(#SVGID_264_);fill:#FFFFFF;}
	.st170{clip-path:url(#SVGID_266_);fill:#FFFFFF;}
	.st171{clip-path:url(#SVGID_268_);fill:#FFFFFF;}
	.st172{clip-path:url(#SVGID_270_);fill:#FFFFFF;}
	.st173{clip-path:url(#SVGID_272_);fill:#FFFFFF;}
	.st174{clip-path:url(#SVGID_274_);fill:#FFFFFF;}
	.st175{clip-path:url(#SVGID_276_);fill:#FFFFFF;}
	.st176{clip-path:url(#SVGID_278_);fill:#FFFFFF;}
	.st177{clip-path:url(#SVGID_280_);fill:#FFFFFF;}
	.st178{clip-path:url(#SVGID_282_);fill:#FFFFFF;}
	.st179{clip-path:url(#SVGID_284_);fill:#FFFFFF;}
	.st180{clip-path:url(#SVGID_286_);fill:#FFFFFF;}
	.st181{clip-path:url(#SVGID_288_);fill:#FFFFFF;}
	.st182{clip-path:url(#SVGID_288_);fill:#808081;}
	.st183{clip-path:url(#SVGID_288_);fill:#AEB0B2;}
	.st184{clip-path:url(#SVGID_288_);fill:none;stroke:#AEB0B2;stroke-width:0.3505;stroke-miterlimit:10;}
	.st185{clip-path:url(#SVGID_288_);fill:none;stroke:#AEB0B2;stroke-width:0.1752;stroke-miterlimit:10;}
	.st186{fill:#AEB0B2;}
	.st187{clip-path:url(#SVGID_290_);fill:none;stroke:#808081;stroke-width:4.3256;stroke-miterlimit:10;}
	.st188{clip-path:url(#SVGID_290_);fill:#808081;}
	.st189{clip-path:url(#SVGID_290_);fill:none;stroke:#FFFFFF;stroke-width:0.6032;stroke-miterlimit:10;}
	.st190{clip-path:url(#SVGID_290_);fill:#AEB0B2;}
	.st191{clip-path:url(#SVGID_290_);fill:none;stroke:#FFFFFF;stroke-width:0.4021;stroke-miterlimit:10;}
	.st192{clip-path:url(#SVGID_290_);fill:none;stroke:#FFFFFF;stroke-width:0.3818;stroke-miterlimit:10;}
	.st193{fill:#808081;}
	.st194{clip-path:url(#SVGID_292_);fill:#808081;}
	.st195{clip-path:url(#SVGID_294_);fill:#808081;}
	.st196{clip-path:url(#SVGID_294_);fill:#AEB0B2;}
	.st197{clip-path:url(#SVGID_296_);fill:#AEB0B2;}
	.st198{clip-path:url(#SVGID_296_);fill:#8F9194;}
	.st199{clip-path:url(#SVGID_298_);}
	.st200{clip-path:url(#SVGID_300_);}
	.st201{clip-path:url(#SVGID_304_);}
	.st202{clip-path:url(#SVGID_306_);}
	.st203{clip-path:url(#SVGID_310_);}
	.st204{clip-path:url(#SVGID_312_);}
	.st205{clip-path:url(#SVGID_316_);}
	.st206{clip-path:url(#SVGID_318_);}
	.st207{clip-path:url(#SVGID_322_);fill:#8F9194;}
	.st208{fill:#8F9194;}
	.st209{clip-path:url(#SVGID_324_);}
	.st210{clip-path:url(#SVGID_328_);}
	.st211{clip-path:url(#SVGID_332_);}
	.st212{clip-path:url(#SVGID_336_);fill:#8F9194;}
	.st213{clip-path:url(#SVGID_338_);}
	.st214{clip-path:url(#SVGID_342_);fill:#8F9194;}
	.st215{clip-path:url(#SVGID_344_);fill:#8F9194;}
	.st216{clip-path:url(#SVGID_346_);fill:#8F9194;}
	.st217{clip-path:url(#SVGID_348_);fill:#8F9194;}
	.st218{clip-path:url(#SVGID_350_);fill:#8F9194;}
	.st219{clip-path:url(#SVGID_352_);fill:#8F9194;}
	.st220{clip-path:url(#SVGID_354_);fill:#8F9194;}
	.st221{clip-path:url(#SVGID_356_);fill:#8F9194;}
	.st222{clip-path:url(#SVGID_358_);}
	.st223{clip-path:url(#SVGID_362_);fill:#B8BABC;}
	.st224{clip-path:url(#SVGID_362_);fill:#8F9194;}
	.st225{clip-path:url(#SVGID_364_);fill:#8F9194;}
	.st226{clip-path:url(#SVGID_366_);fill:#8F9194;}
	.st227{fill:#6295B2;}
	.st228{display:none;}
	.st229{display:inline;}
	.st230{fill:#E8E8EA;}
	.st231{fill:#3F3E40;}
	.st232{opacity:0.5;fill:#3F3E40;}
	.st233{opacity:0.5;}
	.st234{fill:none;stroke:#FFFFFF;stroke-miterlimit:10;}
</style>
<g id="Layer_1">
	<g>
		<path class="st2" d="M77,207.8c-9.4-6.5-8.7-18.9-8.7-18.9c-12.1-1.7-13.6-11.3-13.6-11.3c13-8.2,12.1-18.6,12.1-18.6H38.5v-17.6
			h11.8c3.4-25.1-15.1-23.9-15.1-23.9c-6.8,0.4-11.8,4.1-12.7,11c-0.4,3.4,0.8,7.2,1.4,10.5c0.1,0.7,0.1,1.5-0.4,1.9l-1,0.1
			c-7.9-1.2-16.4-8.9-19.8-15.9c-8.1-16.5,3.3-40.7,23-40.3c9.8,0.2,19.6,7.6,25.1,15.3c8.3,11.5,11.5,27.2,11.3,41.3h7.5
			c0,0,1.9-27.7-6.9-45.9c0,0-35.9-59.7,14.3-95.5h0.3c50.2,35.8,14.3,95.5,14.3,95.5c-8.8,18.2-6.9,45.9-6.9,45.9h7.5
			c-0.1-14,3.1-29.7,11.3-41.3c5.5-7.7,15.3-15,25.1-15.3c19.7-0.4,31.1,23.8,23,40.3c-3.4,6.9-11.9,14.7-19.8,15.9l-1-0.1
			c-0.6-0.4-0.6-1.2-0.4-1.9c0.6-3.3,1.8-7.1,1.4-10.5c-0.9-6.9-6-10.6-12.7-11c0,0-18.4-1.3-15.1,23.9h11.9V159H87.5
			c0,0-0.8,10.5,12.1,18.6c0,0-1.5,9.6-13.6,11.3c0,0,0.7,12.4-8.7,18.9H77z"/>
		<g>
			<g>
				<path class="st2" d="M221.7,56.5v23h10.7c2.4,0,4.2-0.5,5.4-1.6c1.1-1.1,1.9-3.2,2.3-6.4h1.6v19.8h-1.6c0-2.3-0.3-3.9-0.9-5
					c-0.6-1.1-1.3-1.9-2.3-2.4c-1-0.5-2.5-0.8-4.4-0.8h-10.7v18.4c0,3,0.2,4.9,0.6,5.9c0.3,0.7,0.9,1.3,1.8,1.9c1.3,0.7,2.6,1,4,1
					h2.1v1.6H205v-1.6h2.1c2.4,0,4.2-0.7,5.3-2.1c0.7-0.9,1-3.1,1-6.7V63.7c0-3-0.2-4.9-0.6-5.9c-0.3-0.7-0.9-1.3-1.8-1.9
					c-1.2-0.7-2.6-1-4-1H205v-1.6h43.6l0.6,12.9h-1.5c-0.7-2.7-1.6-4.7-2.6-6c-1-1.3-2.2-2.2-3.7-2.8c-1.5-0.6-3.7-0.9-6.8-0.9
					H221.7z"/>
				<path class="st2" d="M303.6,95.7L305,96l-5,15.9h-45.4v-1.6h2.2c2.5,0,4.3-0.8,5.3-2.4c0.6-0.9,0.9-3.1,0.9-6.4V63.7
					c0-3.7-0.4-6-1.2-6.9c-1.1-1.3-2.8-1.9-5-1.9h-2.2v-1.6h26.5v1.6c-3.1,0-5.3,0.3-6.5,0.9c-1.3,0.6-2.1,1.4-2.6,2.3
					c-0.5,0.9-0.7,3.1-0.7,6.6v36.8c0,2.4,0.2,4,0.7,4.9c0.3,0.6,0.9,1.1,1.6,1.3c0.7,0.3,3,0.4,6.7,0.4h4.3c4.5,0,7.7-0.3,9.5-1
					c1.8-0.7,3.5-1.8,5-3.5C300.6,102,302.1,99.3,303.6,95.7z"/>
				<path class="st2" d="M325.5,56.5v23.2h12.9c3.3,0,5.6-0.5,6.7-1.5c1.5-1.3,2.3-3.7,2.5-7h1.6v20.4h-1.6
					c-0.4-2.9-0.8-4.7-1.2-5.5c-0.5-1-1.4-1.8-2.6-2.4c-1.2-0.6-3-0.9-5.4-0.9h-12.9v19.3c0,2.6,0.1,4.2,0.3,4.7
					c0.2,0.6,0.6,1,1.2,1.3c0.6,0.3,1.7,0.5,3.3,0.5h9.9c3.3,0,5.7-0.2,7.2-0.7c1.5-0.5,2.9-1.4,4.3-2.7c1.8-1.8,3.6-4.5,5.5-8.1
					h1.7l-5.1,14.7h-45.2v-1.6h2.1c1.4,0,2.7-0.3,3.9-1c0.9-0.5,1.5-1.2,1.9-2.1c0.3-0.9,0.5-2.8,0.5-5.7V63.5c0-3.7-0.4-6-1.1-6.9
					c-1-1.2-2.8-1.7-5.2-1.7h-2.1v-1.6h45.2l0.7,12.8h-1.7c-0.6-3.1-1.3-5.2-2-6.4c-0.7-1.2-1.8-2-3.3-2.6c-1.2-0.4-3.2-0.6-6.1-0.6
					H325.5z"/>
				<path class="st2" d="M403.3,54.9v-1.6H424v1.6h-2.2c-2.3,0-4.1,1-5.3,2.9c-0.6,0.9-0.9,3-0.9,6.2v23.8c0,5.9-0.6,10.4-1.8,13.7
					c-1.2,3.2-3.5,6-6.9,8.3c-3.4,2.3-8.1,3.5-13.9,3.5c-6.4,0-11.3-1.1-14.6-3.3c-3.3-2.2-5.7-5.2-7-9c-0.9-2.6-1.4-7.4-1.4-14.4
					V63.7c0-3.6-0.5-6-1.5-7.1c-1-1.1-2.6-1.7-4.8-1.7h-2.2v-1.6h25.3v1.6h-2.2c-2.4,0-4.1,0.8-5.2,2.3c-0.7,1-1.1,3.2-1.1,6.5v25.6
					c0,2.3,0.2,4.9,0.6,7.8c0.4,2.9,1.2,5.2,2.3,6.9c1.1,1.6,2.7,3,4.7,4.1c2.1,1.1,4.6,1.6,7.6,1.6c3.8,0,7.3-0.8,10.3-2.5
					c3-1.7,5.1-3.8,6.2-6.4c1.1-2.6,1.7-7,1.7-13.3V63.7c0-3.7-0.4-6-1.2-6.9c-1.1-1.3-2.8-1.9-5-1.9H403.3z"/>
				<path class="st2" d="M484.8,111.9h-15.7l-19.8-27.4c-1.5,0.1-2.7,0.1-3.6,0.1c-0.4,0-0.8,0-1.2,0c-0.4,0-0.9,0-1.3-0.1v17
					c0,3.7,0.4,6,1.2,6.9c1.1,1.3,2.7,1.9,4.9,1.9h2.3v1.6h-25.1v-1.6h2.2c2.5,0,4.3-0.8,5.3-2.4c0.6-0.9,0.9-3,0.9-6.4V63.7
					c0-3.7-0.4-6-1.2-6.9c-1.1-1.3-2.8-1.9-5-1.9h-2.2v-1.6h21.4c6.2,0,10.8,0.5,13.8,1.4c3,0.9,5.5,2.6,7.5,5
					c2.1,2.4,3.1,5.3,3.1,8.7c0,3.6-1.2,6.7-3.5,9.4c-2.3,2.7-6,4.5-10.9,5.6l12.1,16.8c2.8,3.9,5.1,6.4,7.1,7.7
					c2,1.3,4.6,2.1,7.8,2.4V111.9z M443.2,81.8c0.5,0,1,0,1.4,0c0.4,0,0.7,0,1,0c5.6,0,9.8-1.2,12.6-3.6c2.8-2.4,4.3-5.5,4.3-9.3
					c0-3.7-1.1-6.6-3.4-8.9c-2.3-2.3-5.3-3.4-9.1-3.4c-1.7,0-3.9,0.3-6.8,0.8V81.8z"/>
				<path class="st2" d="M507.7,111.9v-1.6h2.2c2.5,0,4.2-0.8,5.3-2.4c0.6-1,1-3.1,1-6.4V63.7c0-3.7-0.4-6-1.2-6.9
					c-1.1-1.3-2.8-1.9-5-1.9h-2.2v-1.6h23.9c8.8,0,15.4,1,20,3c4.6,2,8.2,5.3,11,9.9c2.8,4.6,4.2,10,4.2,16.1c0,8.2-2.5,15-7.4,20.5
					c-5.6,6.1-14,9.2-25.4,9.2H507.7z M524.4,107.7c3.7,0.8,6.7,1.2,9.2,1.2c6.7,0,12.2-2.3,16.6-7c4.4-4.7,6.6-11.1,6.6-19.1
					c0-8.1-2.2-14.5-6.6-19.2s-10.1-7-17-7c-2.6,0-5.5,0.4-8.9,1.3V107.7z"/>
				<path class="st2" d="M588.6,56.5v23.2h12.9c3.3,0,5.6-0.5,6.7-1.5c1.5-1.3,2.3-3.7,2.5-7h1.6v20.4h-1.6
					c-0.4-2.9-0.8-4.7-1.2-5.5c-0.5-1-1.4-1.8-2.6-2.4c-1.2-0.6-3-0.9-5.4-0.9h-12.9v19.3c0,2.6,0.1,4.2,0.3,4.7
					c0.2,0.6,0.6,1,1.2,1.3c0.6,0.3,1.7,0.5,3.3,0.5h9.9c3.3,0,5.7-0.2,7.2-0.7c1.5-0.5,2.9-1.4,4.3-2.7c1.8-1.8,3.6-4.5,5.5-8.1
					h1.7l-5.1,14.7h-45.2v-1.6h2.1c1.4,0,2.7-0.3,3.9-1c0.9-0.5,1.5-1.2,1.9-2.1c0.3-0.9,0.5-2.8,0.5-5.7V63.5c0-3.7-0.4-6-1.1-6.9
					c-1-1.2-2.8-1.7-5.2-1.7h-2.1v-1.6h45.2l0.7,12.8h-1.7c-0.6-3.1-1.3-5.2-2-6.4c-0.7-1.2-1.8-2-3.3-2.6c-1.2-0.4-3.2-0.6-6.1-0.6
					H588.6z"/>
				<path class="st2" d="M697.1,95.7l1.4,0.3l-5,15.9h-45.4v-1.6h2.2c2.5,0,4.3-0.8,5.3-2.4c0.6-0.9,0.9-3.1,0.9-6.4V63.7
					c0-3.7-0.4-6-1.2-6.9c-1.1-1.3-2.8-1.9-5-1.9h-2.2v-1.6h26.5v1.6c-3.1,0-5.3,0.3-6.5,0.9c-1.3,0.6-2.1,1.4-2.6,2.3
					c-0.5,0.9-0.7,3.1-0.7,6.6v36.8c0,2.4,0.2,4,0.7,4.9c0.3,0.6,0.9,1.1,1.6,1.3c0.7,0.3,3,0.4,6.7,0.4h4.3c4.5,0,7.7-0.3,9.5-1
					c1.8-0.7,3.5-1.8,5-3.5C694.1,102,695.6,99.3,697.1,95.7z"/>
				<path class="st2" d="M733.8,53.3h20.4v1.6h-1.1c-0.7,0-1.8,0.3-3.3,1c-1.4,0.7-2.8,1.6-3.9,2.9c-1.2,1.2-2.6,3.3-4.4,6.1
					l-14.1,22.3v14.7c0,3.6,0.4,5.9,1.2,6.7c1.1,1.2,2.8,1.8,5.2,1.8h1.9v1.6h-24.9v-1.6h2.1c2.5,0,4.2-0.7,5.3-2.2
					c0.6-0.9,0.9-3,0.9-6.3V87.9L703,63.3c-1.9-2.9-3.2-4.7-3.9-5.4c-0.7-0.7-2.1-1.6-4.2-2.6c-0.6-0.3-1.4-0.4-2.5-0.4v-1.6h25.1
					v1.6h-1.3c-1.4,0-2.6,0.3-3.7,1s-1.7,1.6-1.7,2.9c0,1,0.9,2.9,2.6,5.6l12.2,18.9l11.5-18.1c1.7-2.7,2.6-4.7,2.6-6.1
					c0-0.8-0.2-1.5-0.6-2.2c-0.4-0.6-1-1.1-1.8-1.5c-0.8-0.4-1.9-0.5-3.5-0.5V53.3z"/>
				<path class="st2" d="M796.1,51.9v20.3h-1.6c-0.5-3.9-1.4-7-2.8-9.3c-1.3-2.3-3.3-4.1-5.7-5.5c-2.5-1.4-5-2-7.7-2
					c-3,0-5.5,0.9-7.4,2.7c-2,1.8-2.9,3.9-2.9,6.2c0,1.8,0.6,3.4,1.9,4.9c1.8,2.2,6,5,12.8,8.6c5.5,2.9,9.2,5.2,11.2,6.8
					c2,1.6,3.5,3.4,4.6,5.6c1.1,2.1,1.6,4.4,1.6,6.7c0,4.4-1.7,8.3-5.2,11.5c-3.4,3.2-7.9,4.8-13.3,4.8c-1.7,0-3.3-0.1-4.8-0.4
					c-0.9-0.1-2.7-0.7-5.6-1.6c-2.8-0.9-4.6-1.4-5.3-1.4c-0.7,0-1.3,0.2-1.7,0.6c-0.4,0.4-0.7,1.3-0.9,2.7h-1.6V93.1h1.6
					c0.7,4.2,1.8,7.4,3,9.4c1.3,2.1,3.2,3.8,5.8,5.2c2.6,1.4,5.5,2.1,8.6,2.1c3.6,0,6.4-1,8.5-2.9c2.1-1.9,3.1-4.1,3.1-6.7
					c0-1.4-0.4-2.9-1.2-4.4c-0.8-1.5-2-2.8-3.7-4.1c-1.1-0.9-4.2-2.7-9.2-5.5c-5-2.8-8.6-5.1-10.7-6.7s-3.7-3.5-4.8-5.5
					c-1.1-2-1.6-4.2-1.6-6.7c0-4.2,1.6-7.8,4.8-10.9c3.2-3,7.3-4.6,12.3-4.6c3.1,0,6.4,0.8,9.9,2.3c1.6,0.7,2.8,1.1,3.4,1.1
					c0.7,0,1.4-0.2,1.8-0.7c0.5-0.4,0.9-1.3,1.1-2.7H796.1z"/>
			</g>
			<g>
				<path class="st2" d="M207.3,138.2v6.9h9.2v2.2h-9.2v8.4H205V136h12.5v2.2H207.3z"/>
				<path class="st2" d="M232.2,155.7V136h2.3v19.7H232.2z"/>
				<path class="st2" d="M265.8,155.7l-11.8-15.8v15.8h-2.3V136h2.3l11.8,15.9V136h2.2v19.7H265.8z"/>
				<path class="st2" d="M287.6,138.2v6.5h9.9v2.2h-9.9v6.8h11.5v2.1h-13.7V136h13.4v2.2H287.6z"/>
				<path class="st2" d="M349.6,138.8l-1.4,1.7c-1.5-1.5-3.7-2.5-5.8-2.5c-4.4,0-8,3.4-8,7.8c0,4.3,3.6,7.8,8,7.8
					c2.2,0,4.3-0.9,5.8-2.4l1.4,1.5c-1.9,1.8-4.6,3-7.3,3c-5.7,0-10.2-4.4-10.2-10c0-5.5,4.6-9.9,10.3-9.9
					C345.1,136,347.7,137.1,349.6,138.8z"/>
				<path class="st2" d="M366.6,150.7l-2.2,5H362l8.8-19.7h2.3l8.8,19.7h-2.4l-2.2-5H366.6z M371.9,138.6l-4.4,10h8.8L371.9,138.6z"
					/>
				<path class="st2" d="M400.5,138.2v17.5h-2.3v-17.5h-6.4V136H407v2.2H400.5z"/>
				<path class="st2" d="M423.8,138.2v6.5h9.9v2.2h-9.9v6.8h11.5v2.1h-13.7V136h13.4v2.2H423.8z"/>
				<path class="st2" d="M460,149.4c-0.4,0-0.9,0.1-1.3,0.1h-5.2v6.2h-2.3V136h7.5c4.9,0,7.8,2.4,7.8,6.6c0,3.3-1.6,5.5-4.4,6.4
					l4.6,6.7H464L460,149.4z M458.6,147.3c3.6,0,5.6-1.6,5.6-4.6c0-3-2-4.5-5.6-4.5h-5.2v9.2H458.6z"/>
				<path class="st2" d="M482.8,155.7V136h2.3v19.7H482.8z"/>
				<path class="st2" d="M516.4,155.7l-11.8-15.8v15.8h-2.3V136h2.3l11.8,15.9V136h2.2v19.7H516.4z"/>
				<path class="st2" d="M551.7,146.1v7.2c-1.9,1.5-4.7,2.6-7.3,2.6c-5.7,0-10.3-4.4-10.3-10s4.6-9.9,10.4-9.9c2.7,0,5.4,1,7.3,2.7
					l-1.3,1.7c-1.6-1.4-3.8-2.3-6-2.3c-4.5,0-8.1,3.5-8.1,7.8c0,4.4,3.6,7.8,8.1,7.8c1.8,0,3.7-0.6,5.2-1.7v-5.9H551.7z"/>
				<path class="st2" d="M599.6,137.8l-1,2.1c-1.8-1.2-3.9-1.7-5.4-1.7c-2.5,0-4.2,1-4.2,2.6c0,5.1,11.1,2.4,11.1,9.6
					c0,3.3-2.9,5.4-7.1,5.4c-2.9,0-5.7-1.2-7.5-3l1-2c1.8,1.8,4.3,2.8,6.6,2.8c2.8,0,4.6-1.2,4.6-3c0-5.2-11.1-2.4-11.1-9.5
					c0-3.1,2.7-5.1,6.8-5.1C595.6,135.9,597.9,136.7,599.6,137.8z"/>
				<path class="st2" d="M618.2,138.2v6.5h9.9v2.2h-9.9v6.8h11.5v2.1h-13.7V136h13.4v2.2H618.2z"/>
				<path class="st2" d="M654.4,149.4c-0.4,0-0.9,0.1-1.3,0.1h-5.2v6.2h-2.3V136h7.5c4.9,0,7.8,2.4,7.8,6.6c0,3.3-1.6,5.5-4.4,6.4
					l4.6,6.7h-2.6L654.4,149.4z M653,147.3c3.6,0,5.6-1.6,5.6-4.6c0-3-2-4.5-5.6-4.5h-5.2v9.2H653z"/>
				<path class="st2" d="M682.1,155.7l-8-19.7h2.4l6.8,17.1l6.8-17.1h2.4l-8.1,19.7H682.1z"/>
				<path class="st2" d="M706.9,155.7V136h2.3v19.7H706.9z"/>
				<path class="st2" d="M742.1,138.8l-1.4,1.7c-1.5-1.5-3.7-2.5-5.8-2.5c-4.4,0-8,3.4-8,7.8c0,4.3,3.6,7.8,8,7.8
					c2.2,0,4.3-0.9,5.8-2.4l1.4,1.5c-1.9,1.8-4.6,3-7.3,3c-5.7,0-10.2-4.4-10.2-10c0-5.5,4.6-9.9,10.3-9.9
					C737.6,136,740.2,137.1,742.1,138.8z"/>
				<path class="st2" d="M759.7,138.2v6.5h9.9v2.2h-9.9v6.8h11.5v2.1h-13.7V136h13.4v2.2H759.7z"/>
				<path class="st2" d="M799.2,137.8l-1,2.1c-1.8-1.2-3.9-1.7-5.4-1.7c-2.5,0-4.2,1-4.2,2.6c0,5.1,11.1,2.4,11.1,9.6
					c0,3.3-2.9,5.4-7.1,5.4c-2.9,0-5.7-1.2-7.5-3l1-2c1.8,1.8,4.3,2.8,6.6,2.8c2.8,0,4.6-1.2,4.6-3c0-5.2-11.1-2.4-11.1-9.5
					c0-3.1,2.7-5.1,6.8-5.1C795.2,135.9,797.5,136.7,799.2,137.8z"/>
			</g>
		</g>
	</g>
</g>
<g id="Menus" class="st228">
</g>
</svg>
