<?xml version="1.0" encoding="utf-8"?>
<!-- Generator: Adobe Illustrator 22.0.1, SVG Export Plug-In . SVG Version: 6.00 Build 0)  -->
<svg version="1.1" xmlns="http://www.w3.org/2000/svg" xmlns:xlink="http://www.w3.org/1999/xlink" x="0px" y="0px"
	 viewBox="0 0 345.2 229.1" style="enable-background:new 0 0 345.2 229.1;" xml:space="preserve">
<style type="text/css">
	.st0{clip-path:url(#SVGID_2_);}
	.st1{opacity:0.2;fill:#2B2B2D;}
	.st2{fill:#FFFFFF;}
	.st3{clip-path:url(#SVGID_4_);fill:#E8E8EA;}
	.st4{clip-path:url(#SVGID_6_);}
	.st5{opacity:0.21;fill:#2B2B2D;}
	.st6{clip-path:url(#SVGID_10_);}
	.st7{clip-path:url(#SVGID_14_);}
	.st8{fill:#2B2B2D;stroke:#3F3E40;stroke-width:0.632;stroke-miterlimit:10;}
	.st9{clip-path:url(#SVGID_16_);}
	.st10{fill:none;stroke:#E8E8EA;stroke-width:2.223;stroke-miterlimit:10;}
	.st11{fill:#414042;}
	.st12{fill:none;stroke:#E8E8EA;stroke-width:1.1659;stroke-miterlimit:10;}
	.st13{opacity:0.56;fill:none;stroke:#414042;stroke-miterlimit:10;}
	.st14{fill:none;stroke:#3F3E40;stroke-width:8;stroke-miterlimit:10;}
	.st15{clip-path:url(#SVGID_20_);fill:#E8E8EA;}
	.st16{fill:none;stroke:#FFFFFF;stroke-width:0.5;stroke-miterlimit:10;}
	.st17{fill:#3F96B4;}
	.st18{fill:#1F191A;}
	.st19{fill:#008DCD;}
	.st20{fill:none;stroke:#000000;stroke-width:0.5;stroke-miterlimit:10;}
	.st21{fill:none;stroke:#FFFFFF;stroke-width:8;stroke-miterlimit:10;}
	.st22{opacity:0.1;clip-path:url(#SVGID_22_);}
	.st23{opacity:0.31;}
	.st24{fill:#000100;}
	.st25{fill:#CAC9C8;}
	.st26{fill:#292929;}
	.st27{fill:#818180;}
	.st28{fill:#1A1A1A;}
	.st29{fill:#1D1D1B;}
	.st30{fill:#2DAED7;}
	.st31{fill:#88BAD9;}
	.st32{fill:#C52C1D;}
	.st33{fill:#21A2D5;}
	.st34{clip-path:url(#SVGID_24_);}
	.st35{clip-path:url(#SVGID_26_);}
	.st36{clip-path:url(#SVGID_28_);fill:#E8E8EA;}
	.st37{clip-path:url(#SVGID_30_);fill:#E8E8EA;}
	.st38{clip-path:url(#SVGID_32_);fill:#E8E8EA;}
	.st39{clip-path:url(#SVGID_36_);fill:#B4B6B9;}
	.st40{fill:#B4B6B9;}
	.st41{clip-path:url(#SVGID_38_);fill:#B4B6B9;}
	.st42{clip-path:url(#SVGID_40_);fill:#B4B6B9;}
	.st43{clip-path:url(#SVGID_42_);fill:#B4B6B9;}
	.st44{clip-path:url(#SVGID_44_);fill:#B4B6B9;}
	.st45{clip-path:url(#SVGID_46_);fill:#B4B6B9;}
	.st46{clip-path:url(#SVGID_48_);fill:#B4B6B9;}
	.st47{clip-path:url(#SVGID_50_);fill:#B4B6B9;}
	.st48{clip-path:url(#SVGID_52_);fill:#B4B6B9;}
	.st49{clip-path:url(#SVGID_54_);fill:#B4B6B9;}
	.st50{clip-path:url(#SVGID_56_);fill:#B4B6B9;}
	.st51{clip-path:url(#SVGID_58_);fill:#B4B6B9;}
	.st52{clip-path:url(#SVGID_60_);fill:#B4B6B9;}
	.st53{clip-path:url(#SVGID_62_);fill:#B4B6B9;}
	.st54{clip-path:url(#SVGID_64_);fill:#B4B6B9;}
	.st55{clip-path:url(#SVGID_66_);fill:#B4B6B9;}
	.st56{clip-path:url(#SVGID_68_);fill:#B4B6B9;}
	.st57{clip-path:url(#SVGID_70_);fill:#B4B6B9;}
	.st58{clip-path:url(#SVGID_72_);fill:#B4B6B9;}
	.st59{clip-path:url(#SVGID_74_);fill:#B4B6B9;}
	.st60{clip-path:url(#SVGID_76_);fill:#B4B6B9;}
	.st61{clip-path:url(#SVGID_78_);fill:#B4B6B9;}
	.st62{clip-path:url(#SVGID_80_);fill:#B4B6B9;}
	.st63{clip-path:url(#SVGID_82_);fill:#B4B6B9;}
	.st64{clip-path:url(#SVGID_84_);fill:#B4B6B9;}
	.st65{clip-path:url(#SVGID_86_);fill:#B4B6B9;}
	.st66{clip-path:url(#SVGID_88_);fill:#B4B6B9;}
	.st67{clip-path:url(#SVGID_90_);fill:#B4B6B9;}
	.st68{clip-path:url(#SVGID_92_);fill:#B4B6B9;}
	.st69{clip-path:url(#SVGID_94_);fill:#B4B6B9;}
	.st70{clip-path:url(#SVGID_96_);fill:#B4B6B9;}
	.st71{clip-path:url(#SVGID_96_);fill:#EEEEEE;}
	.st72{clip-path:url(#SVGID_98_);fill:#B4B6B9;}
	.st73{clip-path:url(#SVGID_100_);fill:#B4B6B9;}
	.st74{clip-path:url(#SVGID_102_);fill:#B4B6B9;}
	.st75{clip-path:url(#SVGID_104_);fill:#B4B6B9;}
	.st76{clip-path:url(#SVGID_106_);fill:#B4B6B9;}
	.st77{clip-path:url(#SVGID_108_);fill:#B4B6B9;}
	.st78{clip-path:url(#SVGID_110_);fill:#B4B6B9;}
	.st79{clip-path:url(#SVGID_112_);fill:#B4B6B9;}
	.st80{clip-path:url(#SVGID_114_);fill:#B4B6B9;}
	.st81{clip-path:url(#SVGID_116_);fill:#B4B6B9;}
	.st82{clip-path:url(#SVGID_118_);fill:#B4B6B9;}
	.st83{clip-path:url(#SVGID_120_);fill:#B4B6B9;}
	.st84{clip-path:url(#SVGID_122_);fill:#B4B6B9;}
	.st85{clip-path:url(#SVGID_124_);fill:#B4B6B9;}
	.st86{clip-path:url(#SVGID_126_);fill:#B4B6B9;}
	.st87{clip-path:url(#SVGID_128_);fill:#B4B6B9;}
	.st88{clip-path:url(#SVGID_130_);fill:#B4B6B9;}
	.st89{clip-path:url(#SVGID_132_);fill:#B4B6B9;}
	.st90{clip-path:url(#SVGID_134_);fill:#B4B6B9;}
	.st91{clip-path:url(#SVGID_136_);fill:#B4B6B9;}
	.st92{clip-path:url(#SVGID_138_);fill:#B4B6B9;}
	.st93{clip-path:url(#SVGID_140_);fill:#B4B6B9;}
	.st94{clip-path:url(#SVGID_142_);fill:#B4B6B9;}
	.st95{clip-path:url(#SVGID_144_);fill:#B4B6B9;}
	.st96{clip-path:url(#SVGID_144_);fill:#95989A;}
	.st97{clip-path:url(#SVGID_144_);fill:#AEB1B1;}
	.st98{clip-path:url(#SVGID_144_);fill:#808081;}
	.st99{clip-path:url(#SVGID_144_);fill:#616366;}
	.st100{fill:#616366;}
	.st101{clip-path:url(#SVGID_146_);fill:#616366;}
	.st102{clip-path:url(#SVGID_148_);fill:#616366;}
	.st103{clip-path:url(#SVGID_150_);fill:#616366;}
	.st104{clip-path:url(#SVGID_152_);fill:#616366;}
	.st105{clip-path:url(#SVGID_154_);fill:#616366;}
	.st106{clip-path:url(#SVGID_156_);fill:#616366;}
	.st107{clip-path:url(#SVGID_158_);fill:#616366;}
	.st108{clip-path:url(#SVGID_160_);fill:#616366;}
	.st109{clip-path:url(#SVGID_162_);fill:#616366;}
	.st110{clip-path:url(#SVGID_164_);fill:#616366;}
	.st111{clip-path:url(#SVGID_166_);fill:#616366;}
	.st112{clip-path:url(#SVGID_168_);fill:#616366;}
	.st113{clip-path:url(#SVGID_170_);fill:#616366;}
	.st114{clip-path:url(#SVGID_172_);fill:#B4B6B9;}
	.st115{clip-path:url(#SVGID_174_);fill:#B4B6B9;}
	.st116{clip-path:url(#SVGID_176_);fill:#B4B6B9;}
	.st117{clip-path:url(#SVGID_178_);fill:#B4B6B9;}
	.st118{clip-path:url(#SVGID_180_);fill:#B4B6B9;}
	.st119{clip-path:url(#SVGID_182_);fill:#B4B6B9;}
	.st120{clip-path:url(#SVGID_184_);fill:#B4B6B9;}
	.st121{clip-path:url(#SVGID_186_);fill:#B4B6B9;}
	.st122{clip-path:url(#SVGID_188_);fill:#B4B6B9;}
	.st123{clip-path:url(#SVGID_190_);fill:#B4B6B9;}
	.st124{clip-path:url(#SVGID_192_);fill:#B4B6B9;}
	.st125{clip-path:url(#SVGID_194_);fill:#B4B6B9;}
	.st126{clip-path:url(#SVGID_196_);fill:#B4B6B9;}
	.st127{clip-path:url(#SVGID_198_);fill:#B4B6B9;}
	.st128{clip-path:url(#SVGID_198_);fill:#A6A8AA;}
	.st129{clip-path:url(#SVGID_200_);fill:#B4B6B9;}
	.st130{clip-path:url(#SVGID_202_);fill:#B4B6B9;}
	.st131{clip-path:url(#SVGID_204_);fill:#B4B6B9;}
	.st132{clip-path:url(#SVGID_206_);fill:#B4B6B9;}
	.st133{clip-path:url(#SVGID_208_);fill:#B4B6B9;}
	.st134{clip-path:url(#SVGID_210_);fill:#B4B6B9;}
	.st135{clip-path:url(#SVGID_212_);fill:#B4B6B9;}
	.st136{clip-path:url(#SVGID_214_);fill:#B4B6B9;}
	.st137{clip-path:url(#SVGID_216_);fill:#B4B6B9;}
	.st138{clip-path:url(#SVGID_218_);fill:#B4B6B9;}
	.st139{clip-path:url(#SVGID_220_);fill:#B4B6B9;}
	.st140{clip-path:url(#SVGID_222_);fill:#B4B6B9;}
	.st141{clip-path:url(#SVGID_224_);fill:#B4B6B9;}
	.st142{clip-path:url(#SVGID_226_);fill:#B4B6B9;}
	.st143{clip-path:url(#SVGID_228_);fill:#B4B6B9;}
	.st144{clip-path:url(#SVGID_228_);fill:#ECE9E8;}
	.st145{clip-path:url(#SVGID_230_);fill:#B4B6B9;}
	.st146{clip-path:url(#SVGID_232_);fill:#B4B6B9;}
	.st147{clip-path:url(#SVGID_234_);fill:#B4B6B9;}
	.st148{clip-path:url(#SVGID_236_);fill:#B4B6B9;}
	.st149{clip-path:url(#SVGID_238_);fill:#B4B6B9;}
	.st150{clip-path:url(#SVGID_240_);fill:#B4B6B9;}
	.st151{clip-path:url(#SVGID_242_);fill:#B4B6B9;}
	.st152{clip-path:url(#SVGID_244_);fill:#B4B6B9;}
	.st153{clip-path:url(#SVGID_246_);fill:#B4B6B9;}
	.st154{clip-path:url(#SVGID_248_);fill:#B4B6B9;}
	.st155{clip-path:url(#SVGID_250_);fill:#B4B6B9;}
	.st156{clip-path:url(#SVGID_252_);fill:#B4B6B9;}
	.st157{fill:none;stroke:#231F20;stroke-width:0.4611;}
	.st158{clip-path:url(#SVGID_254_);fill:#B4B6B9;}
	.st159{clip-path:url(#SVGID_256_);}
	.st160{clip-path:url(#SVGID_258_);}
	.st161{clip-path:url(#SVGID_262_);fill:#FFFFFF;}
	.st162{fill:#A6A8AA;}
	.st163{clip-path:url(#SVGID_264_);fill:#A6A8AA;}
	.st164{clip-path:url(#SVGID_264_);fill:#848688;}
	.st165{clip-path:url(#SVGID_264_);fill:none;stroke:#FFFFFF;stroke-width:0.5497;stroke-miterlimit:10;}
	.st166{clip-path:url(#SVGID_264_);fill:#8F9194;}
	.st167{clip-path:url(#SVGID_264_);fill:#AEB0B2;}
	.st168{clip-path:url(#SVGID_264_);fill:#808081;}
	.st169{clip-path:url(#SVGID_264_);fill:#FFFFFF;}
	.st170{clip-path:url(#SVGID_266_);fill:#FFFFFF;}
	.st171{clip-path:url(#SVGID_268_);fill:#FFFFFF;}
	.st172{clip-path:url(#SVGID_270_);fill:#FFFFFF;}
	.st173{clip-path:url(#SVGID_272_);fill:#FFFFFF;}
	.st174{clip-path:url(#SVGID_274_);fill:#FFFFFF;}
	.st175{clip-path:url(#SVGID_276_);fill:#FFFFFF;}
	.st176{clip-path:url(#SVGID_278_);fill:#FFFFFF;}
	.st177{clip-path:url(#SVGID_280_);fill:#FFFFFF;}
	.st178{clip-path:url(#SVGID_282_);fill:#FFFFFF;}
	.st179{clip-path:url(#SVGID_284_);fill:#FFFFFF;}
	.st180{clip-path:url(#SVGID_286_);fill:#FFFFFF;}
	.st181{clip-path:url(#SVGID_288_);fill:#FFFFFF;}
	.st182{clip-path:url(#SVGID_288_);fill:#808081;}
	.st183{clip-path:url(#SVGID_288_);fill:#AEB0B2;}
	.st184{clip-path:url(#SVGID_288_);fill:none;stroke:#AEB0B2;stroke-width:0.3505;stroke-miterlimit:10;}
	.st185{clip-path:url(#SVGID_288_);fill:none;stroke:#AEB0B2;stroke-width:0.1752;stroke-miterlimit:10;}
	.st186{fill:#AEB0B2;}
	.st187{clip-path:url(#SVGID_290_);fill:none;stroke:#808081;stroke-width:4.3256;stroke-miterlimit:10;}
	.st188{clip-path:url(#SVGID_290_);fill:#808081;}
	.st189{clip-path:url(#SVGID_290_);fill:none;stroke:#FFFFFF;stroke-width:0.6032;stroke-miterlimit:10;}
	.st190{clip-path:url(#SVGID_290_);fill:#AEB0B2;}
	.st191{clip-path:url(#SVGID_290_);fill:none;stroke:#FFFFFF;stroke-width:0.4021;stroke-miterlimit:10;}
	.st192{clip-path:url(#SVGID_290_);fill:none;stroke:#FFFFFF;stroke-width:0.3818;stroke-miterlimit:10;}
	.st193{fill:#808081;}
	.st194{clip-path:url(#SVGID_292_);fill:#808081;}
	.st195{clip-path:url(#SVGID_294_);fill:#808081;}
	.st196{clip-path:url(#SVGID_294_);fill:#AEB0B2;}
	.st197{clip-path:url(#SVGID_296_);fill:#AEB0B2;}
	.st198{clip-path:url(#SVGID_296_);fill:#8F9194;}
	.st199{clip-path:url(#SVGID_298_);}
	.st200{clip-path:url(#SVGID_300_);}
	.st201{clip-path:url(#SVGID_304_);}
	.st202{clip-path:url(#SVGID_306_);}
	.st203{clip-path:url(#SVGID_310_);}
	.st204{clip-path:url(#SVGID_312_);}
	.st205{clip-path:url(#SVGID_316_);}
	.st206{clip-path:url(#SVGID_318_);}
	.st207{clip-path:url(#SVGID_322_);fill:#8F9194;}
	.st208{fill:#8F9194;}
	.st209{clip-path:url(#SVGID_324_);}
	.st210{clip-path:url(#SVGID_328_);}
	.st211{clip-path:url(#SVGID_332_);}
	.st212{clip-path:url(#SVGID_336_);fill:#8F9194;}
	.st213{clip-path:url(#SVGID_338_);}
	.st214{clip-path:url(#SVGID_342_);fill:#8F9194;}
	.st215{clip-path:url(#SVGID_344_);fill:#8F9194;}
	.st216{clip-path:url(#SVGID_346_);fill:#8F9194;}
	.st217{clip-path:url(#SVGID_348_);fill:#8F9194;}
	.st218{clip-path:url(#SVGID_350_);fill:#8F9194;}
	.st219{clip-path:url(#SVGID_352_);fill:#8F9194;}
	.st220{clip-path:url(#SVGID_354_);fill:#8F9194;}
	.st221{clip-path:url(#SVGID_356_);fill:#8F9194;}
	.st222{clip-path:url(#SVGID_358_);}
	.st223{clip-path:url(#SVGID_362_);fill:#B8BABC;}
	.st224{clip-path:url(#SVGID_362_);fill:#8F9194;}
	.st225{clip-path:url(#SVGID_364_);fill:#8F9194;}
	.st226{clip-path:url(#SVGID_366_);fill:#8F9194;}
	.st227{fill:#6295B2;}
	.st228{display:none;}
	.st229{display:inline;}
	.st230{fill:#E8E8EA;}
	.st231{opacity:0.5;fill:#3F3E40;}
	.st232{fill:#3F3E40;}
	.st233{fill:none;stroke:#FFFFFF;stroke-miterlimit:10;}
</style>
<g id="Layer_1">
	<g>
		<g>
			<g>
				<path class="st2" d="M25.5,218.2h-4.8L6.8,196.4v32H0v-47.6h4.8l18.4,29l18.4-29h4.8v47.6h-6.8v-32L25.5,218.2z"/>
				<path class="st2" d="M89.1,216.2H69l-5,12.2H57l19.7-47.6h4.8l19.7,47.6h-7.1L89.1,216.2z M71.7,209.7h14.7L79.1,192L71.7,209.7
					z"/>
				<path class="st2" d="M113.5,216.5c3.4,4.1,7.2,6.1,11.6,6.1c2.3,0,4.2-0.7,5.8-2c1.6-1.3,2.4-3,2.4-5.1c0-2.2-0.8-3.9-2.5-5.2
					c-1.7-1.3-4.1-2.6-7.2-3.8c-3.2-1.2-5.4-2.3-6.7-3.2c-4-2.7-6.1-6.2-6.1-10.5c0-3.5,1.4-6.5,4.1-8.9s6.2-3.7,10.3-3.7
					c4.7,0,9,1.6,12.8,4.8l-4,5c-2.6-2.2-5.4-3.3-8.5-3.3c-2.1,0-4,0.6-5.5,1.7c-1.6,1.2-2.3,2.7-2.3,4.7c0,1.8,0.8,3.3,2.5,4.5
					c1.7,1.2,4,2.4,7.1,3.7c3.1,1.2,5.3,2.3,6.6,3.2c4.1,2.7,6.2,6.3,6.2,10.9c0,4.1-1.4,7.5-4.2,10c-2.8,2.5-6.3,3.8-10.5,3.8
					c-6.7,0-12.3-2.7-16.7-8L113.5,216.5z"/>
				<path class="st2" d="M153.3,216.5c3.4,4.1,7.2,6.1,11.6,6.1c2.3,0,4.2-0.7,5.8-2c1.6-1.3,2.4-3,2.4-5.1c0-2.2-0.8-3.9-2.5-5.2
					c-1.7-1.3-4.1-2.6-7.2-3.8c-3.2-1.2-5.4-2.3-6.7-3.2c-4-2.7-6.1-6.2-6.1-10.5c0-3.5,1.4-6.5,4.1-8.9c2.7-2.5,6.2-3.7,10.3-3.7
					c4.7,0,9,1.6,12.8,4.8l-4,5c-2.6-2.2-5.4-3.3-8.5-3.3c-2.1,0-4,0.6-5.5,1.7c-1.6,1.2-2.3,2.7-2.3,4.7c0,1.8,0.8,3.3,2.5,4.5
					c1.7,1.2,4,2.4,7.1,3.7c3.1,1.2,5.3,2.3,6.6,3.2c4.1,2.7,6.2,6.3,6.2,10.9c0,4.1-1.4,7.5-4.2,10s-6.3,3.8-10.5,3.8
					c-6.7,0-12.3-2.7-16.7-8L153.3,216.5z"/>
				<path class="st2" d="M196.3,187.2c4.6-4.7,10.2-7,17-7s12.4,2.3,17,7c4.6,4.7,6.8,10.5,6.8,17.4c0,6.9-2.3,12.7-6.8,17.4
					c-4.6,4.7-10.2,7-17,7s-12.4-2.3-17-7c-4.6-4.7-6.8-10.5-6.8-17.4C189.4,197.7,191.7,191.9,196.3,187.2z M201.1,217.5
					c3.2,3.4,7.3,5.1,12.1,5.1c4.9,0,8.9-1.7,12.1-5.1c3.2-3.4,4.9-7.7,4.9-12.9c0-5.1-1.6-9.4-4.9-12.9c-3.2-3.4-7.3-5.2-12.1-5.2
					c-4.8,0-8.9,1.7-12.1,5.2c-3.2,3.4-4.9,7.7-4.9,12.9C196.2,209.8,197.8,214.1,201.1,217.5z"/>
				<path class="st2" d="M254.8,222.8c-3.3-3.6-5-8.3-5-14.1v-27.9h6.8V209c0,4,1,7.2,3,9.4c2.5,2.8,5.8,4.2,9.9,4.2
					c4.1,0,7.4-1.4,9.9-4.2c2-2.2,3-5.3,3-9.4v-28.2h6.8v27.9c0,5.8-1.7,10.6-5,14.1c-3.9,4.2-8.8,6.3-14.8,6.3
					C263.6,229.1,258.7,227,254.8,222.8z"/>
				<path class="st2" d="M305.1,228.4v-47.6h14.3c6.8,0,12.2,1.5,16.3,4.5c2.9,2.2,5.3,5,7,8.4c1.7,3.4,2.5,7,2.5,10.9
					c0,3.9-0.8,7.5-2.5,10.9c-1.7,3.4-4,6.2-6.9,8.4c-4.1,3-9.5,4.5-16.4,4.5H305.1z M332.6,191.3c-3.1-2.7-7.6-4-13.6-4h-7.1v34.7
					h7.1c6,0,10.5-1.3,13.6-4c3.9-3.4,5.8-7.8,5.8-13.3C338.4,199.1,336.5,194.7,332.6,191.3z"/>
			</g>
			<g>
				<path class="st2" d="M80.4,115.1l58.6,29.1V1.1L80.4,30.1V115.1z M134.8,7.9v129.4l-50.1-24.8V32.8L134.8,7.9z"/>
				<path class="st2" d="M206.1,1.1v143.1l58.3-28.9l0.3-0.2v-85L206.1,1.1z M210.4,137.3V7.9l50.1,24.8v79.7L210.4,137.3z"/>
				<path class="st2" d="M147.5,0v62.9l25.1,20.6l25.1-20.6V0l-25.1,20.6L147.5,0z M151.8,9l20.8,17.1L193.4,9v51.8L172.6,78
					l-20.8-17.1V9z"/>
			</g>
		</g>
	</g>
</g>
<g id="Menus" class="st228">
</g>
</svg>
