<?xml version="1.0" encoding="utf-8"?>
<!-- Generator: Adobe Illustrator 22.0.1, SVG Export Plug-In . SVG Version: 6.00 Build 0)  -->
<svg version="1.1" xmlns="http://www.w3.org/2000/svg" xmlns:xlink="http://www.w3.org/1999/xlink" x="0px" y="0px"
	 viewBox="0 0 800 211.7" style="enable-background:new 0 0 800 211.7;" xml:space="preserve">
<style type="text/css">
	.st0{clip-path:url(#SVGID_2_);}
	.st1{opacity:0.2;fill:#2B2B2D;}
	.st2{fill:#FFFFFF;}
	.st3{clip-path:url(#SVGID_4_);fill:#E8E8EA;}
	.st4{clip-path:url(#SVGID_6_);}
	.st5{opacity:0.21;fill:#2B2B2D;}
	.st6{clip-path:url(#SVGID_10_);}
	.st7{clip-path:url(#SVGID_14_);}
	.st8{fill:#2B2B2D;stroke:#3F3E40;stroke-width:0.632;stroke-miterlimit:10;}
	.st9{clip-path:url(#SVGID_16_);}
	.st10{fill:none;stroke:#E8E8EA;stroke-width:2.223;stroke-miterlimit:10;}
	.st11{fill:none;stroke:#E8E8EA;stroke-width:1.1659;stroke-miterlimit:10;}
	.st12{fill:#414042;}
	.st13{opacity:0.56;fill:none;stroke:#414042;stroke-miterlimit:10;}
	.st14{fill:none;stroke:#3F3E40;stroke-width:8;stroke-miterlimit:10;}
	.st15{clip-path:url(#SVGID_20_);fill:#E8E8EA;}
	.st16{fill:none;stroke:#FFFFFF;stroke-width:0.5;stroke-miterlimit:10;}
	.st17{fill:#3F96B4;}
	.st18{fill:#1F191A;}
	.st19{fill:none;stroke:#000000;stroke-width:0.5;stroke-miterlimit:10;}
	.st20{fill:none;stroke:#FFFFFF;stroke-width:8;stroke-miterlimit:10;}
	.st21{opacity:0.1;clip-path:url(#SVGID_22_);}
	.st22{opacity:0.31;}
	.st23{fill:#000100;}
	.st24{fill:#CAC9C8;}
	.st25{fill:#292929;}
	.st26{fill:#818180;}
	.st27{fill:#1A1A1A;}
	.st28{fill:#1D1D1B;}
	.st29{fill:#2DAED7;}
	.st30{fill:#88BAD9;}
	.st31{fill:#C52C1D;}
	.st32{fill:#21A2D5;}
	.st33{clip-path:url(#SVGID_24_);}
	.st34{clip-path:url(#SVGID_26_);}
	.st35{clip-path:url(#SVGID_28_);fill:#E8E8EA;}
	.st36{clip-path:url(#SVGID_30_);fill:#E8E8EA;}
	.st37{clip-path:url(#SVGID_32_);fill:#E8E8EA;}
	.st38{clip-path:url(#SVGID_36_);fill:#B4B6B9;}
	.st39{fill:#B4B6B9;}
	.st40{clip-path:url(#SVGID_38_);fill:#B4B6B9;}
	.st41{clip-path:url(#SVGID_40_);fill:#B4B6B9;}
	.st42{clip-path:url(#SVGID_42_);fill:#B4B6B9;}
	.st43{clip-path:url(#SVGID_44_);fill:#B4B6B9;}
	.st44{clip-path:url(#SVGID_46_);fill:#B4B6B9;}
	.st45{clip-path:url(#SVGID_48_);fill:#B4B6B9;}
	.st46{clip-path:url(#SVGID_50_);fill:#B4B6B9;}
	.st47{clip-path:url(#SVGID_52_);fill:#B4B6B9;}
	.st48{clip-path:url(#SVGID_54_);fill:#B4B6B9;}
	.st49{clip-path:url(#SVGID_56_);fill:#B4B6B9;}
	.st50{clip-path:url(#SVGID_58_);fill:#B4B6B9;}
	.st51{clip-path:url(#SVGID_60_);fill:#B4B6B9;}
	.st52{clip-path:url(#SVGID_62_);fill:#B4B6B9;}
	.st53{clip-path:url(#SVGID_64_);fill:#B4B6B9;}
	.st54{clip-path:url(#SVGID_66_);fill:#B4B6B9;}
	.st55{clip-path:url(#SVGID_68_);fill:#B4B6B9;}
	.st56{clip-path:url(#SVGID_70_);fill:#B4B6B9;}
	.st57{clip-path:url(#SVGID_72_);fill:#B4B6B9;}
	.st58{clip-path:url(#SVGID_74_);fill:#B4B6B9;}
	.st59{clip-path:url(#SVGID_76_);fill:#B4B6B9;}
	.st60{clip-path:url(#SVGID_78_);fill:#B4B6B9;}
	.st61{clip-path:url(#SVGID_80_);fill:#B4B6B9;}
	.st62{clip-path:url(#SVGID_82_);fill:#B4B6B9;}
	.st63{clip-path:url(#SVGID_84_);fill:#B4B6B9;}
	.st64{clip-path:url(#SVGID_86_);fill:#B4B6B9;}
	.st65{clip-path:url(#SVGID_88_);fill:#B4B6B9;}
	.st66{clip-path:url(#SVGID_90_);fill:#B4B6B9;}
	.st67{clip-path:url(#SVGID_92_);fill:#B4B6B9;}
	.st68{clip-path:url(#SVGID_94_);fill:#B4B6B9;}
	.st69{clip-path:url(#SVGID_96_);fill:#B4B6B9;}
	.st70{clip-path:url(#SVGID_96_);fill:#EEEEEE;}
	.st71{clip-path:url(#SVGID_98_);fill:#B4B6B9;}
	.st72{clip-path:url(#SVGID_100_);fill:#B4B6B9;}
	.st73{clip-path:url(#SVGID_102_);fill:#B4B6B9;}
	.st74{clip-path:url(#SVGID_104_);fill:#B4B6B9;}
	.st75{clip-path:url(#SVGID_106_);fill:#B4B6B9;}
	.st76{clip-path:url(#SVGID_108_);fill:#B4B6B9;}
	.st77{clip-path:url(#SVGID_110_);fill:#B4B6B9;}
	.st78{clip-path:url(#SVGID_112_);fill:#B4B6B9;}
	.st79{clip-path:url(#SVGID_114_);fill:#B4B6B9;}
	.st80{clip-path:url(#SVGID_116_);fill:#B4B6B9;}
	.st81{clip-path:url(#SVGID_118_);fill:#B4B6B9;}
	.st82{clip-path:url(#SVGID_120_);fill:#B4B6B9;}
	.st83{clip-path:url(#SVGID_122_);fill:#B4B6B9;}
	.st84{clip-path:url(#SVGID_124_);fill:#B4B6B9;}
	.st85{clip-path:url(#SVGID_126_);fill:#B4B6B9;}
	.st86{clip-path:url(#SVGID_128_);fill:#B4B6B9;}
	.st87{clip-path:url(#SVGID_130_);fill:#B4B6B9;}
	.st88{clip-path:url(#SVGID_132_);fill:#B4B6B9;}
	.st89{clip-path:url(#SVGID_134_);fill:#B4B6B9;}
	.st90{clip-path:url(#SVGID_136_);fill:#B4B6B9;}
	.st91{clip-path:url(#SVGID_138_);fill:#B4B6B9;}
	.st92{clip-path:url(#SVGID_140_);fill:#B4B6B9;}
	.st93{clip-path:url(#SVGID_142_);fill:#B4B6B9;}
	.st94{clip-path:url(#SVGID_144_);fill:#B4B6B9;}
	.st95{clip-path:url(#SVGID_144_);fill:#95989A;}
	.st96{clip-path:url(#SVGID_144_);fill:#AEB1B1;}
	.st97{clip-path:url(#SVGID_144_);fill:#808081;}
	.st98{clip-path:url(#SVGID_144_);fill:#616366;}
	.st99{fill:#616366;}
	.st100{clip-path:url(#SVGID_146_);fill:#616366;}
	.st101{clip-path:url(#SVGID_148_);fill:#616366;}
	.st102{clip-path:url(#SVGID_150_);fill:#616366;}
	.st103{clip-path:url(#SVGID_152_);fill:#616366;}
	.st104{clip-path:url(#SVGID_154_);fill:#616366;}
	.st105{clip-path:url(#SVGID_156_);fill:#616366;}
	.st106{clip-path:url(#SVGID_158_);fill:#616366;}
	.st107{clip-path:url(#SVGID_160_);fill:#616366;}
	.st108{clip-path:url(#SVGID_162_);fill:#616366;}
	.st109{clip-path:url(#SVGID_164_);fill:#616366;}
	.st110{clip-path:url(#SVGID_166_);fill:#616366;}
	.st111{clip-path:url(#SVGID_168_);fill:#616366;}
	.st112{clip-path:url(#SVGID_170_);fill:#616366;}
	.st113{clip-path:url(#SVGID_172_);fill:#B4B6B9;}
	.st114{clip-path:url(#SVGID_174_);fill:#B4B6B9;}
	.st115{clip-path:url(#SVGID_176_);fill:#B4B6B9;}
	.st116{clip-path:url(#SVGID_178_);fill:#B4B6B9;}
	.st117{clip-path:url(#SVGID_180_);fill:#B4B6B9;}
	.st118{clip-path:url(#SVGID_182_);fill:#B4B6B9;}
	.st119{clip-path:url(#SVGID_184_);fill:#B4B6B9;}
	.st120{clip-path:url(#SVGID_186_);fill:#B4B6B9;}
	.st121{clip-path:url(#SVGID_188_);fill:#B4B6B9;}
	.st122{clip-path:url(#SVGID_190_);fill:#B4B6B9;}
	.st123{clip-path:url(#SVGID_192_);fill:#B4B6B9;}
	.st124{clip-path:url(#SVGID_194_);fill:#B4B6B9;}
	.st125{clip-path:url(#SVGID_196_);fill:#B4B6B9;}
	.st126{clip-path:url(#SVGID_198_);fill:#B4B6B9;}
	.st127{clip-path:url(#SVGID_198_);fill:#A6A8AA;}
	.st128{clip-path:url(#SVGID_200_);fill:#B4B6B9;}
	.st129{clip-path:url(#SVGID_202_);fill:#B4B6B9;}
	.st130{clip-path:url(#SVGID_204_);fill:#B4B6B9;}
	.st131{clip-path:url(#SVGID_206_);fill:#B4B6B9;}
	.st132{clip-path:url(#SVGID_208_);fill:#B4B6B9;}
	.st133{clip-path:url(#SVGID_210_);fill:#B4B6B9;}
	.st134{clip-path:url(#SVGID_212_);fill:#B4B6B9;}
	.st135{clip-path:url(#SVGID_214_);fill:#B4B6B9;}
	.st136{clip-path:url(#SVGID_216_);fill:#B4B6B9;}
	.st137{clip-path:url(#SVGID_218_);fill:#B4B6B9;}
	.st138{clip-path:url(#SVGID_220_);fill:#B4B6B9;}
	.st139{clip-path:url(#SVGID_222_);fill:#B4B6B9;}
	.st140{clip-path:url(#SVGID_224_);fill:#B4B6B9;}
	.st141{clip-path:url(#SVGID_226_);fill:#B4B6B9;}
	.st142{clip-path:url(#SVGID_228_);fill:#B4B6B9;}
	.st143{clip-path:url(#SVGID_228_);fill:#ECE9E8;}
	.st144{clip-path:url(#SVGID_230_);fill:#B4B6B9;}
	.st145{clip-path:url(#SVGID_232_);fill:#B4B6B9;}
	.st146{clip-path:url(#SVGID_234_);fill:#B4B6B9;}
	.st147{clip-path:url(#SVGID_236_);fill:#B4B6B9;}
	.st148{clip-path:url(#SVGID_238_);fill:#B4B6B9;}
	.st149{clip-path:url(#SVGID_240_);fill:#B4B6B9;}
	.st150{clip-path:url(#SVGID_242_);fill:#B4B6B9;}
	.st151{clip-path:url(#SVGID_244_);fill:#B4B6B9;}
	.st152{clip-path:url(#SVGID_246_);fill:#B4B6B9;}
	.st153{clip-path:url(#SVGID_248_);fill:#B4B6B9;}
	.st154{clip-path:url(#SVGID_250_);fill:#B4B6B9;}
	.st155{clip-path:url(#SVGID_252_);fill:#B4B6B9;}
	.st156{fill:none;stroke:#231F20;stroke-width:0.4611;}
	.st157{clip-path:url(#SVGID_254_);fill:#B4B6B9;}
	.st158{clip-path:url(#SVGID_256_);}
	.st159{clip-path:url(#SVGID_258_);}
	.st160{clip-path:url(#SVGID_262_);fill:#FFFFFF;}
	.st161{fill:#A6A8AA;}
	.st162{clip-path:url(#SVGID_264_);fill:#A6A8AA;}
	.st163{clip-path:url(#SVGID_264_);fill:#848688;}
	.st164{clip-path:url(#SVGID_264_);fill:none;stroke:#FFFFFF;stroke-width:0.5497;stroke-miterlimit:10;}
	.st165{clip-path:url(#SVGID_264_);fill:#8F9194;}
	.st166{clip-path:url(#SVGID_264_);fill:#AEB0B2;}
	.st167{clip-path:url(#SVGID_264_);fill:#808081;}
	.st168{clip-path:url(#SVGID_264_);fill:#FFFFFF;}
	.st169{clip-path:url(#SVGID_266_);fill:#FFFFFF;}
	.st170{clip-path:url(#SVGID_268_);fill:#FFFFFF;}
	.st171{clip-path:url(#SVGID_270_);fill:#FFFFFF;}
	.st172{clip-path:url(#SVGID_272_);fill:#FFFFFF;}
	.st173{clip-path:url(#SVGID_274_);fill:#FFFFFF;}
	.st174{clip-path:url(#SVGID_276_);fill:#FFFFFF;}
	.st175{clip-path:url(#SVGID_278_);fill:#FFFFFF;}
	.st176{clip-path:url(#SVGID_280_);fill:#FFFFFF;}
	.st177{clip-path:url(#SVGID_282_);fill:#FFFFFF;}
	.st178{clip-path:url(#SVGID_284_);fill:#FFFFFF;}
	.st179{clip-path:url(#SVGID_286_);fill:#FFFFFF;}
	.st180{clip-path:url(#SVGID_288_);fill:#FFFFFF;}
	.st181{clip-path:url(#SVGID_288_);fill:#808081;}
	.st182{clip-path:url(#SVGID_288_);fill:#AEB0B2;}
	.st183{clip-path:url(#SVGID_288_);fill:none;stroke:#AEB0B2;stroke-width:0.3505;stroke-miterlimit:10;}
	.st184{clip-path:url(#SVGID_288_);fill:none;stroke:#AEB0B2;stroke-width:0.1752;stroke-miterlimit:10;}
	.st185{fill:#AEB0B2;}
	.st186{clip-path:url(#SVGID_290_);fill:none;stroke:#808081;stroke-width:4.3256;stroke-miterlimit:10;}
	.st187{clip-path:url(#SVGID_290_);fill:#808081;}
	.st188{clip-path:url(#SVGID_290_);fill:none;stroke:#FFFFFF;stroke-width:0.6032;stroke-miterlimit:10;}
	.st189{clip-path:url(#SVGID_290_);fill:#AEB0B2;}
	.st190{clip-path:url(#SVGID_290_);fill:none;stroke:#FFFFFF;stroke-width:0.4021;stroke-miterlimit:10;}
	.st191{clip-path:url(#SVGID_290_);fill:none;stroke:#FFFFFF;stroke-width:0.3818;stroke-miterlimit:10;}
	.st192{fill:#808081;}
	.st193{clip-path:url(#SVGID_292_);fill:#808081;}
	.st194{clip-path:url(#SVGID_294_);fill:#808081;}
	.st195{clip-path:url(#SVGID_294_);fill:#AEB0B2;}
	.st196{clip-path:url(#SVGID_296_);fill:#AEB0B2;}
	.st197{clip-path:url(#SVGID_296_);fill:#8F9194;}
	.st198{clip-path:url(#SVGID_298_);}
	.st199{clip-path:url(#SVGID_300_);}
	.st200{clip-path:url(#SVGID_304_);}
	.st201{clip-path:url(#SVGID_306_);}
	.st202{clip-path:url(#SVGID_310_);}
	.st203{clip-path:url(#SVGID_312_);}
	.st204{clip-path:url(#SVGID_316_);}
	.st205{clip-path:url(#SVGID_318_);}
	.st206{clip-path:url(#SVGID_322_);fill:#8F9194;}
	.st207{fill:#8F9194;}
	.st208{clip-path:url(#SVGID_324_);}
	.st209{clip-path:url(#SVGID_328_);}
	.st210{clip-path:url(#SVGID_332_);}
	.st211{clip-path:url(#SVGID_336_);fill:#8F9194;}
	.st212{clip-path:url(#SVGID_338_);}
	.st213{clip-path:url(#SVGID_342_);fill:#8F9194;}
	.st214{clip-path:url(#SVGID_344_);fill:#8F9194;}
	.st215{clip-path:url(#SVGID_346_);fill:#8F9194;}
	.st216{clip-path:url(#SVGID_348_);fill:#8F9194;}
	.st217{clip-path:url(#SVGID_350_);fill:#8F9194;}
	.st218{clip-path:url(#SVGID_352_);fill:#8F9194;}
	.st219{clip-path:url(#SVGID_354_);fill:#8F9194;}
	.st220{clip-path:url(#SVGID_356_);fill:#8F9194;}
	.st221{clip-path:url(#SVGID_358_);}
	.st222{clip-path:url(#SVGID_362_);fill:#B8BABC;}
	.st223{clip-path:url(#SVGID_362_);fill:#8F9194;}
	.st224{clip-path:url(#SVGID_364_);fill:#8F9194;}
	.st225{clip-path:url(#SVGID_366_);fill:#8F9194;}
	.st226{fill:#6295B2;}
	.st227{display:none;}
	.st228{display:inline;}
	.st229{fill:#E8E8EA;}
	.st230{opacity:0.5;fill:#3F3E40;}
	.st231{fill:#3F3E40;}
	.st232{fill:none;stroke:#FFFFFF;stroke-miterlimit:10;}
</style>
<g id="Layer_1">
	<g>
		<g>
			<g>
				<path class="st226" d="M166.9,128.7c-1.4-18.6-2.9-37.2-4.3-55.8c-0.5-7-1-13.7-1-20.7c0-4.5,0.3-12-4.7-14.3
					c-6.4-2.9-8.6,3.2-11.6,6.6c-6.6,7.5-12.2,15.9-18.9,23.3C108.5,87.7,102.2,56,87.9,49.4c-6.2-2.9-11.3,5.3-14.1,9.8
					c-5.9,9.7-13.3,31.3-30.3,8.5c-7.2-8.8-14.4-17.5-21.6-26.2C8.2,59.3,0,81.6,0,105.8c0,58.5,47.4,105.8,105.8,105.8
					c21.6,0,41.6-6.5,58.4-17.5c1.5-8.3,1.7-17.1,1.9-25.4C166.3,155.6,167.9,141.8,166.9,128.7z"/>
				<path class="st226" d="M211.7,105.8c0-31.9-14.1-60.4-36.4-79.8c0.7,9,1.6,18,2.5,27c1.8,17.2,3.5,34.4,3,51.7
					c-0.1,2.9-0.1,5.8-0.1,8.7c0.2,23.7,2.1,47.4-2.7,69.8C198.7,163.9,211.7,136.4,211.7,105.8z"/>
				<path class="st226" d="M60.9,48.9c2.9-2.5,5.9-5,8.6-7.7c5.9-5.8,12.7-15.3,22.2-12.5c5.4,1.6,22.7,23.9,23.4,23.6
					c17.4-7,23.2-25.3,35.8-37c1.2-1.1,2.4-2.3,3.6-3.5C139.9,4.3,123.4,0,105.8,0C78,0,52.7,10.8,33.8,28.3
					c5.2,6.2,10.4,12.4,15.7,18.4C53.7,51.5,55.9,53.1,60.9,48.9z"/>
			</g>
		</g>
		<g>
			<g>
				<path class="st18" d="M254.2,54.8h10.9v7.2c3.1-4.2,7.2-8.2,14.5-8.2c6.8,0,11.7,3.4,14.3,8.4c3.8-5,8.8-8.4,16.1-8.4
					c10.4,0,16.7,6.6,16.7,18.2v30.4h-10.9V75.4c0-7.6-3.5-11.6-9.6-11.6c-6,0-10.2,4.1-10.2,11.8v26.9H285V75.3
					c0-7.4-3.6-11.5-9.7-11.5c-6.1,0-10.2,4.5-10.2,11.8v26.9h-10.9V54.8z"/>
				<path class="st18" d="M337.4,78.9v-0.2c0-13.6,9.7-24.8,23.3-24.8c15.2,0,22.8,11.9,22.8,25.6c0,1-0.1,2-0.2,3.1h-35
					c1.2,7.8,6.7,12.1,13.7,12.1c5.3,0,9.1-2,12.9-5.7l6.4,5.7c-4.5,5.4-10.7,8.9-19.5,8.9C348,103.6,337.4,93.6,337.4,78.9z
					 M372.6,75.3c-0.7-7-4.9-12.6-12.1-12.6c-6.7,0-11.4,5.2-12.4,12.6H372.6z"/>
				<path class="st18" d="M392.1,78.8v-0.2c0-15.8,10.8-24.7,22.1-24.7c7.8,0,12.8,3.9,16.2,8.4V36.6h10.9v65.9h-10.9v-8
					c-3.5,5-8.5,8.9-16.2,8.9C403,103.5,392.1,94.6,392.1,78.8z M430.6,78.8v-0.2c0-9.2-6.5-15.3-13.8-15.3
					c-7.5,0-13.7,5.8-13.7,15.3v0.2c0,9.2,6.3,15.3,13.7,15.3C424.1,94,430.6,87.9,430.6,78.8z"/>
				<path class="st18" d="M455.2,37.2H467v10.4h-11.7V37.2z M455.7,54.8h10.9v47.7h-10.9V54.8z"/>
				<path class="st18" d="M477,96.3l4.9-7.4c5.3,3.9,10.8,5.9,15.6,5.9c4.7,0,7.4-2,7.4-5.2v-0.2c0-3.7-5-4.9-10.7-6.7
					c-7-2-14.9-4.9-14.9-14v-0.2c0-9,7.5-14.5,17-14.5c6,0,12.5,2.1,17.5,5.4l-4.3,7.8c-4.6-2.8-9.5-4.5-13.5-4.5
					c-4.3,0-6.7,2-6.7,4.7v0.2c0,3.5,5.2,5,10.8,6.8c7,2.2,14.8,5.3,14.8,13.9v0.2c0,10-7.8,15-17.7,15
					C490.4,103.4,482.9,101,477,96.3z"/>
				<path class="st18" d="M527.6,56.5h4.4v10.3c4-6.1,9.9-11.4,18.9-11.4c11.1,0,22.4,8.9,22.4,23.9v0.2c0,15-11.3,24.1-22.4,24.1
					c-9.2,0-15.2-5.2-18.9-11V117h-4.4V56.5z M568.6,79.7v-0.2c0-12.1-8.4-19.9-18.1-19.9c-9.5,0-18.8,8-18.8,19.8v0.2
					c0,11.8,9.2,19.8,18.8,19.8C560.5,99.3,568.6,92,568.6,79.7z"/>
				<path class="st18" d="M587.2,36.6h4.4V65c3.1-5.4,8.2-9.7,16.6-9.7c11.6,0,18.4,8,18.4,19v28.2h-4.4V75.2
					c0-9.5-5.3-15.7-14.6-15.7c-9,0-16,6.9-16,16.4v26.6h-4.4V36.6z"/>
				<path class="st18" d="M638.7,89.2V89c0-9.6,8.2-15,20.1-15c6.4,0,10.8,0.8,15.3,2v-2c0-9.3-5.7-14.1-15.1-14.1
					c-5.6,0-10.2,1.5-14.5,3.7l-1.6-3.9c5.1-2.3,10-4,16.3-4c6.2,0,11.2,1.7,14.6,5.1c3.1,3.1,4.7,7.3,4.7,13v28.7h-4.3v-7.7
					c-3.2,4.4-8.8,8.7-17.6,8.7C647.9,103.6,638.7,98.7,638.7,89.2z M674.2,85.3V80c-3.9-1-9-2.1-15.6-2.1
					c-9.7,0-15.2,4.3-15.2,10.7v0.2c0,6.7,6.3,10.6,13.4,10.6C666.1,99.4,674.2,93.7,674.2,85.3z"/>
				<path class="st18" d="M694.3,56.5h4.5v13.1c3.6-8.2,11.3-14.2,20.4-13.8v4.9h-0.4c-10.7,0-19.9,8-19.9,23v18.9h-4.5V56.5z"/>
				<path class="st18" d="M730.4,56.5h4.4v8.2c3-4.8,7.1-9.3,15.4-9.3c8,0,13,4.6,15.5,9.9c3-5.1,7.9-9.9,16.6-9.9
					c10.9,0,17.7,7.7,17.7,19.2v27.9h-4.4V75.2c0-9.9-5.1-15.7-13.6-15.7c-7.8,0-14.6,6-14.6,16.3v26.8H763V74.9
					c0-9.6-5.2-15.5-13.5-15.5c-8.2,0-14.7,7.3-14.7,16.5v26.5h-4.4V56.5z"/>
			</g>
		</g>
		<g>
			<path class="st18" d="M254.2,157L254.2,157c0-6.6,4.6-11.8,10.6-11.8c6.3,0,10.3,5.1,10.3,11.7c0,0.4,0,0.5-0.1,0.9h-18.6
				c0.4,5.6,4.4,8.8,8.8,8.8c3.5,0,5.8-1.5,7.7-3.5l1.5,1.3c-2.3,2.5-5,4.2-9.3,4.2C259.3,168.6,254.2,163.9,254.2,157z
				 M272.8,155.9c-0.3-4.5-2.9-8.7-8-8.7c-4.4,0-7.8,3.7-8.2,8.7H272.8z"/>
			<path class="st18" d="M300.7,145.7h2.1v4.2c1.5-2.6,4-4.7,8.1-4.7c5.7,0,9,3.9,9,9.2v13.7h-2.2v-13.3c0-4.6-2.6-7.6-7.1-7.6
				c-4.4,0-7.8,3.3-7.8,8v12.9h-2.1V145.7z"/>
			<path class="st18" d="M346.9,136h2.1v13.9c1.5-2.6,4-4.7,8.1-4.7c5.7,0,9,3.9,9,9.2v13.7H364v-13.3c0-4.6-2.6-7.6-7.1-7.6
				c-4.4,0-7.8,3.3-7.8,8v12.9h-2.1V136z"/>
			<path class="st18" d="M391.3,161.6L391.3,161.6c0-4.8,4-7.4,9.8-7.4c3.1,0,5.3,0.4,7.4,1v-1c0-4.5-2.8-6.8-7.4-6.8
				c-2.7,0-5,0.7-7,1.8l-0.8-1.9c2.4-1.1,4.9-1.9,7.9-1.9c3,0,5.5,0.8,7.1,2.5c1.5,1.5,2.3,3.5,2.3,6.3v14h-2.1v-3.7
				c-1.5,2.2-4.3,4.2-8.6,4.2C395.8,168.6,391.3,166.3,391.3,161.6z M408.6,159.7v-2.6c-1.9-0.5-4.4-1-7.6-1c-4.7,0-7.4,2.1-7.4,5.2
				v0.1c0,3.3,3.1,5.2,6.5,5.2C404.6,166.6,408.6,163.8,408.6,159.7z"/>
			<path class="st18" d="M437.6,145.7h2.1v4.2c1.5-2.6,4-4.7,8.1-4.7c5.6,0,9,3.9,9,9.2v13.7h-2.2v-13.3c0-4.6-2.6-7.6-7.1-7.6
				c-4.4,0-7.8,3.3-7.8,8v12.9h-2.1V145.7z"/>
			<path class="st18" d="M482.3,157L482.3,157c0-6.4,5-11.8,11.4-11.8c4.2,0,6.9,1.9,9,4.1l-1.5,1.6c-1.9-2-4.1-3.7-7.5-3.7
				c-5.1,0-9,4.2-9,9.6v0.1c0,5.4,4.1,9.7,9.2,9.7c3.2,0,5.6-1.6,7.5-3.7l1.5,1.3c-2.3,2.6-5,4.4-9.1,4.4
				C487.3,168.6,482.3,163.2,482.3,157z"/>
			<path class="st18" d="M528.2,136.9h2.7v2.9h-2.7V136.9z M528.5,145.7h2.1v22.4h-2.1V145.7z"/>
			<path class="st18" d="M558.5,145.7h2.2v4.2c1.5-2.6,4-4.7,8.1-4.7c5.7,0,9,3.9,9,9.2v13.7h-2.1v-13.3c0-4.6-2.6-7.6-7.1-7.6
				c-4.4,0-7.8,3.3-7.8,8v12.9h-2.2V145.7z"/>
			<path class="st18" d="M604.2,171.8l1.3-1.8c2.7,2.1,5.8,3.2,9,3.2c5.1,0,8.8-2.9,8.8-8.7v-3.3c-1.9,2.8-4.9,5.2-9.3,5.2
				c-5.4,0-10.7-4.1-10.7-10.5v-0.1c0-6.5,5.3-10.6,10.7-10.6c4.5,0,7.5,2.4,9.3,5v-4.5h2.2v18.9c0,3.2-1,5.8-2.8,7.6
				c-1.9,1.9-4.8,3-8.1,3C610.8,175.2,607.3,174.1,604.2,171.8z M623.4,155.9v-0.1c0-5.2-4.6-8.5-9.2-8.5c-4.7,0-8.6,3.3-8.6,8.5
				v0.1c0,5,4,8.6,8.6,8.6C618.8,164.4,623.4,160.9,623.4,155.9z"/>
			<path class="st18" d="M685.7,136h2.2v32.1h-2.2V136z"/>
			<path class="st18" d="M715.7,136.9h2.7v2.9h-2.7V136.9z M716,145.7h2.2v22.4H716V145.7z"/>
			<path class="st18" d="M747.2,147.7h-3.3v-2h3.3v-2.2c0-2.5,0.7-4.6,2-5.8c1.1-1.1,2.7-1.7,4.7-1.7c1.4,0,2.3,0.2,3.3,0.5v2
				c-1.3-0.4-2.2-0.6-3.3-0.6c-3.1,0-4.5,1.9-4.5,5.7v2.2h7.8v2h-7.8v20.4h-2.2V147.7z"/>
			<path class="st18" d="M779.1,157L779.1,157c0-6.6,4.6-11.8,10.6-11.8c6.3,0,10.3,5.1,10.3,11.7c0,0.4,0,0.5,0,0.9h-18.6
				c0.4,5.6,4.4,8.8,8.8,8.8c3.5,0,5.9-1.5,7.7-3.5l1.5,1.3c-2.3,2.5-5,4.2-9.3,4.2C784.2,168.6,779.1,163.9,779.1,157z
				 M797.7,155.9c-0.3-4.5-2.9-8.7-8-8.7c-4.4,0-7.9,3.7-8.3,8.7H797.7z"/>
		</g>
	</g>
</g>
<g id="Menus" class="st227">
</g>
</svg>
